<svg width="64" height="64" viewBox="0 0 64 64" fill="none" xmlns="http://www.w3.org/2000/svg">
<g clip-path="url(#clip0)">
<path d="M64 31.9813V32C64 36.32 63.1438 40.4387 61.5913 44.1975C61.4313 44.5862 61.2637 44.9712 61.0887 45.3512C60.7075 46.1825 60.29 46.995 59.8413 47.785C59.3675 48.6187 58.8575 49.4313 58.3112 50.2163C57.4962 51.3938 56.6025 52.5137 55.6387 53.5687C49.8062 59.9562 41.4213 63.9712 32.0988 64H32C25.3475 64 19.1688 61.97 14.05 58.4938C11.965 57.0788 10.055 55.4237 8.36125 53.5687C8.04375 53.2212 7.73375 52.8663 7.43375 52.505C6.01375 50.8088 4.76875 48.9625 3.72375 46.9925C3.57375 46.7088 3.4275 46.4237 3.28625 46.135C2.36 44.26 1.6125 42.28 1.0675 40.2175C0.8425 39.3737 0.6525 38.5175 0.4975 37.6488C0.29875 36.5375 0.15875 35.4062 0.07875 34.2575C0.03625 33.6587 0.01125 33.055 0.00375 32.4463C0.00125 32.2988 0 32.1488 0 32C0 31.4488 0.01375 30.9013 0.04125 30.3575C0.125 28.7063 0.33375 27.0875 0.65875 25.51C1.34875 22.1613 2.5625 19.0025 4.21 16.125C9.725 6.49125 20.105 0 32 0C43.895 0 54.275 6.49125 59.79 16.125C61.4125 18.9588 62.6138 22.065 63.3088 25.3575C63.3163 25.395 63.325 25.4338 63.3325 25.4713C63.75 27.4813 63.9775 29.5575 63.9987 31.685C64 31.7837 64 31.8825 64 31.9813V31.9813Z" fill="#92EAFF"/>
<path d="M63.3082 25.3575L63.247 25.4338C47.137 45.3175 16.817 45.355 0.658203 25.51C1.3482 22.1613 2.56195 19.0025 4.20945 16.125C9.72445 25.7587 20.1045 32.25 31.9995 32.25C43.8945 32.25 54.2745 25.7587 59.7895 16.125C61.412 18.9588 62.6132 22.065 63.3082 25.3575V25.3575Z" fill="#63DBFA"/>
<path d="M56.818 36.4624L56.6743 36.5524C41.6593 45.8812 22.568 45.5299 7.90676 35.6549L2.00463 31.6796C0.918756 30.9482 0.625756 29.4759 1.35251 28.3869C3.25251 25.5398 5.17113 22.7049 7.11051 19.8849C7.36801 19.5099 7.62676 19.1362 7.88426 18.7624C8.21176 18.2887 8.54051 17.8137 8.87051 17.3412L15.7743 11.5149C16.5193 10.8849 17.5143 10.6362 18.468 10.8412C18.9205 10.9374 19.3405 11.1324 19.7018 11.4037C20.063 11.6749 20.3668 12.0249 20.5855 12.4324L25.1015 20.8456C25.8125 22.1701 27.4824 22.6377 28.7778 21.8749L31.2805 20.4013C31.7655 20.1163 32.3168 19.9651 32.8793 19.9651H34.7068C35.7218 19.9651 36.6755 20.4551 37.268 21.2801L39.583 24.5063C40.533 25.8301 42.333 26.2126 43.7393 25.3888L44.998 24.6513C45.908 24.1176 47.0255 24.0751 47.9743 24.5376L50.053 25.5526C50.148 25.7051 50.243 25.8576 50.3368 26.0101C51.5818 28.0063 52.8218 30.0063 54.0605 32.0063C54.9805 33.4912 55.8993 34.9762 56.818 36.4624V36.4624Z" fill="#7E7F92"/>
<path d="M51.749 39.2026C37.6427 45.6988 21.0052 44.4788 7.90523 35.6551L5.55273 34.0701C9.60648 28.5463 13.3577 23.5326 14.9252 21.7163C15.904 20.5813 17.989 20.2226 19.3427 20.9626C20.6965 21.7026 23.179 27.1463 24.1252 28.3038C25.0702 29.4626 26.6515 30.3301 28.189 30.0113C29.3427 29.7713 30.2365 28.9276 31.3427 28.5413C31.5715 28.4613 31.789 28.4051 31.999 28.3688C33.4552 28.1151 34.4802 28.8713 35.4302 30.1401C36.3802 31.4076 37.4515 32.5313 38.4565 33.1226C39.4615 33.7138 40.744 33.8901 41.8927 33.5963C43.3052 33.2338 44.5177 32.2063 45.984 32.1976C47.2227 32.1888 48.4102 33.0251 48.7252 34.1251L51.749 39.2026Z" fill="#6E6F83"/>
<path d="M42.685 43.2049V46.1349H12.7896C6.13738 46.1349 0.57575 41.0189 0.08775 34.3845C0.084625 34.3421 0.081625 34.2998 0.078625 34.2574C0.02625 33.5124 0 32.7586 0 31.9999C0 29.7761 0.22625 27.6061 0.65875 25.5099C1.1175 25.5811 1.55375 25.7774 1.8925 26.0974C2.97375 27.1161 3.55625 28.9786 5.41875 28.5849C6.01125 28.4586 6.5475 28.1536 7.1025 27.9099C7.6575 27.6649 8.27375 27.4786 8.865 27.6124C10.2212 27.9161 10.4612 29.4999 11.7188 29.9599C13.545 30.6286 15.2387 28.0336 17.0037 29.5161C17.5925 30.0111 17.735 30.8399 17.9788 31.5699C18.34 32.6499 19.1737 33.3474 20.2725 32.8974C21.345 32.4574 22.4362 31.8399 23.4312 32.9474C24.0162 33.5986 24.2387 34.6324 25.05 34.9599C26.15 35.4049 27.3538 34.1661 28.4963 34.4811C30.0163 34.8999 30.38 36.7399 32 36.1624C32.1762 36.0986 32.3675 36.0074 32.5775 35.8824C33.1037 35.5674 33.67 35.1861 34.2738 35.2899C35.0138 35.4161 35.4337 36.2024 35.6512 36.9211C35.8687 37.6399 36.035 38.4461 36.6287 38.9074C37.42 39.5211 38.5525 39.2286 39.5488 39.3299C41.3863 39.5174 42.8838 41.3686 42.685 43.2049V43.2049Z" fill="#43AF3E"/>
<path d="M50.6264 45.4C39.0927 56.4138 21.9489 59.27 7.43391 52.505C6.01391 50.8088 4.76891 48.9625 3.72391 46.9925C3.57391 46.7088 3.42766 46.4238 3.28641 46.135C1.49641 42.5113 0.373906 38.4975 0.0789063 34.2575C0.0364063 33.6588 0.0114062 33.055 0.00390625 32.4463H9.50266C11.6402 32.4463 13.2477 32.7575 14.8689 34.2613C15.8177 35.14 16.6764 36.1463 17.8027 36.7838C19.8077 37.9175 22.2702 37.6888 24.5627 37.4625C27.3002 37.1925 29.7102 37.4963 32.0002 38.5088C32.9489 38.9275 33.8764 39.4688 34.7977 40.14C36.6289 41.4738 38.3602 42.9663 40.3589 44.0338C42.8089 45.3425 45.2789 45.35 47.9602 45.385C48.8489 45.3975 49.7377 45.4 50.6264 45.4V45.4Z" fill="#6CDC2D"/>
<path d="M47.9248 47.7499C36.5211 56.7899 20.8536 58.7599 7.43234 52.5049C6.01234 50.8087 4.76734 48.9624 3.72234 46.9924C3.57234 46.7087 3.42609 46.4237 3.28484 46.1349C1.97984 43.4924 1.02984 40.6424 0.496094 37.6487C6.44359 37.6587 7.92734 37.7687 11.4511 38.9774C13.2561 39.5974 13.6173 40.6849 15.4123 41.2374C17.3086 41.8224 19.3411 41.8174 21.3061 41.7362C24.1536 41.6174 27.1436 41.3912 29.7236 42.6049C30.4036 42.9249 31.1973 43.4487 31.9823 44.0124C31.9873 44.0162 31.9936 44.0199 31.9986 44.0237C32.9011 44.6724 33.7911 45.3674 34.4948 45.8637C36.3198 47.1512 38.4198 48.0974 40.9473 47.9049C42.1948 47.8099 44.7473 47.7649 47.9248 47.7499V47.7499Z" fill="#5DBF1D"/>
<path d="M6.94602 36.5324L6.90314 35.19L6.79889 31.9326H5.59439L5.49014 35.19L5.44727 36.5324H6.94602Z" fill="#EC771B"/>
<path d="M6.94569 36.5324L6.90281 35.19L6.79856 31.9326H6.22656V36.5324H6.94569Z" fill="#C55732"/>
<path d="M6.22519 34.5825V31.9326H5.59269L5.50781 34.5825H6.22519Z" fill="#C55732"/>
<path d="M6.88331 34.5825L6.79856 31.9326H6.22656V34.5825H6.88331Z" fill="#A44E3E"/>
<path d="M8.68314 32.9703C8.00264 33.6403 7.11402 33.9751 6.22552 33.9751C5.33714 33.9751 4.44864 33.6401 3.76789 32.9703C2.68214 31.9018 2.46502 30.3019 3.11639 29.0208C3.79764 27.6809 4.50914 26.3568 5.08802 24.9696L6.22539 22.2445L7.36077 24.9641C7.94077 26.3533 8.65314 27.6796 9.33502 29.0218C9.98602 30.3026 9.76877 31.9019 8.68314 32.9703V32.9703Z" fill="#43AF3E"/>
<path d="M8.68273 32.9694C8.00223 33.6394 7.1136 33.9743 6.2251 33.9743C5.8036 33.9743 5.3821 33.6393 5.0591 32.9694C4.53698 31.8863 4.43823 30.2573 4.76285 28.9677C5.21435 27.1742 5.61448 25.3269 5.98523 23.4553L6.2251 22.2435L7.36048 24.9632C7.94048 26.3523 8.65285 27.6787 9.33473 29.0208C9.9856 30.3018 9.76835 31.901 8.68273 32.9694Z" fill="#00A23E"/>
<path d="M8.68419 32.9694C8.00369 33.6394 7.11506 33.9743 6.22656 33.9743V22.2435L7.36194 24.9632C7.94194 26.3523 8.65431 27.6787 9.33619 29.0208C9.98706 30.3018 9.76981 31.901 8.68419 32.9694Z" fill="#008839"/>
<path d="M19.9282 33.1882H19.0215L19.07 31.6688L19.1297 29.8021H19.82L19.8797 31.6688L19.9282 33.1882Z" fill="#EC771B"/>
<path d="M19.9282 33.1882H19.4922V29.8021H19.8199L19.8797 31.6688L19.9282 33.1882Z" fill="#C55732"/>
<path d="M19.4919 31.4048V29.8021H19.1294L19.0781 31.4048H19.4919Z" fill="#C55732"/>
<path d="M19.8712 31.4048L19.8199 29.8021H19.4922V31.4048H19.8712Z" fill="#A44E3E"/>
<path d="M20.8998 30.3964C20.5098 30.7802 20.0006 30.9723 19.4915 30.9723C18.9824 30.9723 18.4733 30.7802 18.0833 30.3964C17.4611 29.784 17.3366 28.8673 17.71 28.1331C18.1004 27.3654 18.5081 26.6065 18.8399 25.8116L19.4916 24.25L20.1423 25.8085C20.4746 26.6045 20.8829 27.3646 21.2736 28.1336C21.6464 28.8678 21.5219 29.7842 20.8998 30.3964Z" fill="#43AF3E"/>
<path d="M20.9 30.3964C20.51 30.7802 20.0009 30.9722 19.4918 30.9722C19.2503 30.9722 19.0087 30.7802 18.8237 30.3964C18.5244 29.7757 18.4678 28.8422 18.6539 28.1032C18.9127 27.0755 19.1419 26.017 19.3544 24.9445L19.4919 24.2501L20.1425 25.8086C20.4749 26.6046 20.8832 27.3647 21.2739 28.1337C21.6467 28.8677 21.5222 29.7842 20.9 30.3964V30.3964Z" fill="#00A23E"/>
<path d="M20.9004 30.3964C20.5104 30.7802 20.0013 30.9722 19.4922 30.9722V24.2501L20.1428 25.8086C20.4752 26.6046 20.8834 27.3647 21.2742 28.1337C21.6471 28.8677 21.5226 29.7842 20.9004 30.3964V30.3964Z" fill="#008839"/>
<path d="M47.9263 47.7499C43.1963 51.4999 37.7325 54.0324 32 55.2674V44.0237C32.9025 44.6724 33.7925 45.3674 34.4963 45.8637C36.3213 47.1512 38.4212 48.0974 40.9487 47.9049C42.1962 47.8099 44.7488 47.7649 47.9263 47.7499Z" fill="#53AF17"/>
<path d="M63.9998 31.9812V32L45.2761 50.7237C37.1711 58.8287 25.2823 61.8337 14.3086 58.5712C14.2223 58.5462 14.1361 58.52 14.0498 58.4937C13.9011 58.3925 13.7523 58.29 13.6048 58.185C13.6048 58.185 13.6036 58.185 13.6036 58.1837C13.3798 58.0287 13.1598 57.8687 12.9411 57.705C12.9273 57.6962 12.9148 57.6875 12.9023 57.6775C11.2598 56.455 9.73859 55.0775 8.36109 53.5687C8.04359 53.2212 7.73359 52.8662 7.43359 52.505H11.7123C15.4486 52.505 17.0798 48.8337 19.7248 46.8725C21.7286 45.3862 24.3323 44.9787 26.8261 44.9225C28.5486 44.885 30.2811 44.9925 31.9998 44.94C32.7698 44.9175 33.5386 44.8625 34.3011 44.7487C38.0298 44.1937 41.3586 41.7 44.0273 38.9737C47.1273 35.8075 49.4361 32.53 52.1286 29.265C55.3898 25.31 59.5836 23.5637 63.3323 25.4712C63.7498 27.4812 63.9773 29.5575 63.9986 31.685C63.9998 31.7837 63.9998 31.8825 63.9998 31.9812V31.9812Z" fill="#B6E337"/>
<path d="M64.0008 31.9812V32C64.0008 36.7662 62.9583 41.2875 61.0895 45.3512C59.7008 48.3737 57.8545 51.1425 55.6395 53.5687C49.807 59.9562 41.422 63.9712 32.0995 64H32.0008C25.3483 64 19.1695 61.97 14.0508 58.4937C15.2595 58.025 16.3908 57.3425 17.4508 56.5412C19.4933 54.9987 20.6333 53.2 23.2558 52.4175C26.1895 51.5412 29.037 51.775 32.0008 51.8825C32.0358 51.8837 32.0695 51.885 32.1045 51.8862C35.0033 51.9887 37.932 51.23 40.4033 49.7087C45.412 46.6262 48.0795 40.955 51.6883 36.31C53.8045 33.585 56.667 30.9962 60.117 30.9212C61.302 30.895 62.7133 31.3037 64.0008 31.9812V31.9812Z" fill="#6CDC2D"/>
<path d="M50.0553 25.557C50.2236 25.827 50.1983 26.1747 49.9942 26.4186C49.8132 26.6349 49.6322 26.8511 49.4512 27.0674C49.245 27.3136 49.035 27.5636 48.7612 27.7311C48.4887 27.8999 48.1375 27.9736 47.8437 27.8436C47.5012 27.6924 47.3262 27.3161 47.055 27.0561C46.34 26.3674 45.4125 26.6524 44.715 27.2236C44.2137 27.6349 43.8175 28.1599 43.3325 28.5899C41.8287 29.9236 40.5437 29.1449 39.5475 27.7199C38.6375 26.4161 37.7275 25.1136 36.8162 23.8111C36.3275 23.1099 35.6 22.3186 34.78 22.5586C34.0087 22.7849 33.5887 23.8624 32.7875 23.8061C32.4775 23.7836 32.2175 23.5861 32 23.3549C31.95 23.3024 31.9025 23.2474 31.8575 23.1924C31.6125 22.8986 31.375 22.5724 31.0212 22.4261C29.9512 21.9849 28.33 24.7411 27.5125 25.2874C26.9587 25.6574 26.1437 25.8274 25.6525 25.0861C23.6 21.9924 20.63 14.1874 19.4375 14.1549C18.245 14.1224 17.59 15.4949 16.8475 16.2236C15.7012 17.3499 14.9187 15.9561 13.7987 15.7311C12.9962 15.5699 12.2575 16.2186 11.8125 16.9049C11.3675 17.5911 11.035 18.3949 10.3612 18.8599C10.3546 18.8644 10.3481 18.8689 10.3415 18.8732C9.35634 19.5319 8.19234 18.3136 8.86996 17.3415C9.90134 15.862 10.9426 14.3897 12.0025 12.931C13.4687 10.9147 15.2937 7.566 18.285 8.251C19.4587 8.51975 20.45 9.3335 21.1675 10.301C21.885 11.2672 22.3637 12.386 22.8362 13.4935C23.4912 15.0285 24.145 16.5635 24.8 18.0972C25.3337 19.3497 26.0575 20.7635 27.3912 21.0322C28.83 21.3235 30.105 20.1135 31.0037 18.9535C31.3025 18.5685 31.6375 18.201 32 17.8822C33.34 16.7035 35.035 16.2072 36.4725 18.0647C37.3175 19.1535 39.9862 24.216 41.36 24.0985C42.4162 24.0072 43.2362 23.1885 44.1312 22.6197C46.3712 21.1997 47.905 22.4735 49.0987 24.1072C49.4412 24.5772 49.7575 25.0785 50.0525 25.5522C50.0535 25.554 50.0543 25.5555 50.0553 25.557V25.557Z" fill="white"/>
<path fill-rule="evenodd" clip-rule="evenodd" d="M56.8175 35.1304L56.6738 35.2204C52.8173 37.6167 48.6917 39.3741 44.4413 40.4955C41.1949 41.3522 37.8757 41.8378 34.5483 41.9532C37.3034 38.1104 40.8321 31.3106 42.0951 22.5843C42.5779 22.3891 43.0201 22.07 43.4613 21.7517C43.6832 21.5916 43.9048 21.4317 44.1312 21.2879C46.3712 19.8679 47.905 21.1416 49.0988 22.7754C49.4413 23.2454 49.7575 23.7466 50.0525 24.2204L50.0554 24.2249L50.0603 24.2328C50.1527 24.3812 50.2451 24.5295 50.3363 24.6779C51.5813 26.6741 52.8213 28.6741 54.06 30.6741C54.98 32.1591 55.8988 33.6441 56.8175 35.1304ZM36.5324 16.8125C36.5116 16.784 36.4916 16.7574 36.4725 16.7329C35.035 14.8754 33.34 15.3716 32 16.5504V16.8125H36.5324Z" fill="#92EAFF"/>
<path d="M42.685 43.205V46.135H32V36.1625C32.1762 36.0987 32.3675 36.0075 32.5775 35.8825C33.1037 35.5675 33.67 35.1862 34.2738 35.29C35.0138 35.4162 35.4337 36.2025 35.6512 36.9212C35.8687 37.64 36.035 38.4462 36.6287 38.9075C37.42 39.5212 38.5525 39.2287 39.5488 39.33C41.3863 39.5175 42.8838 41.3687 42.685 43.205V43.205Z" fill="#00A23E"/>
<path d="M50.6263 45.3999C45.3338 50.4537 38.8587 53.7899 32 55.2674V38.5087C32.9488 38.9274 33.8763 39.4687 34.7975 40.1399C36.6288 41.4737 38.36 42.9662 40.3587 44.0337C42.8087 45.3424 45.2787 45.3499 47.96 45.3849C48.8487 45.3974 49.7375 45.3999 50.6263 45.3999Z" fill="#5DBF1D"/>
<path d="M55.3695 43.6897C48.3498 32.5407 44.625 19.6343 44.625 6.45946V5.5H41.375V6.45946C41.375 19.6343 37.6502 32.5407 30.6305 43.6897L27.5625 48.5625H34.875C34.875 46.4076 35.731 44.341 37.2548 42.8173C38.7785 41.2935 40.8451 40.4375 43 40.4375C45.1549 40.4375 47.2215 41.2935 48.7452 42.8173C50.269 44.341 51.125 46.4076 51.125 48.5625H58.4375L55.3695 43.6897ZM39.75 33.9375L42.1875 26.625H43.8125L46.25 33.9375H39.75Z" fill="#F6C869"/>
<path d="M38.9375 37.1875L36.5 43.6875H36.5111C37.2656 42.6786 38.2449 41.8596 39.3713 41.2954C40.4978 40.7312 41.7402 40.4375 43 40.4375C44.2598 40.4375 45.5022 40.7312 46.6287 41.2954C47.7551 41.8596 48.7344 42.6786 49.4889 43.6875H49.5L47.0625 37.1875H38.9375Z" fill="#F1B355"/>
<path d="M42.1875 0.625H43.8125V3.875H42.1875V0.625Z" fill="#F6C869"/>
<path d="M52.1606 38C51.6184 36.9282 51.0998 35.8461 50.6144 34.75H35.388C34.9026 35.8461 34.384 36.9282 33.8418 38H52.1606Z" fill="#F1B355"/>
<path d="M46.9205 24.1875H39.0799C38.7938 25.2783 38.4814 26.3617 38.1426 27.4375H41.9172L42.1877 26.625H43.8127L44.0836 27.4375H47.8582C47.5197 26.3619 47.2071 25.2786 46.9205 24.1875Z" fill="#F1B355"/>
<path d="M41.375 5.5H44.625V7.125H41.375V5.5Z" fill="#F1B355"/>
<path d="M37.3125 23.375H48.6875V26.625H37.3125V23.375Z" fill="#8C6847"/>
<path d="M32.4375 33.9375H53.5625V37.1875H32.4375V33.9375Z" fill="#8C6847"/>
<path d="M47.3672 38L47.0625 37.1875H38.9375L38.6328 38H47.3672Z" fill="#F09C57"/>
<path d="M40.5625 3.0625H45.4375V6.3125H40.5625V3.0625Z" fill="#8C6847"/>
<path d="M22.4606 41.4349H20.9961L21.0746 38.981L21.171 35.9666H22.2856L22.3821 38.981L22.4606 41.4349Z" fill="#EC771B"/>
<path d="M22.4581 41.4349H21.7539V35.9666H22.2831L22.3796 38.981L22.4581 41.4349Z" fill="#C55732"/>
<path d="M21.7546 38.5675V35.9666H21.1692L21.0859 38.5675H21.7546Z" fill="#C55732"/>
<path d="M22.3664 38.5675L22.2831 35.9666H21.7539V38.5675H22.3664Z" fill="#A44E3E"/>
<path d="M24.0296 36.9262C23.3998 37.5462 22.5777 37.8562 21.7553 37.8562C20.9332 37.8562 20.111 37.5462 19.481 36.9262C18.4763 35.9372 18.2753 34.4568 18.8781 33.2711C19.5086 32.0312 20.167 30.8057 20.7027 29.522L21.7553 27L22.8061 29.5168C23.3429 30.8023 24.0021 32.0298 24.6332 33.2718C25.2353 34.4574 25.0343 35.9374 24.0296 36.9262V36.9262Z" fill="#43AF3E"/>
<path d="M24.0288 36.9261C23.399 37.5461 22.5768 37.8561 21.7545 37.8561C21.3645 37.8561 20.9744 37.5461 20.6755 36.9261C20.1922 35.9238 20.1008 34.4163 20.4013 33.2227C20.8192 31.563 21.1895 29.8535 21.5325 28.1215L21.7545 27.0001L22.8053 29.5169C23.3421 30.8024 24.0013 32.03 24.6324 33.272C25.2345 34.4574 25.0335 35.9374 24.0288 36.9261V36.9261Z" fill="#00A23E"/>
<path d="M24.0282 36.9261C23.3984 37.5461 22.5762 37.8561 21.7539 37.8561V27.0001L22.8047 29.5169C23.3414 30.8024 24.0007 32.03 24.6318 33.272C25.2339 34.4574 25.0328 35.9374 24.0282 36.9261V36.9261Z" fill="#008839"/>
<path d="M36.2173 7.61529C36.2173 7.60792 36.2178 7.60067 36.2178 7.59342C36.2178 6.24904 35.1279 5.15917 33.7836 5.15917C33.4642 5.15917 33.1594 5.22129 32.8801 5.33317C32.3403 4.36617 31.3074 3.71179 30.1212 3.71179C28.5808 3.71179 27.2987 4.81492 27.0201 6.27417C26.9369 6.26229 26.8522 6.25579 26.7658 6.25579C25.9283 6.25579 25.2267 6.83554 25.0391 7.61554H36.2173V7.61529Z" fill="white"/>
<path d="M33.8436 7.61523C33.8436 7.61098 33.844 7.60686 33.844 7.60261C33.844 6.82948 33.2173 6.20286 32.4443 6.20286C32.2606 6.20286 32.0854 6.23861 31.9246 6.30286C31.6143 5.74673 31.0203 5.37048 30.3383 5.37048C29.4525 5.37048 28.7153 6.00486 28.555 6.84386C28.5073 6.83698 28.4585 6.83323 28.4089 6.83323C27.9273 6.83323 27.5238 7.16661 27.416 7.61511H33.8436V7.61523Z" fill="#DFF7FD"/>
<path d="M47.8754 16.3405C47.8754 16.3349 47.875 16.3294 47.875 16.3239C47.875 15.3027 48.7027 14.475 49.7239 14.475C49.9665 14.475 50.1979 14.5222 50.4101 14.6071C50.8201 13.8726 51.6046 13.3756 52.5055 13.3756C53.6755 13.3756 54.6492 14.2135 54.8609 15.3217C54.924 15.3127 54.9884 15.3077 55.054 15.3077C55.6901 15.3077 56.223 15.7481 56.3655 16.3405H47.8754Z" fill="white"/>
<path d="M49.678 16.3404C49.678 16.3371 49.6777 16.334 49.6777 16.3307C49.6777 15.7436 50.1537 15.2676 50.7409 15.2676C50.8804 15.2676 51.0135 15.2947 51.1355 15.3436C51.3712 14.9212 51.8224 14.6355 52.3404 14.6355C53.0131 14.6355 53.573 15.1172 53.6947 15.7546C53.731 15.7494 53.7681 15.7466 53.8057 15.7466C54.1715 15.7466 54.478 15.9999 54.5599 16.3405H49.678V16.3404Z" fill="#DFF7FD"/>
<path fill-rule="evenodd" clip-rule="evenodd" d="M48.3203 27.7813C53.0774 24.9552 57.0397 20.9312 59.791 16.125C61.4135 18.9588 62.6148 22.065 63.3098 25.3575L63.2485 25.4338C59.8341 29.648 55.7814 32.9707 51.3604 35.4016C50.0183 34.6461 48.7942 30.1175 48.3203 27.7813Z" fill="#63DBFA"/>
<path d="M58.6465 44.4811C58.6465 44.9616 58.257 45.3512 57.7764 45.3512C57.2959 45.3512 56.9062 44.9617 56.9062 44.4811C56.9062 44.0006 57.2957 43.611 57.7764 43.611C58.2569 43.6111 58.6465 44.0006 58.6465 44.4811Z" fill="#53AF17"/>
<path d="M66.002 30.7723V30.7934L44.9366 51.8587C40.6993 56.096 35.5437 59.0943 30 60.72V45.3517C30.8663 45.3263 31.7312 45.2645 32.589 45.1365C36.7841 44.5121 40.5292 41.7065 43.5317 38.6393C47.0194 35.077 49.6168 31.3896 52.6461 27.7163C56.3152 23.2667 61.0334 21.3021 65.251 23.4481C65.7207 25.7095 65.9766 28.0454 66.0005 30.439C66.002 30.5501 66.002 30.6612 66.002 30.7723V30.7723Z" fill="#6CDC2D"/>
<path d="M54.5625 33.2209H53.6523L53.7011 31.6959L53.761 29.8224H54.4538L54.5137 31.6959L54.5625 33.2209Z" fill="#EC771B"/>
<path d="M54.5626 33.2209H54.125V29.8224H54.454L54.5139 31.6959L54.5626 33.2209Z" fill="#C55732"/>
<path d="M54.1259 31.4223V29.8224H53.7621L53.7109 31.4223H54.1259Z" fill="#C55732"/>
<path d="M54.5051 31.4223L54.454 29.8224H54.125V31.4223H54.5051Z" fill="#A44E3E"/>
<path d="M55.5391 30.4186C55.1477 30.8039 54.6367 30.9966 54.1257 30.9966C53.6148 30.9966 53.1038 30.804 52.7123 30.4186C52.0879 29.8041 51.9631 28.884 52.3377 28.1471C52.7296 27.3766 53.1387 26.615 53.4717 25.8172L54.1258 24.25L54.7788 25.8141C55.1123 26.6131 55.5221 27.3759 55.9143 28.1478C56.2884 28.8845 56.1634 29.8042 55.5391 30.4186V30.4186Z" fill="#43AF3E"/>
<path d="M55.5395 30.4186C55.1481 30.8039 54.6371 30.9966 54.1261 30.9966C53.8837 30.9966 53.6412 30.804 53.4555 30.4186C53.1552 29.7957 53.0984 28.8587 53.2851 28.1171C53.5447 27.0856 53.775 26.0232 53.9881 24.9469L54.1261 24.25L54.7791 25.8141C55.1126 26.6131 55.5224 27.3759 55.9146 28.1478C56.2889 28.8845 56.1639 29.8042 55.5395 30.4186Z" fill="#00A23E"/>
<path d="M55.5384 30.4186C55.147 30.8039 54.636 30.9966 54.125 30.9966V24.25L54.778 25.8141C55.1115 26.6131 55.5212 27.3759 55.9135 28.1478C56.2877 28.8845 56.1627 29.8042 55.5384 30.4186Z" fill="#008839"/>
<path d="M64.002 31.9812V32C64.002 36.7662 62.9595 41.2875 61.0907 45.3512C59.702 48.3737 57.8557 51.1425 55.6407 53.5687C49.8082 59.9562 41.4232 63.9712 32.1007 64H32.002V51.8825C32.037 51.8837 32.0707 51.885 32.1057 51.8862C35.0045 51.9887 37.9332 51.23 40.4045 49.7087C45.4132 46.6262 48.0807 40.955 51.6895 36.31C53.8057 33.585 56.6682 30.9962 60.1182 30.9212C61.3032 30.895 62.7145 31.3037 64.002 31.9812V31.9812Z" fill="#5DBF1D"/>
<path d="M60.2532 42.6801H58.9922L59.0597 40.5669L59.1427 37.9712H60.1026L60.1857 40.5669L60.2532 42.6801Z" fill="#EC771B"/>
<path d="M60.2529 42.6801H59.6465V37.9712H60.1022L60.1854 40.5669L60.2529 42.6801Z" fill="#C55732"/>
<path d="M59.6459 40.1449V37.9712H59.1418L59.0723 40.1449H59.6459Z" fill="#C55732"/>
<path d="M60.1719 40.1449L60.1022 37.9712H59.6465V40.1449H60.1719Z" fill="#A44E3E"/>
<path d="M61.605 38.7974C61.0626 39.3312 60.3546 39.5982 59.6466 39.5982C58.9387 39.5982 58.2306 39.3314 57.6881 38.7974C56.8111 37.9342 56.6452 36.6361 57.1906 35.6084C57.949 34.1791 58.6211 32.7071 59.2436 31.2156L59.6466 30.25L60.0497 31.2156C60.6721 32.7071 61.3443 34.1791 62.1027 35.6084C62.648 36.6361 62.4821 37.9342 61.605 38.7974Z" fill="#43AF3E"/>
<path d="M61.6045 38.7974C61.0622 39.3312 60.3542 39.5982 59.6462 39.5982C59.3103 39.5982 58.9744 39.3314 58.7169 38.7974C58.3008 37.9342 58.222 36.6361 58.4809 35.6084C58.8408 34.1791 59.1595 32.7071 59.455 31.2156L59.6462 30.25L60.0493 31.2156C60.6717 32.7071 61.3439 34.1791 62.1023 35.6084C62.6475 36.6361 62.4817 37.9342 61.6045 38.7974Z" fill="#00A23E"/>
<path d="M61.6049 38.7974C61.0625 39.3312 60.3545 39.5982 59.6465 39.5982V30.25L60.0496 31.2156C60.672 32.7071 61.3442 34.1791 62.1026 35.6084C62.6479 36.6361 62.482 37.9342 61.6049 38.7974Z" fill="#008839"/>
<path d="M40.4878 55.5126C40.3669 55.9777 39.8919 56.2567 39.4268 56.1357C38.9616 56.0148 38.6826 55.5398 38.8036 55.0747C38.9245 54.6097 39.3995 54.3306 39.8646 54.4516C40.3296 54.5724 40.6086 55.0476 40.4878 55.5126Z" fill="#53AF17"/>
<path d="M44.876 57.9809C45.3565 57.9809 45.7461 57.5913 45.7461 57.1107C45.7461 56.6302 45.3565 56.2406 44.876 56.2406C44.3954 56.2406 44.0059 56.6302 44.0059 57.1107C44.0059 57.5913 44.3954 57.9809 44.876 57.9809Z" fill="#53AF17"/>
<path d="M55.5791 38.7374C56.0597 38.7374 56.4492 38.3479 56.4492 37.8673C56.4492 37.3868 56.0597 36.9972 55.5791 36.9972C55.0986 36.9972 54.709 37.3868 54.709 37.8673C54.709 38.3479 55.0986 38.7374 55.5791 38.7374Z" fill="#53AF17"/>
<path d="M50.6865 55.2938C51.1671 55.2938 51.5567 54.9043 51.5567 54.4237C51.5567 53.9432 51.1671 53.5536 50.6865 53.5536C50.206 53.5536 49.8164 53.9432 49.8164 54.4237C49.8164 54.9043 50.206 55.2938 50.6865 55.2938Z" fill="#53AF17"/>
<path d="M34.6521 62.4749C35.3456 62.4749 35.9077 61.9127 35.9077 61.2192C35.9077 60.5258 35.3456 59.9636 34.6521 59.9636C33.9586 59.9636 33.3965 60.5258 33.3965 61.2192C33.3965 61.9127 33.9586 62.4749 34.6521 62.4749Z" fill="#53AF17"/>
<path d="M56.5577 45.0185C56.6694 44.3341 56.205 43.6887 55.5206 43.5771C54.8361 43.4654 54.1908 43.9298 54.0791 44.6142C53.9675 45.2987 54.4318 45.944 55.1163 46.0557C55.8007 46.1673 56.4461 45.703 56.5577 45.0185Z" fill="#53AF17"/>
<path d="M49.8155 47.9103C49.9272 47.2258 49.4628 46.5804 48.7784 46.4688C48.0939 46.3571 47.4486 46.8215 47.3369 47.5059C47.2253 48.1904 47.6896 48.8357 48.3741 48.9474C49.0585 49.059 49.7039 48.5947 49.8155 47.9103Z" fill="#53AF17"/>
<path d="M21.0899 58.851C21.0899 59.3315 20.7004 59.7211 20.2197 59.7211C19.7392 59.7211 19.3496 59.3316 19.3496 58.851C19.3496 58.3705 19.7391 57.9808 20.2197 57.9808C20.7004 57.9808 21.0899 58.3705 21.0899 58.851Z" fill="#53AF17"/>
<path d="M25.031 57.1898C25.7245 57.1898 26.2866 56.6277 26.2866 55.9342C26.2866 55.2408 25.7245 54.6786 25.031 54.6786C24.3376 54.6786 23.7754 55.2408 23.7754 55.9342C23.7754 56.6277 24.3376 57.1898 25.031 57.1898Z" fill="#53AF17"/>
<path d="M29.1181 61.2192C29.1181 61.6293 28.7856 61.9618 28.3754 61.9618C27.9653 61.9618 27.6328 61.6293 27.6328 61.2192C27.6328 60.8091 27.9653 60.4766 28.3754 60.4766C28.7856 60.4766 29.1181 60.8089 29.1181 61.2192Z" fill="#53AF17"/>
<path d="M30.8349 54.6785C30.8349 55.0887 30.5024 55.4212 30.0922 55.4212C29.6821 55.4212 29.3496 55.0887 29.3496 54.6785C29.3496 54.2684 29.6821 53.9359 30.0922 53.9359C30.5024 53.9359 30.8349 54.2684 30.8349 54.6785Z" fill="#53AF17"/>
<path d="M61.875 72.5C61.875 85.3406 37.4186 95.75 7.25 95.75C-22.9186 95.75 -47.375 85.3406 -47.375 72.5C-47.375 59.6594 -22.9186 49.25 7.25 49.25C37.4186 49.25 61.875 59.6594 61.875 72.5Z" fill="#FCD9AF"/>
<path d="M61.875 66.625C61.875 79.4656 37.4186 89.875 7.25 89.875C-22.9186 89.875 -47.375 79.4656 -47.375 66.625C-47.375 53.7844 -22.9186 43.375 7.25 43.375C37.4186 43.375 61.875 53.7844 61.875 66.625Z" fill="#FCD9AF"/>
<path d="M61.875 71.125C61.875 83.9656 37.4186 94.375 7.25 94.375C-22.9186 94.375 -47.375 83.9656 -47.375 71.125C-47.375 58.2844 -22.9186 47.875 7.25 47.875C37.4186 47.875 61.875 58.2844 61.875 71.125Z" fill="#FFE4C5"/>
<g clip-path="url(#clip1)">
<path d="M14.7618 32.0827C14.8884 32.1224 15.0257 32.1102 15.1433 32.0487C15.261 31.9873 15.3494 31.8816 15.3891 31.7549L15.8385 30.3221C15.8782 30.1954 15.866 30.0582 15.8045 29.9405C15.743 29.8228 15.6373 29.7344 15.5107 29.6947C15.384 29.655 15.2468 29.6672 15.1291 29.7287C15.0114 29.7902 14.923 29.8958 14.8833 30.0225L14.4339 31.4553C14.3942 31.582 14.4064 31.7193 14.4679 31.8369C14.5294 31.9546 14.6351 32.043 14.7618 32.0827Z" fill="#6E6F83"/>
<path d="M9.5194 48.7984C9.64606 48.8381 9.78333 48.8259 9.90098 48.7644C10.0186 48.7029 10.1071 48.5972 10.1468 48.4706L13.442 37.9633C13.4817 37.8367 13.4695 37.6994 13.408 37.5817C13.3466 37.4641 13.2409 37.3757 13.1142 37.3359C12.9875 37.2962 12.8503 37.3084 12.7326 37.3699C12.615 37.4314 12.5265 37.5371 12.4868 37.6638L9.19158 48.171C9.15185 48.2977 9.16407 48.4349 9.22555 48.5526C9.28703 48.6702 9.39273 48.7587 9.5194 48.7984Z" fill="#6E6F83"/>
<path d="M19.653 39.9105C20.2092 38.1372 20.0381 36.2155 19.1774 34.5683C18.3167 32.9211 16.8369 31.6833 15.0636 31.1272C13.2902 30.571 11.3686 30.7421 9.72137 31.6028C8.07416 32.4635 6.83633 33.9433 6.28018 35.7166L19.653 39.9105Z" fill="#EF5350"/>
<path d="M6.27743 35.7166L19.6503 39.9106C19.9758 38.8802 20.056 37.7881 19.8846 36.7212C18.4213 37.0467 16.8973 36.9711 15.4734 36.5023C12.5218 35.5767 10.5037 33.3805 10.4677 31.2709C9.4773 31.6448 8.58518 32.2395 7.85911 33.0098C7.13303 33.7802 6.59211 34.7059 6.27743 35.7166V35.7166Z" fill="#EF5350"/>
<path d="M15.8308 38.7124C16.9889 35.0196 16.6449 31.6237 15.0621 31.1273C13.4793 30.6309 11.2577 33.2222 10.0995 36.915L15.8308 38.7124Z" fill="white"/>
<path d="M10.0992 36.9147L15.8304 38.7121C16.0358 38.0609 16.1985 37.397 16.3174 36.7246C16.0376 36.6631 15.7561 36.5905 15.4743 36.5022C13.8918 36.0404 12.4881 35.106 11.4514 33.8241C10.8841 34.7993 10.4304 35.8363 10.0992 36.9147V36.9147Z" fill="white"/>
<path d="M14.3933 44.6982L15.404 44.4426L14.878 42.3587C14.8496 42.246 14.7842 42.1461 14.6925 42.0748C14.6007 42.0035 14.4877 41.9649 14.3715 41.9652L8.71197 41.978L8.71432 43.0205L13.9667 43.0087L14.3933 44.6982Z" fill="#8C6847"/>
<path d="M7.59102 40.4166L10.2057 44.0597L18.0249 44.0421L20.6442 49.7703L18.0378 49.7761L16.4657 46.1307L10.2104 46.1448L10.2174 49.2725L8.13229 49.2772L8.12288 45.107L6.02953 41.4627L7.59102 40.4166Z" fill="#F6C869"/>
<path d="M6.02865 41.4626L8.122 45.1069L8.13141 49.2771L10.2165 49.2724L10.2095 46.1447L16.4649 46.1306L18.0369 49.7761L20.6433 49.7702L19.6794 47.6664C19.3193 47.6192 18.9786 47.4755 18.6936 47.2503C18.4086 47.0252 18.1898 46.7271 18.0606 46.3877C17.9159 46.0061 17.6587 45.6775 17.323 45.4455C16.9873 45.2135 16.5891 45.0891 16.181 45.0887L10.4052 45.1017C10.0325 45.1032 9.66679 45.0004 9.34945 44.8049C9.03211 44.6094 8.7758 44.329 8.6095 43.9954L7.00719 40.8088L6.02865 41.4626Z" fill="#F09C57"/>
<path d="M28.4281 56.4933L24.0325 55.7083L24.0151 49.9487C24.0071 47.2339 25.0298 44.6173 26.8766 42.6274L28.1119 41.2961C28.2136 41.1866 28.3412 41.1044 28.483 41.0569C28.6247 41.0095 28.7761 40.9984 28.9233 41.0247C29.0704 41.051 29.2086 41.1138 29.3252 41.2074C29.4418 41.3009 29.533 41.4223 29.5905 41.5602L30.289 43.2375C31.3322 45.7435 31.3854 48.5521 30.4379 51.0959L28.4281 56.4933Z" fill="#EF5350"/>
<path d="M30.437 51.0995L28.4246 56.4929L24.033 55.7061L24.0246 53.4647C24.9409 53.3039 25.7991 52.9062 26.514 52.3109C27.2289 51.7157 27.7756 50.9437 28.0997 50.0717L28.5489 48.8628C29.4871 46.3442 29.4456 43.5653 28.4326 41.0759C28.6502 40.9889 28.8934 40.991 29.1095 41.0817C29.3256 41.1724 29.4975 41.3444 29.5879 41.5607L30.2895 43.2366C31.3326 45.7443 31.3853 48.5544 30.437 51.0995Z" fill="#EF5350"/>
<path d="M29.7664 52.9046L29.0441 54.8389L26.7787 53.0238L24.025 53.9422L24.0171 51.8772L27.1712 50.8262L29.7664 52.9046Z" fill="#BD211E"/>
<path d="M29.769 52.9061L29.0458 54.8377L26.7818 53.0243L24.0249 53.9423L24.026 53.4691C24.7425 53.3415 25.4255 53.0689 26.0329 52.668C26.6404 52.267 27.1595 51.7462 27.5584 51.1375L29.769 52.9061Z" fill="#BD211E"/>
<path d="M29.3423 41.2207L26.7648 55.6407L25.8675 55.5762L28.4631 41.0624C28.6108 41.0107 28.7694 40.9981 28.9235 41.0258C29.0776 41.0535 29.2218 41.1207 29.3423 41.2207V41.2207Z" fill="white"/>
<path d="M27.5775 51.1062L26.7681 55.6407L25.8708 55.5761L26.445 52.3717C26.8882 52.0136 27.2706 51.5863 27.5775 51.1062V51.1062Z" fill="white"/>
</g>
<path d="M72.7859 52.2661L72.7735 52.2875C69.6307 57.731 65.4588 62.2074 60.6448 65.6163C57.0657 68.1526 53.1314 70.0974 49.0018 71.4079C38.1286 74.8572 25.9046 73.9137 15.2383 67.7993L15.1255 67.7342C7.52769 63.3476 1.80949 56.9549 -1.74444 49.6094C-0.0548336 49.871 1.68721 49.8375 3.42618 49.6213C6.77605 49.2065 9.26413 47.9038 12.7753 48.7394C16.7037 49.6731 19.8017 51.8177 23.1158 53.8947C23.1549 53.9193 23.1926 53.9429 23.2318 53.9674C26.4749 55.9959 30.3201 57.0606 34.1457 56.9527C41.8988 56.7349 48.6849 52.0166 55.8694 49.0912C60.0832 47.3744 65.0595 46.3053 69.0492 48.4945C70.4199 49.2459 71.7622 50.6433 72.7859 52.2661V52.2661Z" fill="#63DBFA"/>
<path d="M53.8934 53.144L53.884 53.1603C51.5009 57.288 48.3374 60.6822 44.6872 63.2672C41.9732 65.1903 38.99 66.665 35.8586 67.6587C27.6137 70.2742 18.3446 69.5588 10.2567 64.9224L10.1712 64.8731C4.40997 61.5468 0.0740111 56.6994 -2.62083 51.1295C-1.33965 51.3279 -0.0187049 51.3025 1.29991 51.1386C3.84001 50.824 5.72666 49.8362 8.38906 50.4698C11.3679 51.1779 13.717 52.804 16.23 54.379C16.2596 54.3976 16.2882 54.4155 16.3179 54.4341C18.7771 55.9723 21.6928 56.7796 24.5936 56.6977C30.4726 56.5326 35.6183 52.9549 41.0661 50.7366C44.2613 49.4348 48.0347 48.6241 51.06 50.2842C52.0993 50.8539 53.1171 51.9135 53.8934 53.144V53.144Z" fill="#92EAFF"/>
<path d="M9.89721 61.5443L9.90921 61.5587C12.9593 65.2212 16.6536 68.0284 20.6901 69.9553C23.6915 71.3892 26.882 72.3353 30.1367 72.7823C38.7061 73.9583 47.7188 71.6778 54.9009 65.7342L54.9768 65.671C60.0888 61.4139 63.5378 55.9001 65.2467 49.9532C64.0179 50.3665 62.7118 50.5659 61.3845 50.6285C58.8279 50.7503 56.8008 50.0976 54.2849 51.1745C51.4697 52.3785 49.4312 54.3803 47.2225 56.3595C47.1964 56.3829 47.1713 56.4054 47.1452 56.4288C44.9833 58.3625 42.2472 59.6537 39.3747 60.0661C33.5532 60.9026 27.8742 58.2516 22.1287 56.9915C18.7587 56.2518 14.9024 56.0943 12.2033 58.2444C11.2759 58.9825 10.453 60.1997 9.89721 61.5443V61.5443Z" fill="#CBFFFF"/>
</g>
<defs>
<clipPath id="clip0">
<rect width="64" height="64" rx="32" fill="white"/>
</clipPath>
<clipPath id="clip1">
<rect width="26.375" height="26.375" fill="white" transform="matrix(-0.999997 0.00225557 0.00225557 0.999997 31.625 29.875)"/>
</clipPath>
</defs>
</svg>
