<svg width="70" height="70" viewBox="0 0 70 70" fill="none" xmlns="http://www.w3.org/2000/svg">
<circle cx="35" cy="35" r="35" fill="#349EFF"/>
<path opacity="0.1" d="M54.2597 35C62.9528 35 70.2989 27.6136 66.5198 19.7849V19.7849C64.2293 15.0398 60.897 10.873 56.7714 7.59551C52.6458 4.31797 47.8335 2.01419 42.6934 0.856006C37.5532 -0.302177 32.2179 -0.284875 27.0854 0.906622C21.9528 2.09812 17.1555 4.43306 13.0513 7.73729C8.9471 11.0415 5.64187 15.2298 3.38215 19.9896C1.12244 24.7495 -0.033438 29.9581 0.00073617 35.227V35.227C0.0571185 43.9199 9.90595 47.3146 17.71 43.4849L31.6655 36.6364C33.8593 35.5598 36.2706 35 38.7143 35H54.2597Z" fill="white"/>
<g clip-path="url(#clip0)">
<path d="M28.6092 28.1027V24.9473C28.6092 24.676 28.6911 24.411 28.8442 24.187L33.323 17.6324C34.4449 15.9905 34.0234 13.7502 32.3815 12.6282C30.7398 11.5063 28.4993 11.9278 27.3774 13.5697L22.3739 20.8921C21.7448 21.8128 21.4082 22.9021 21.4082 24.0173V34.1294V42.6587L29.2314 37.3447L28.6092 28.1027Z" fill="#FFE1CF"/>
<path d="M37.8068 38.5772L39.8654 28.0741L31.807 34.8262L31.8129 34.8635C32.662 34.7317 33.5554 34.9603 34.2506 35.5516L37.8068 38.5772ZM42.52 22.5164L42.6087 22.4791C43.0146 22.1782 43.4601 21.9262 43.9348 21.7314C44.4095 21.5367 44.9134 21.4002 45.4383 21.3279C47.273 21.076 48.8685 22.5887 48.7157 24.4339L47.8736 34.6127C47.8375 35.0594 47.9203 35.5061 48.1151 35.9097L49.6733 39.1312C51.7436 43.4129 51.8136 48.3909 49.8658 52.7298L45.0884 63.3681V68.7196C45.0884 69.4282 44.513 70.002 43.8044 70.0002L24.7401 69.9498C24.0342 69.9479 23.4629 69.3751 23.4629 68.6692V64.2837L19.6641 59.5086C18.0498 57.4803 17.0794 55.017 16.8765 52.4335L16.0775 42.2827C15.9061 40.1098 16.7983 37.987 18.4709 36.5874L36.8947 21.1681C37.5689 20.6024 38.39 20.3271 39.2064 20.3271C40.234 20.3271 41.2557 20.7645 41.9672 21.6148C42.2005 21.8936 42.3847 22.198 42.52 22.5164V22.5164Z" fill="#FFE1CF"/>
<path d="M44.6207 21.4968C44.3868 21.5618 44.1573 21.6404 43.9353 21.7315C43.4606 21.9263 43.0151 22.1782 42.6092 22.4791L42.5206 22.5164C42.3853 22.198 42.201 21.8936 41.9677 21.6148C41.7883 21.4005 41.5892 21.2126 41.3753 21.0511L39.7637 28.1599L39.866 28.0741L39.1523 31.7155L43.02 28.4748C45.0976 26.7327 45.6787 23.8568 44.6207 21.4968V21.4968Z" fill="#F0C3B6"/>
<path d="M24.6632 34.4244L28.844 31.6181L28.6074 28.1027V25.8216L25.9168 28.0734C25.3433 28.5533 24.4703 28.1456 24.4703 27.3977V24.7619C24.4703 23.6466 24.8069 22.5574 25.436 21.6366L30.4395 14.3142C30.9794 13.5241 31.7784 13.0176 32.6451 12.8287C32.5603 12.7586 32.4722 12.6914 32.3796 12.6281C30.7378 11.5062 28.4974 11.9277 27.3754 13.5696L22.372 20.892C21.7429 21.8128 21.4062 22.902 21.4062 24.0173V34.1294V34.4243H24.6632V34.4244Z" fill="#FFD1C2"/>
<path d="M41.9648 21.6148C43.2419 23.1392 43.0413 25.4101 41.518 26.6873L31.8046 34.8262L31.8104 34.8635C31.2588 34.9475 30.7257 35.1854 30.279 35.575L25.5914 39.6549L16.4238 39.5557C16.8181 38.415 17.5167 37.384 18.4685 36.5874L36.8923 21.1681C37.5664 20.6024 38.3875 20.3271 39.204 20.3271C40.2316 20.3271 41.2533 20.7645 41.9648 21.6148V21.6148Z" fill="#FFE1CF"/>
<path d="M29.7121 69.9497C29.0063 69.9478 28.435 69.375 28.435 68.6691V66.2621C28.435 64.9811 28.0007 63.7378 27.2032 62.7353L24.6361 59.5085C23.0219 57.4802 22.0515 55.0169 21.8485 52.4334L21.0496 42.2826C20.8781 40.1096 21.7704 37.9869 23.443 36.5872L41.6884 21.3173C41.0019 20.6627 40.1065 20.3271 39.2064 20.3271C38.39 20.3271 37.5689 20.6024 36.8947 21.1681L18.4709 36.5874C16.7983 37.987 15.9061 40.1098 16.0775 42.2827L16.8765 52.4335C17.0794 55.017 18.0498 57.4804 19.6641 59.5086L23.4629 64.2837V68.6692C23.4629 69.3751 24.0342 69.9479 24.7401 69.9498H29.7121V69.9497Z" fill="#F0C3B6"/>
<path d="M43.0833 47.7912C43.9057 46.8242 44.3586 45.5936 44.3586 44.3262C44.3586 42.753 43.6717 41.2671 42.4747 40.2503L38.1932 36.6083L37.8072 38.5773L34.251 35.5518C33.762 35.1359 33.1749 34.9001 32.5742 34.8423V49.8116C32.5742 52.2837 33.6593 54.6313 35.5424 56.2331C36.5086 57.0549 37.7389 57.5076 39.0063 57.5076C40.5796 57.5076 42.0658 56.8206 43.0835 55.6233C43.9057 54.6562 44.3586 53.426 44.3586 52.1596C44.3586 50.6659 43.7381 49.2511 42.6498 48.2399C42.8017 48.0985 42.9479 47.9505 43.0833 47.7912V47.7912Z" fill="#F0C3B6"/>
<path d="M42.6145 44.3262C42.6145 45.1508 42.3322 45.9801 41.756 46.6578C41.1787 47.3366 40.4042 47.7483 39.5878 47.8801L39.5691 47.9023L34.2563 43.3838C33.1098 42.4087 31.4221 42.418 30.2872 43.4071L25.5996 47.487V39.6549L30.2872 35.575C30.7339 35.1854 31.2669 34.9475 31.8186 34.8635C32.6677 34.7317 33.5612 34.9603 34.2563 35.5517L37.8126 38.5772L41.3466 41.5829C42.1841 42.2944 42.6145 43.3068 42.6145 44.3262V44.3262Z" fill="#FFE1CF"/>
<path d="M41.7244 46.6873C41.5201 46.3191 41.2486 45.9802 40.9087 45.6916L37.3746 42.6859L33.8184 39.6603C33.1233 39.069 32.2298 38.8404 31.3807 38.9722C30.829 39.0561 30.296 39.2941 29.8493 39.6836L26.4405 42.6505C25.9037 43.1176 25.5957 43.7944 25.5957 44.5058V47.4868L30.2833 43.4069C31.4182 42.4178 33.1059 42.4085 34.2524 43.3836L39.5652 47.902L39.5838 47.8799C40.3877 47.7502 41.15 47.3477 41.7244 46.6873Z" fill="#F0C3B6"/>
<path d="M42.6106 52.1592C42.6106 52.9838 42.3283 53.8119 41.7521 54.4896C40.4644 56.0047 38.1912 56.1878 36.6773 54.9001L32.2883 51.1666L30.9854 52.4694L25.5957 47.4868L30.2833 43.4068C31.4182 42.4178 33.1059 42.4084 34.2524 43.3835L41.3427 49.4148C42.1802 50.1274 42.6106 51.1398 42.6106 52.1592Z" fill="#FFE1CF"/>
<path d="M46.7687 17.4988C46.6246 17.4988 46.4787 17.4632 46.3438 17.3882C45.9218 17.1531 45.7702 16.6204 46.0052 16.1983L47.8027 12.9707C48.0378 12.5487 48.5705 12.3971 48.9926 12.6321C49.4146 12.8673 49.5662 13.4 49.3312 13.8221L47.5337 17.0496C47.3738 17.3368 47.0758 17.4988 46.7687 17.4988Z" fill="white"/>
<path d="M49.9246 20.3795C49.6317 20.3795 49.3456 20.2324 49.1801 19.9652C48.9256 19.5545 49.0524 19.0152 49.4632 18.7609L52.6039 16.8158C53.0149 16.5614 53.5539 16.6882 53.8082 17.0988C54.0627 17.5095 53.9359 18.0488 53.5251 18.3031L50.3844 20.2482C50.2409 20.3371 50.0818 20.3795 49.9246 20.3795V20.3795Z" fill="white"/>
</g>
<defs>
<clipPath id="clip0">
<rect width="58" height="58" fill="white" transform="translate(6 12)"/>
</clipPath>
</defs>
</svg>
