<svg width="70" height="70" viewBox="0 0 70 70" fill="none" xmlns="http://www.w3.org/2000/svg">
<circle cx="35" cy="35" r="35" fill="#FF5050"/>
<path opacity="0.1" d="M54.2597 35C62.9528 35 70.2989 27.6136 66.5198 19.7849V19.7849C64.2293 15.0398 60.897 10.873 56.7714 7.59551C52.6458 4.31797 47.8335 2.01419 42.6934 0.856006C37.5532 -0.302177 32.2179 -0.284875 27.0854 0.906622C21.9528 2.09812 17.1555 4.43306 13.0513 7.73729C8.9471 11.0415 5.64187 15.2298 3.38215 19.9896C1.12244 24.7495 -0.033438 29.9581 0.00073617 35.227V35.227C0.0571185 43.9199 9.90595 47.3146 17.71 43.4849L31.6655 36.6364C33.8593 35.5598 36.2706 35 38.7143 35H54.2597Z" fill="white"/>
<path d="M24.852 32.9238C23.5531 32.9238 22.0028 33.2612 20.662 33.9782L21.0391 27.3565H32.4776V22H16.0112L15.0894 38.1537L19.9078 39.6299C20.5782 38.9973 21.8771 38.0694 24.014 38.0694C26.6117 38.0694 28.7486 40.1782 28.7486 42.7932C28.7486 45.4082 26.6117 47.517 24.014 47.517C22.0447 47.517 20.0335 46.1673 19.4888 44.0163L14 45.4925C15.257 49.9633 19.2374 53 23.8045 53C29.5028 53 34.4888 48.5293 34.4888 42.7932C34.4888 37.0571 30.5503 32.9238 24.852 32.9238Z" fill="#EC3D3D"/>
<path d="M49.352 32.9238C48.0531 32.9238 46.5028 33.2612 45.162 33.9782L45.5391 27.3565H56.9776V22H40.5112L39.5894 38.1537L44.4078 39.6299C45.0782 38.9973 46.3771 38.0694 48.514 38.0694C51.1117 38.0694 53.2486 40.1782 53.2486 42.7932C53.2486 45.4082 51.1117 47.517 48.514 47.517C46.5447 47.517 44.5335 46.1673 43.9888 44.0163L38.5 45.4925C39.757 49.9633 43.7374 53 48.3045 53C54.0028 53 58.9888 48.5293 58.9888 42.7932C58.9888 37.0571 55.0503 32.9238 49.352 32.9238Z" fill="#EC3D3D"/>
<path d="M22.852 30.9238C21.5531 30.9238 20.0028 31.2612 18.662 31.9782L19.0391 25.3565H30.4776V20H14.0112L13.0894 36.1537L17.9078 37.6299C18.5782 36.9973 19.8771 36.0694 22.014 36.0694C24.6117 36.0694 26.7486 38.1782 26.7486 40.7932C26.7486 43.4082 24.6117 45.517 22.014 45.517C20.0447 45.517 18.0335 44.1673 17.4888 42.0163L12 43.4925C13.257 47.9633 17.2374 51 21.8045 51C27.5028 51 32.4888 46.5293 32.4888 40.7932C32.4888 35.0571 28.5503 30.9238 22.852 30.9238Z" fill="white"/>
<path d="M47.3631 30.9238C46.0643 30.9238 44.514 31.2612 43.1732 31.9782L43.5503 25.3565H54.9888V20H38.5224L37.6006 36.1537L42.419 37.6299C43.0894 36.9973 44.3883 36.0694 46.5251 36.0694C49.1229 36.0694 51.2598 38.1782 51.2598 40.7932C51.2598 43.4082 49.1229 45.517 46.5251 45.517C44.5559 45.517 42.5447 44.1673 42 42.0163L36.5112 43.4925C37.7682 47.9633 41.7486 51 46.3156 51C52.014 51 57 46.5293 57 40.7932C57 35.0571 53.0615 30.9238 47.3631 30.9238Z" fill="white"/>
</svg>
