<svg width="56" height="48" fill="none" xmlns="http://www.w3.org/2000/svg"><path d="M55.644 3.52A2.862 2.862 0 0052.782.658c-.146 0-.286.022-.427.043V.64H3.2v.018A2.862 2.862 0 00.338 3.52V44.8H.37a2.853 2.853 0 002.83 2.542v.018h49.155v-.06c.14.02.28.042.427.042a2.852 2.852 0 002.83-2.542h.05V3.52h-.018zM49.29 40.988h-6.951a1.197 1.197 0 00-.107-.283l.012-.007-14.54-25.184-.006.004a1.967 1.967 0 00-2.84-.797 1.97 1.97 0 00-.725.848l-9.677 16.76-2.369-4.104-.003.002a1.036 1.036 0 00-1.88.026L6.71 34.305V7.03h42.58v33.957z" fill="#fff"/><path d="M39.598 23.158a6.464 6.464 0 100-12.928 6.464 6.464 0 000 12.928z" fill="#fff"/></svg>