<svg width="40" height="41" fill="none" xmlns="http://www.w3.org/2000/svg"><g clip-path="url(#clip0)"><path d="M20 40.134c11.046 0 20-8.954 20-20s-8.954-20-20-20-20 8.954-20 20 8.954 20 20 20z" fill="#B5F1F4"/><path d="M39.984 20.904l-8.406-8.406-6.01 11-9.932-9.93-4.615 4.142-5.098 3.943 18.08 18.08c8.884-1.805 15.628-9.499 15.98-18.829z" fill="#84DBFF"/><path d="M29.768 25.351v-1.689h-3.046v1.69c0 .134-.11.243-.244.243h-2.1v5.829h7.733v-5.829h-2.099a.244.244 0 01-.244-.244z" fill="#FED8B2"/><path d="M32.111 25.595h-2.099a.244.244 0 01-.244-.244v-1.689h-1.593v7.762h3.936v-5.829z" fill="#EABE96"/><path d="M23.183 21.34a1.217 1.217 0 100-2.434 1.217 1.217 0 000 2.435z" fill="#FED8B2"/><path d="M33.048 21.34a1.217 1.217 0 100-2.434 1.217 1.217 0 000 2.435z" fill="#EABE96"/><path d="M28.253 25.193h-.275a4.594 4.594 0 01-4.594-4.594v-4.195a4.594 4.594 0 014.594-4.594h.274a4.594 4.594 0 014.595 4.594V20.6a4.594 4.594 0 01-4.595 4.594z" fill="#F4E3C3"/><path d="M28.253 11.81h-.078v13.383h.078a4.594 4.594 0 004.593-4.594v-4.195a4.594 4.594 0 00-4.593-4.594z" fill="#FED8B2"/><path d="M32.348 13.362a4.98 4.98 0 00-4.084-2.126h-.298a4.988 4.988 0 00-4.988 4.988v3.899h.733v-2.06c2.221-.226 4.406-.662 6.322-1.62a11.41 11.41 0 002.363 2.072v1.608h.856v-3.899a4.964 4.964 0 00-.904-2.862z" fill="#F9B54C"/><path d="M32.348 13.362a4.98 4.98 0 00-4.084-2.126h-.089v5.959a13.19 13.19 0 001.857-.751c.69.791 1.485 1.498 2.364 2.071v1.608h.856v-3.899a4.964 4.964 0 00-.904-2.862z" fill="#F4A200"/><path d="M25.884 20.056a.473.473 0 100-.946.473.473 0 000 .946z" fill="#59595B"/><path d="M30.346 20.056a.473.473 0 100-.946.473.473 0 000 .946z" fill="#272525"/><path d="M35.977 32.165v-3.036a3.534 3.534 0 00-3.534-3.534h-1.62c0 1.424-2.578 2.806-2.578 2.806s-2.577-1.382-2.577-2.806h-1.62a3.534 3.534 0 00-3.535 3.534v10.999c6.32-.16 11.91-3.25 15.464-7.963z" fill="#324A5E"/><path d="M32.443 25.595h-1.62c0 1.424-2.578 2.806-2.578 2.806l-.04-.023v10a20.078 20.078 0 007.772-6.213v-3.036a3.534 3.534 0 00-3.534-3.534z" fill="#2B3B4E"/><path d="M6.608 20.481v6.93l5.162-.339v-6.929l-5.162.338z" fill="#935635"/><path d="M16.933 19.805l-5.163.338v6.93l5.163-.339v-6.93z" fill="#804000"/><path d="M13.308 26.083v-1.695h-3.056v1.695c0 .135-.11.245-.245.245H7.901v5.847h7.758v-5.847h-2.106a.245.245 0 01-.245-.245z" fill="#FED8B2"/><path d="M15.659 26.328h-2.106a.245.245 0 01-.245-.245v-1.695H11.77v7.787h3.889v-5.847z" fill="#EABE96"/><path d="M6.83 22.06a1.222 1.222 0 100-2.443 1.222 1.222 0 000 2.443z" fill="#FED8B2"/><path d="M16.73 22.06a1.222 1.222 0 100-2.443 1.222 1.222 0 000 2.443z" fill="#EABE96"/><path d="M11.918 25.924h-.275a4.609 4.609 0 01-4.61-4.61v-4.207a4.609 4.609 0 014.61-4.61h.275a4.609 4.609 0 014.609 4.61v4.208a4.609 4.609 0 01-4.61 4.609z" fill="#F4E3C3"/><path d="M11.918 12.498h-.148v13.426h.148a4.609 4.609 0 004.609-4.61v-4.207a4.609 4.609 0 00-4.61-4.61z" fill="#FED8B2"/><path d="M16.027 14.055a4.996 4.996 0 00-4.097-2.133h-.3c-2.763 0-5.022 2.24-5.022 5.004v7.044h.753v-5.199c2.23-.227 4.421-.664 6.343-1.624.691.794 1.49 1.503 2.37 2.078v4.745h.86v-7.043a4.98 4.98 0 00-.907-2.872z" fill="#B97850"/><path d="M16.027 14.055a4.996 4.996 0 00-4.098-2.133h-.159v6a13.283 13.283 0 001.934-.775 11.5 11.5 0 002.37 2.078v4.745h.86v-7.043a4.98 4.98 0 00-.907-2.872z" fill="#935635"/><path d="M9.542 20.77a.475.475 0 100-.949.475.475 0 000 .95z" fill="#59595B"/><path d="M14.018 20.77a.475.475 0 100-.949.475.475 0 000 .95z" fill="#272525"/><path d="M15.992 26.328h-1.626c0 1.428-1.158 4.547-2.586 4.547s-2.586-3.12-2.586-4.547H7.568a3.546 3.546 0 00-3.545 3.545v2.292a19.988 19.988 0 0012.929 7.738 15.543 15.543 0 002.585-1.155v-8.875a3.546 3.546 0 00-3.545-3.545z" fill="#FFD15D"/><path d="M15.992 26.328h-1.626c0 1.428-1.158 4.547-2.586 4.547h-.01v7.493a19.913 19.913 0 007.767 1.76V29.873a3.545 3.545 0 00-3.545-3.545z" fill="#F9B54C"/><path d="M20.969 32.991v-1.074h-1.938v1.074c0 .086-.07.156-.155.156H17.54v3.708h4.92v-3.708h-1.336a.155.155 0 01-.155-.156z" fill="#FED8B2"/><path d="M22.46 33.147h-1.335a.155.155 0 01-.156-.156v-1.074h-1.013v4.938h2.504v-3.708z" fill="#EABE96"/><path d="M16.778 30.44a.775.775 0 100-1.55.775.775 0 000 1.55z" fill="#FED8B2"/><path d="M23.056 30.44a.774.774 0 100-1.549.774.774 0 000 1.549z" fill="#EABE96"/><path d="M20.005 32.89h-.175a2.923 2.923 0 01-2.923-2.923V27.3a2.923 2.923 0 012.923-2.924h.175a2.923 2.923 0 012.923 2.924v2.668a2.923 2.923 0 01-2.923 2.923z" fill="#F4E3C3"/><path d="M20.005 24.376h-.05v8.515h.05a2.923 2.923 0 002.923-2.923v-2.67a2.923 2.923 0 00-2.923-2.922z" fill="#FED8B2"/><path d="M18.498 29.622a.301.301 0 100-.602.301.301 0 000 .602z" fill="#59595B"/><path d="M21.336 29.622a.301.301 0 100-.602.301.301 0 000 .602z" fill="#272525"/><path d="M22.671 33.147h-1.03c0 .905-1.64 1.785-1.64 1.785s-1.64-.88-1.64-1.785h-1.032a2.249 2.249 0 00-2.248 2.248v4.128c1.573.399 3.221.611 4.92.611 1.697 0 3.345-.212 4.919-.61v-4.129a2.249 2.249 0 00-2.249-2.248z" fill="#FF6472"/><path d="M22.671 33.147H21.64c0 .905-1.64 1.785-1.64 1.785l-.045-.025v5.226l.045.001c1.698 0 3.346-.212 4.92-.61v-4.129a2.249 2.249 0 00-2.249-2.248z" fill="#C75163"/><path d="M17.63 26.318s-.146-1.863-3.01-2.642l-.977 3.01 3.988-.368z" fill="#FC6F58"/><path d="M22.37 26.318s.146-1.863 3.01-2.642l.978 3.01-3.989-.368z" fill="#F1543F"/><path d="M22.641 28.642v1.023h.545v-2.481c0-.677-.213-1.305-.575-1.82a3.169 3.169 0 00-2.599-1.353h-.19a3.174 3.174 0 00-3.173 3.173v2.481h.466v-1.023h5.526z" fill="#F1543F"/><path d="M22.61 25.363a3.169 3.169 0 00-2.598-1.352h-.057v4.63h2.686v1.024h.545v-2.481c0-.678-.213-1.305-.575-1.82z" fill="#C1321F"/></g><defs><clipPath id="clip0"><path fill="#fff" transform="translate(0 .134)" d="M0 0h40v40H0z"/></clipPath></defs></svg>