<svg fill="none" height="41" viewBox="0 0 40 41" width="40" xmlns="http://www.w3.org/2000/svg" xmlns:xlink="http://www.w3.org/1999/xlink"><clipPath id="a"><path d="m0 .866211h40v40h-40z"/></clipPath><g clip-path="url(#a)"><path d="m39.5904 21.2672c0 10.7555-8.7031 19.5991-19.5992 19.5991-10.8678 0-19.59911-8.8169-19.59911-19.5991 0-10.8244 8.77483-19.59923 19.59921-19.59923 10.8444 0 19.5991 8.79343 19.5991 19.59923z" fill="#c1f3ff"/><path d="m13.9994 27.8662c0-.0075.0006-.0149.0006-.0225 0-1.3776-1.17-2.4944-2.6131-2.4944-.3428 0-.67.0637-.9699.1783-.57955-.9909-1.6882-1.6614-2.96157-1.6614-1.65356 0-3.02984 1.1304-3.32891 2.6256-.08921-.0122-.18019-.0189-.27295-.0189-.89899 0-1.65228.5941-1.85357 1.3932h11.9994z" fill="#fff"/><path d="m38.9993 11.8662c0-.0094.0007-.0187.0007-.0281 0-1.722-1.4625-3.11802-3.2663-3.11802-.4286 0-.8375.07963-1.2125.22289-.7244-1.23862-2.1102-2.07676-3.7019-2.07676-2.067 0-3.7873 1.41293-4.1612 3.28199-.1115-.0153-.2252-.0237-.3411-.0237-1.1238 0-2.0654.7427-2.317 1.7416h14.9993z" fill="#fff"/><path d="m10.9997 27.866c0-.0037.0003-.0074.0003-.0112 0-.6887-.6825-1.247-1.52428-1.247-.19999 0-.39079.0318-.56579.0891-.338-.4955-.98479-.8307-1.72758-.8307-.96458 0-1.76737.5652-1.94187 1.3128-.052-.0061-.10509-.0094-.15919-.0094-.5244 0-.96379.297-1.08129.6966h6.9997z" fill="#dff7fd"/><path d="m34.9996 11.866c0-.0037.0004-.0074.0004-.0112 0-.6887-.8775-1.247-1.9598-1.247-.2571 0-.5024.0318-.7274.0891-.4346-.4955-1.2662-.83069-2.2212-.83069-1.2402 0-2.2723.56519-2.4967 1.31279-.0669-.0061-.1351-.0094-.2047-.0094-.6742 0-1.2391.297-1.3902.6966h8.9996z" fill="#dff7fd"/><path d="m9.49476 21.3487-4.24897 1.1852c-.33586.0938-.68-.1198-.74524-.4624l-1.28335-4.0249c-.14329-.4494-.04844-.9407.25164-1.3045l.9146-1.1087c.2093-.2538.32383-.5724.32383-.9014v-3.3556c0-.2521.16492-.4748.40625-.5482l3.76031-1.14363z" fill="#82cd64"/><path d="m39.5903 21.2673c0 10.7558-8.703 19.5992-19.5991 19.5992-3.6724 0-7.1012-1.0067-10.0315-2.7569-1.47445-.88-2.82304-1.9487-4.01195-3.1715l8.60385-3.0729c1.1228-.401 2.3451-.4289 3.485-.0796l3.4798 1.0664c1.3177.4037 2.7482-.0417 3.6038-1.1221 3.4739-4.3867 3.5227-4.5848 4.4325-5.1707l5.287-3.404c1.0236-.659 1.7252-1.7159 1.9351-2.9149.259-1.479.1756-2.901.7811-4.6188l.6043-1.7143c.1637.4017.3137.8106.4501 1.2253.6365 1.9309.98 3.9933.98 6.1348z" fill="#7e7f92"/><path d="m25.7808 30.6028-1.4466 1.2792c-.0974.0862-.2474.0727-.3335-.0298l-5.6247-5.7281c-.101-.1183-.09-.2965.0245-.396l1.7002-1.4784c.1144-.0995.2907-.0841.3917.0342l5.3091 5.9761c.086.1024.0767.2567-.0207.3428z" fill="#ffc4a4"/><path d="m24.5976 31.2192-5.4013-5.6875c-.1336-.1566-.1722-.3461-.0858-.4213l-.7611.6617c-.0865.0752-.0479.2648.0859.4214l5.5146 5.5984c.1139.1356.2673.1933.3409.1282l.6476-.5726c-.0735.065-.2269.0073-.3408-.1283z" fill="#ffc4a4"/><path d="m30.3349 30.4019.107.1242c.0852.0989.0742.2481-.0247.3334l-4.1707 3.5936c-.0989.0851-.2481.0741-.3334-.0248l-1.7588-2.0412c-.0817-.0949-.071-.2393.0239-.321l2.0348-1.7533c.0946-.0814.2388-.0707.3206.0243l.5853.6793c.1144.1327.3148.1476.4476.0332l.8723-.7516c.5592-.4818 1.3967-.4318 1.8949.1049z" fill="#aa6100"/><path d="m26.4512 33.6128-1.5849-1.8395c-.0816-.0947-.0709-.239.0239-.3207l-.7117.6133c-.0947.0817-.1054.226-.0238.3206l1.6829 1.9531.8254-.7112c-.063.0542-.1577.0471-.2118-.0156z" fill="#884d00"/><path d="m26.77 30.6048-2.4952 2.1499c-.0657.0566-.1649.0493-.2215-.0165l-.605-.7022c-.0567-.0657-.0493-.1649.0164-.2215l2.4952-2.1499c.0657-.0567.1649-.0493.2216.0164l.605.7022c.0566.0657.0492.165-.0165.2216z" fill="#cc7400"/><path d="m24.7399 32.0958-.5549-.6441c-.0705-.0818-.0848-.1849-.032-.2305l-.7117.6133c-.0528.0454-.0385.1487.0319.2305l.555.6441c.0704.0817.1704.1111.2233.0656l.7117-.6133c-.053.0456-.1529.0162-.2233-.0656z" fill="#aa6100"/><path d="m30.366 30.438.1416.1644c.1587.1842.2072.4026.1084.4878l-4.1707 3.5936c-.0989.0851-.3078.0049-.4665-.1793l-.1416-.1644z" fill="#ffb655"/><path d="m27.1574 34.0702-.7117.6133c-.0989.0852-.308.0049-.4667-.1794l-.1416-.1643.7117-.6132.1416.1643c.1587.1842.3678.2645.4667.1793z" fill="#ff9811"/><path d="m10.3379 32.9799-1.55595-1.1438c-.10469-.077-.12336-.2266-.0414-.3324l3.90595-5.4824c.0943-.1237.2708-.1506.3922-.0597l1.8042 1.3495c.1215.0909.1436.2664.0493.3902l-4.2149 5.2263c-.0819.1057-.2347.1293-.3394.0523z" fill="#ffc4a4"/><path d="m9.48525 31.9535 3.91355-5.2555c.1247-.1637.3018-.2415.3936-.1729l-.8076-.6041c-.0918-.0687-.2689.0091-.3937.1728l-3.80241 5.3476c-.10852.1399-.13242.302-.05328.3603l.69648.512c-.07906-.0582-.05508-.2203.05336-.3602z" fill="#ffc4a4"/><path d="m11.4961 37.3891-.0988.1309c-.0787.1042-.2269.1249-.3311.0463l-4.39338-3.3175c-.10422-.0787-.12485-.2269-.04625-.3311l1.62367-2.1503c.07539-.0998.21882-.1199.31875-.0444l2.14361 1.6186c.0995.0751.1195.2184.044.3184l-.5403.7156c-.1055.1399-.0778.3389.0621.4446l.9189.6938c.5889.4448.7169 1.2739.2977 1.8743z" fill="#aa6100"/><path d="m7.53701 34.2712 1.46312-1.9377c.07531-.0998.21867-.1198.31844-.0444l-.74977-.5662c-.09976-.0753-.24312-.0553-.31843.0444l-1.55359 2.0574.86945.6565c-.06602-.0499-.07914-.1439-.02922-.21z" fill="#884d00"/><path d="m10.5445 33.9473-2.62854-1.9847c-.06929-.0523-.08296-.1509-.0307-.22l.55859-.7397c.05227-.0693.15086-.083.22-.0307l2.62855 1.9848c.0693.0522.0829.1508.0307.22l-.5586.7396c-.0522.0693-.1507.0831-.22.0307z" fill="#cc7400"/><path d="m8.65826 32.2783.51235-.6785c.06507-.0862.16296-.122.21859-.08l-.74977-.5661c-.05562-.0421-.15351-.0064-.21859.0799l-.51234.6785c-.06508.0862-.07266.19-.01703.232l.74976.5662c-.05562-.042-.04805-.1459.01703-.232z" fill="#aa6100"/><path d="m11.4674 37.427-.1308.1732c-.1465.1941-.3498.2877-.4539.209l-4.39348-3.3175c-.10422-.0786-.06985-.2997.07672-.4938l.13078-.1732z" fill="#ffb655"/><path d="m7.23892 35.058-.74976-.5662c-.10414-.0787-.06976-.3001.07672-.494l.1307-.1731.74976.5662-.1307.173c-.14648.1941-.18078.4154-.07672.4941z" fill="#ff9811"/><path d="m10.5991 20.7547.3331 6.9888c.0069.144.12.2603.2639.2711l3.6253.2715c.1679.0126.3102-.1223.3066-.2906l-.1661-7.9149z" fill="#965028"/><path d="m12.3577 28.1022-1.1615-.0871c-.1443-.0113-.2572-.1274-.2637-.271l-.3331-6.9891 1.0743-.1661z" fill="#69280f"/><path d="m19.4165 8.69051c-.3421-.26843-.8332-.22789-1.1266.09305l-3.3193 3.63144c-.0282.0308-.0765.0321-.1062.0025l-1.5399-1.5285.2791-.2879c.0799-.0824.0779-.2141-.0045-.294l-1.9953-1.93487c-.5726-.55523-1.487-.54117-2.04215.03149l-.1025.10578c-.55524.57257-.54117 1.48695.03148 2.0421l1.99527 1.9348c.0825.08.2142.0779.2941-.0045l.1513-.1561c1.8712 2.0405 1.7551 1.8814 2.478 2.4766.4856.3997 1.2034.3301 1.6032-.1554l3.559-4.80805c.2675-.36172.199-.87063-.155-1.14844z" fill="#4bb9e1"/><path d="m20.767 24.1666s-.3145.5452-1.0744 1.8648l-.7065 1.2277c-.0565.1137-.1952.1605-.3089.1024l-3.8458-1.6505c-.156-.0669-.3273-.0892-.4955-.0658-.0806.0113-.1613.0206-.2417.0282-2.4423.2307-2.6319-.217-3.7764-1.7664-.0194-.0275-.0379-.0557-.0565-.0855-.0097-.0153-.0193-.0315-.029-.0484-.0049-.008-.0097-.0161-.0138-.0242-.37021-.6452-.62107-1.7801-.71701-2.5375-.01046-.0847-.01937-.1653-.02664-.2395l1.42355-.4566 4.2298-1.3566.2751 1.2881 5.2758 3.4086c.1049.0668.142.1998.0879.3112z" fill="#965028"/><path d="m19.6928 26.0313-.7065 1.2277c-.0565.1137-.1952.1605-.309.1024l-3.8457-1.6505c-.156-.0669-.3274-.0892-.4955-.0658-.0806.0113-.1613.0206-.2417.0282-2.4424.2307-2.6319-.217-3.7764-1.7664-.43298-.6135-.719-1.9403-.81626-2.6957-.01047-.0847-.01938-.1653-.02664-.2395l1.4236-.4566c.2202.6993.5807 1.7269.7896 2.0214l.5105.7186c1.0631 1.0421 2.4835 1.6116 3.9458 1.6116h.0105c.767-.0016 1.5261.1605 2.2125.5033z" fill="#80391b"/><path d="m11.3986 8.44378-2.35699.45125-.05601-3.31944 1.9041-.23282z" fill="#ffc4a4"/><path d="m9.62115 5.49707.05313 3.12851-.63297.26922-.05547-3.31968z" fill="#ffaf82"/><path d="m15.4664 19.5601c-.6614.2347-2.5295.8889-4.1684 1.3769-.809.2412-1.5616.4412-2.08667.5316-.26055.0444-.50328-.1436-.52266-.4074l-.70898-11.0397c-.09438-.87353.3089-1.68338.98078-2.15041.10406.00891.19922.0161.28711.02336.2.01532.36375.02664.51054.03633.025.00164.05078.0032.075.00484.03633.00165.0718.00407.10727.00649.00484.00078.00969.00078.01453.00078.03391.00242.06778.00406.10168.00648.0572.00321.1137.00649.1718.00969.0266.00164.0524.00321.079.00485.0129.00078.0258.00164.0388.00242.0403.00242.0815.00484.1242.00726.008.00078.0169.00164.0258.00164.0766.00485.1589.01047.2492.01696.075.00562.1548.01133.2419.01773.0871.00641.1807.01375.2832.02258.0201.00164.0403.0032.0613.00484 1.789.14922 3.8547 9.40476 4.3169 11.18006.0379.1443-.0419.2927-.1823.3427z" fill="#87afb9"/><path d="m11.298 20.937c-.809.2412-1.5616.4412-2.08667.5316-.26055.0444-.50328-.1436-.52266-.4074l-.70898-11.0397c-.09438-.87353.3089-1.68338.98078-2.15041.10406.00891.19922.0161.28711.02336.2.0161.36374.02742.51054.03633.025.00164.05078.0032.075.00484.03711.00243.07258.00485.10727.00649.00484.00078.00968.00078.01453.00078.03468.00242.06778.00406.10168.00648.0572.00321.1137.00649.1718.00969.0266.00164.0524.00321.079.00485.0129.00078.0258.00164.0388.00242.0403.00242.0815.00484.1242.00726.008.00078.0169.00164.0258.00164.0774.00563.1597.01047.2492.01696.075.00562.1548.01133.2419.01773.0871.00727.1807.01453.2832.02258-.5469.47914-.8599 1.20906-.7752 1.9891z" fill="#6c9baa"/><path d="m13.2779 5.67473c-.1056.04195-.2911.03305-.2911.03305s-.4122.86953-.5396 1.08968c-.1654.28555-.3912.40649-.6525.40977-.5598.00726-1.2785-.53071-1.88903-1.15258h-.00078c-.27265-.2775-.66304-.13633-.87836-.36859-.48718-.5243-.75656-1.23727-.75578-1.92937 0-.03227.00079-.06375.00243-.09602 0-.01047 0-.02094.00078-.03226.00164-.03227.00406-.06532.00726-.09758-.00078-.00242 0-.00485.00078-.00805.00243-.03547.00649-.07102.01133-.10562.00078-.00485.00078-.00969.00242-.01454.00321-.03062.00805-.06132.01375-.09195.01211-.06773.02743-.13469.04516-.20086.00484-.01695.00969-.0339.01453-.05078.02984-.10242.06695-.20242.11133-.29922.11133-.24437.26859-.46859.47586-.6614.99375-.92195 2.74642-.74609 3.66912.24765.3202.34602.6195 1.12516.4291 1.86641-.0427.16859.2396.7082.3945 1.0139.0862.17086.0063.37734-.1712.44836z" fill="#ffc5a4"/><path d="m11.7947 7.20767c-.5598.00727-1.2785-.5307-1.88903-1.15258h-.00078c-.27266-.2775-.66304-.13632-.87836-.36859-.48718-.5243-.75656-1.23726-.75578-1.92937 0-.03227.00079-.06375.00243-.09602 0-.01047 0-.02094.00078-.03226.00164-.03227.00406-.06532.00726-.09758-.00078-.00242 0-.00485.00078-.00805.00243-.03547.00649-.07101.01133-.10562.00078-.00485.00078-.00969.00242-.01453.00321-.03063.00805-.06133.01375-.09196.01211-.06773.02743-.13468.04516-.20086.00484-.01695.00969-.0339.01453-.05078.02984-.10242.06695-.20242.11133-.29922-.09195.89938.22586 1.86969.86625 2.56094.25164.2718.70733.10562 1.02683.4307.4653.4725.9492 1.04281 1.4211 1.45578z" fill="#ffaf82"/><path d="m11.7889 3.46904c-.0111.22539-.052.44124-.1186.64304-.0325.09883-.1655.12016-.2255.03516-.109-.15422-.2557-.23586-.3963-.20078-.1601.03992-.3496.27765-.3048.69398.0082.07633-.0159.15242-.0691.20781-.2669.2782-.75754.77859-1.07293.8593-.40632.10406-.20617.0957-.54859.09195-.89765-.23351-1.22601-1.4482-1.17343-2.52203.05945-1.2132.98281-2.15343 2.06249-2.10054 1.07896.05297 1.90606 1.07883 1.84676 2.29211z" fill="#aa6432"/><path d="m9.23021 3.5023c-.22898.78093-.14929 1.57851.16688 2.26296-.13703.04305-.08492.03727-.34383.03453-.89805-.2339-1.22625-1.44804-1.17359-2.52194.05906-1.21328.98281-2.15359 2.06257-2.10094.35286.01774.67886.1386.95596.3375-.7806.38633-1.40361 1.08625-1.66799 1.98789z" fill="#965028"/><path d="m13.1025 3.27669-5.25972.60164c-.14484.02055-.13109-.10609-.14351-.25187-.09195-1.08195.17258-2.40554 1.56523-2.60359 2.9517-.621562 3.4255.74445 3.8189 1.68226.0259.06195 1.9113-.12672 1.9298-.06328.0076.02633.102.34008-.2414.3975-.6214.10398-1.6693.23734-1.6693.23734z" fill="#46738c"/><path d="m21.606 37.1631c-.1666.0288-.3276-.0951-.3611-.2778l-4.3773-23.8638c-.0616-.3356.1381-.653.4441-.7059.3061-.0529.6006.179.6553.5158l3.886 23.9488c.0298.1833-.0804.3541-.247.3829z" fill="#ba6746"/><path d="m33.5103 29.7249c-.1337.1036-.3387.0635-.4599-.0897l-15.824-20.02179c-.2225-.28156-.2038-.66688.0418-.85711.2456-.19016.6234-.11203.8403.17383l15.4299 20.32687c.1181.1557.1056.3643-.0281.4679z" fill="#4bb9e1"/><path d="m19.9913 40.8664c-6.0848 0-11.4994-2.7633-15.08627-7.0883l1.56961.4566 4.53706 3.649 7.5074.2302c.8311.0255 1.6499-.2057 2.345-.6621 3.813-2.5038 1.9828-1.4138 5.5308-2.9736 5.0363-4.4198 5.9194-4.6337 6.7727-6.315 1.42-2.7982 1.5057-3.0688 2.0313-3.6933l1.9978-2.3738c.524-.6225.8481-1.3885.9302-2.198l.4837-4.7658c4.1349 12.4049-5.0734 25.7341-18.6193 25.7341z" fill="#50ba4a"/><path d="m19.9913 40.8664c-6.0848 0-11.4994-2.7633-15.08627-7.0883l1.56961.4566 4.53706 3.649 7.5074.2302c.8311.0255 1.6499-.2057 2.345-.6621 3.813-2.5038 1.9828-1.4138 5.5308-2.9736 5.0363-4.4198 5.9194-4.6337 6.7727-6.315 1.42-2.7982 1.5057-3.0688 2.0313-3.6933l1.9978-2.3738c.524-.6225.8481-1.3885.9302-2.198l.4837-4.7658c4.1349 12.4049-5.0734 25.7341-18.6193 25.7341z" fill="#58586b"/><path d="m8.47459 20.9715-.94508-.8705.47258.4352-.47281-.4349c.02578-.028 2.59332-2.851 3.62152-6.4017.3828-1.3215.2291-2.7352-.4216-3.87835-.1716-.30141-.5301-.80594-1.00751-.80594-.00156 0-.00297.00008-.00453.00008-.29469.00195-1.10047.22476-2.21562 2.24651l-1.12508-.6204c1.0611-1.92385 2.18211-2.90322 3.33211-2.91095.00453-.00008.00914-.00008.01359-.00008.83564 0 1.58934.5164 2.12374 1.45531.8212 1.44292 1.0177 3.21852.5391 4.87132-1.1147 3.8488-3.79674 6.791-3.91041 6.9144z" fill="#82cd64"/><path d="m10.6696 17.359-1.75897-6.3681c-.15351-.5272.18985-1.0909.76688-1.25879.57699-.16797 1.16919.12336 1.32269.65069l1.5954 5.7299z" fill="#ffc4a4"/><path d="m12.3177 12.5123-.894-3.07189c-.2566-.88149-1.1792-1.38813-2.0608-1.13156l-.16273.04742c-.88148.25656-1.38812 1.17922-1.13156 2.06073l.89406 3.0719c.03695.127.16977.1999.29672.163l2.89541-.8427c.1269-.0372.1999-.17.1629-.2969z" fill="#46738c"/><path d="m19.089 14.2848c.1785.4369-.023.9366-.4548 1.1272l-6.3738 2.816c-.6765.2582-1.4342-.081-1.6922-.7575-.2582-.6765.0811-1.4342.7575-1.6922l6.6271-2.1426c.4339-.1403.9028.0776 1.0753.4999z" fill="#ffc4a4"/><path d="m8.9822 2.36463c-.13726.46828-.19429.9407-.17867 1.40343l-.96101.10984c-.14469.02055-.13125-.10578-.1432-.25124-.09211-1.08188.17242-2.40555 1.56538-2.60391.14867-.031246.29094-.057574.42742-.078902-.31086.415702-.55515.892892-.70992 1.420782z" fill="#46738c"/><path d="m7.86809 21.8024-2.62218.7316c-.33633.0936-.67992-.1202-.74531-.463l-1.28328-4.0248c-.14359-.4493-.04836-.9405.25164-1.3043l.91468-1.109c.0218-.0258.04274-.0532.06211-.0807.65742 2.3495 1.84391 4.479 3.42234 6.2502z" fill="#64a54b"/></g></svg>