<svg fill="none" height="41" viewBox="0 0 40 41" width="40" xmlns="http://www.w3.org/2000/svg" xmlns:xlink="http://www.w3.org/1999/xlink"><linearGradient id="a"><stop offset="0" stop-color="#fe646f"/><stop offset=".593" stop-color="#fb2b3a"/><stop offset="1" stop-color="#c41926"/></linearGradient><linearGradient id="b" gradientUnits="userSpaceOnUse" x1="22.3667" x2="39.6729" xlink:href="#a" y1="37.2043" y2="37.2043"/><linearGradient id="c" gradientUnits="userSpaceOnUse" x1="15.8771" x2="37.9364" xlink:href="#a" y1="37.2044" y2="37.2044"/><linearGradient id="d"><stop offset="0" stop-color="#fef056"/><stop offset=".5213" stop-color="#fbc56d"/><stop offset="1" stop-color="#c86d36"/></linearGradient><linearGradient id="e" gradientUnits="userSpaceOnUse" x1="29.5844" x2="32.574" xlink:href="#d" y1="9.08968" y2="9.08968"/><linearGradient id="f"><stop offset="0" stop-color="#bbec6c"/><stop offset=".5857" stop-color="#78a91f"/><stop offset="1" stop-color="#02905d"/></linearGradient><linearGradient id="g" gradientUnits="userSpaceOnUse" x1="20.8581" x2="40.4967" xlink:href="#f" y1="24.0116" y2="24.0116"/><linearGradient id="h" gradientUnits="userSpaceOnUse" x1="20.5444" x2="38.9402" xlink:href="#f" y1="24.0107" y2="24.0107"/><linearGradient id="i"><stop offset="0" stop-color="#faf7f7"/><stop offset=".4551" stop-color="#f3eae6"/><stop offset="1" stop-color="#efe2dd"/></linearGradient><linearGradient id="j" gradientUnits="userSpaceOnUse" x1="24.117" x2="43.852" xlink:href="#i" y1="24.0107" y2="24.0107"/><linearGradient id="k" gradientUnits="userSpaceOnUse" x1="27.7331" x2="36.5648" xlink:href="#f" y1="24.0106" y2="24.0106"/><linearGradient id="l" gradientUnits="userSpaceOnUse" x1="24.675" x2="36.803" xlink:href="#f" y1="24.0107" y2="24.0107"/><linearGradient id="m"><stop offset="0" stop-color="#f3eae6"/><stop offset="1" stop-color="#cdbfba"/></linearGradient><linearGradient id="n" gradientUnits="userSpaceOnUse" x1="24.466" x2="38.2638" xlink:href="#m" y1="34.6374" y2="34.6374"/><linearGradient id="o" gradientUnits="userSpaceOnUse" x1="24.4659" x2="38.2638" xlink:href="#m" y1="24.0104" y2="24.0104"/><linearGradient id="p" gradientUnits="userSpaceOnUse" x1="24.4668" x2="38.2646" xlink:href="#m" y1="14.9723" y2="14.9723"/><linearGradient id="q" gradientUnits="userSpaceOnUse" x1="28.4213" x2="34.8224" xlink:href="#d" y1="10.6314" y2="10.6314"/><linearGradient id="r" gradientUnits="userSpaceOnUse" x1="28.987" x2="32.342" xlink:href="#f" y1="14.436" y2="14.436"/><linearGradient id="s" gradientUnits="userSpaceOnUse" x1="24.3729" x2="47.8438" xlink:href="#d" y1="34.045" y2="34.045"/><linearGradient id="t" gradientUnits="userSpaceOnUse" x1="20.1429" x2="42.1262" xlink:href="#d" y1="34.045" y2="34.045"/><linearGradient id="u" gradientUnits="userSpaceOnUse" x1="21.7714" x2="28.6017" xlink:href="#a" y1="10.2623" y2="10.2623"/><linearGradient id="v" gradientUnits="userSpaceOnUse" x1="21.1149" x2="24.4729" xlink:href="#a" y1="10.2257" y2="10.2257"/><linearGradient id="w" gradientUnits="userSpaceOnUse" x1="20.3086" x2="31.0549" xlink:href="#d" y1="5.33408" y2="5.33408"/><linearGradient id="x" gradientUnits="userSpaceOnUse" x1="15.4019" x2="30.3072" xlink:href="#d" y1="5.33407" y2="5.33407"/><linearGradient id="y" gradientUnits="userSpaceOnUse" x1="14.7397" x2="33.0048" xlink:href="#a" y1="19.9891" y2="19.9891"/><linearGradient id="z" gradientUnits="userSpaceOnUse" x1="10.7481" x2="24.8982" xlink:href="#a" y1="23.2061" y2="23.2061"/><linearGradient id="A" gradientUnits="userSpaceOnUse" x1="9.88536" x2="29.0018" xlink:href="#a" y1="19.9895" y2="19.9895"/><linearGradient id="B" gradientUnits="userSpaceOnUse" x1="18.905" x2="28.8398" xlink:href="#f" y1="25.1053" y2="25.1053"/><linearGradient id="C" gradientUnits="userSpaceOnUse" x1="15.5196" x2="26.9016" xlink:href="#f" y1="25.1056" y2="25.1056"/><linearGradient id="D" gradientUnits="userSpaceOnUse" x1="11.1664" x2="36.9789" xlink:href="#a" y1="34.6546" y2="34.6546"/><linearGradient id="E" gradientUnits="userSpaceOnUse" x1="3.08798" x2="32.831" xlink:href="#a" y1="34.6546" y2="34.6546"/><linearGradient id="F" gradientUnits="userSpaceOnUse" x1="11.1664" x2="36.9789" xlink:href="#f" y1="38.1994" y2="38.1994"/><linearGradient id="G" gradientUnits="userSpaceOnUse" x1="13.9115" x2="22.4183" xlink:href="#f" y1="38.4533" y2="38.4533"/><linearGradient id="H" gradientUnits="userSpaceOnUse" x1="17.6763" x2="30.2264" xlink:href="#f" y1="38.8381" y2="38.8381"/><linearGradient id="I" gradientUnits="userSpaceOnUse" x1="13.4465" x2="34.5592" xlink:href="#i" y1="39.0756" y2="39.0756"/><linearGradient id="J" gradientUnits="userSpaceOnUse" x1="15.6687" x2="20.7283" xlink:href="#m" y1="39.4203" y2="39.4203"/><linearGradient id="K" gradientUnits="userSpaceOnUse" x1="16.6785" x2="43.5266" xlink:href="#i" y1="28.4425" y2="28.4425"/><linearGradient id="L" gradientUnits="userSpaceOnUse" x1="14.3462" x2="25.2377" xlink:href="#m" y1="28.4425" y2="28.4425"/><linearGradient id="M" gradientUnits="userSpaceOnUse" x1="14.7524" x2="36.7356" xlink:href="#m" y1="28.4425" y2="28.4425"/><linearGradient id="N" gradientUnits="userSpaceOnUse" x1="22.343" x2="27.0565" xlink:href="#i" y1="11.7629" y2="11.7629"/><linearGradient id="O" gradientUnits="userSpaceOnUse" x1="15.7939" x2="29.7603" xlink:href="#m" y1="39.9787" y2="39.9787"/><linearGradient id="P" gradientUnits="userSpaceOnUse" x1="2.04326" x2="19.3495" xlink:href="#a" y1="35.9727" y2="35.9727"/><linearGradient id="Q" gradientUnits="userSpaceOnUse" x1="-4.44686" x2="17.6125" xlink:href="#a" y1="35.9723" y2="35.9723"/><linearGradient id="R" gradientUnits="userSpaceOnUse" x1="9.26062" x2="12.2503" xlink:href="#d" y1="7.46581" y2="7.46581"/><linearGradient id="S"><stop offset="0" stop-color="#01d0fb"/><stop offset=".6075" stop-color="#26a6fe"/><stop offset="1" stop-color="#0182fc"/></linearGradient><linearGradient id="T" gradientUnits="userSpaceOnUse" x1=".534275" x2="20.1729" xlink:href="#S" y1="21.5472" y2="21.5472"/><linearGradient id="U"><stop offset="0" stop-color="#01bffa"/><stop offset="1" stop-color="#5b5cff"/></linearGradient><linearGradient id="V" gradientUnits="userSpaceOnUse" x1=".220398" x2="18.6162" xlink:href="#U" y1="21.5472" y2="21.5472"/><linearGradient id="W" gradientUnits="userSpaceOnUse" x1="3.7933" x2="23.5282" xlink:href="#i" y1="21.5472" y2="21.5472"/><linearGradient id="X" gradientUnits="userSpaceOnUse" x1="7.40935" x2="16.2411" xlink:href="#S" y1="21.5472" y2="21.5472"/><linearGradient id="Y" gradientUnits="userSpaceOnUse" x1="4.35105" x2="16.4791" xlink:href="#U" y1="21.5472" y2="21.5472"/><linearGradient id="Z" gradientUnits="userSpaceOnUse" x1="4.14196" x2="17.9399" xlink:href="#m" y1="32.174" y2="32.174"/><linearGradient id="aa" gradientUnits="userSpaceOnUse" x1="4.14197" x2="17.9399" xlink:href="#m" y1="21.5469" y2="21.5469"/><linearGradient id="ab" gradientUnits="userSpaceOnUse" x1="4.14207" x2="17.94" xlink:href="#m" y1="12.5088" y2="12.5088"/><linearGradient id="ac" gradientUnits="userSpaceOnUse" x1="8.09759" x2="14.4986" xlink:href="#d" y1="8.16806" y2="8.16806"/><linearGradient id="ad" gradientUnits="userSpaceOnUse" x1="8.6633" x2="12.0183" xlink:href="#S" y1="11.9726" y2="11.9726"/><linearGradient id="ae" gradientUnits="userSpaceOnUse" x1="4.04941" x2="27.5203" xlink:href="#f" y1="31.5816" y2="31.5816"/><linearGradient id="af" gradientUnits="userSpaceOnUse" x1="-.180768" x2="21.8025" xlink:href="#f" y1="31.5816" y2="31.5816"/><linearGradient id="ag" gradientUnits="userSpaceOnUse" x1="8.09759" x2="14.4986" xlink:href="#d" y1="8.16758" y2="8.16758"/><linearGradient id="ah" gradientUnits="userSpaceOnUse" x1="-.180524" x2="21.8028" xlink:href="#f" y1="31.5816" y2="31.5816"/><linearGradient id="ai" gradientUnits="userSpaceOnUse" x1="29.626" x2="33.4378" xlink:href="#d" y1="8.95428" y2="8.95428"/><linearGradient id="aj" gradientUnits="userSpaceOnUse" x1="28.2521" x2="35.8756" xlink:href="#d" y1="10.8662" y2="10.8662"/><linearGradient id="ak" gradientUnits="userSpaceOnUse" x1="20.5261" x2="31.001" xlink:href="#d" y1="5.36621" y2="5.36621"/><linearGradient id="al" gradientUnits="userSpaceOnUse" x1="15.6757" x2="30.2847" xlink:href="#d" y1="5.36618" y2="5.36618"/><mask id="am" height="41" maskUnits="userSpaceOnUse" width="40" x="0" y="0"><circle cx="20" cy="20.8662" fill="#c4c4c4" r="20"/></mask><ellipse cx="20" cy="21.3662" fill="#5191d2" rx="20" ry="19.5"/><g mask="url(#am)"><path d="m37.2267 40.8661h-13.13c-.5591 0-1.0122-.4532-1.0122-1.0122v-6.3114h15.1544v6.3114c.0001.559-.4532 1.0122-1.0122 1.0122z" fill="url(#b)"/><path d="m38.2395 33.5425v6.3117c0 .559-.4532 1.0122-1.0122 1.0122h-2.1266v-.0173c0-1.8076-1.4653-3.2728-3.2728-3.2728h-8.7429v-4.0337h15.1545z" fill="url(#c)"/><path d="m31.4463 4.52748v9.90852h-1.5686v-9.90852c0-.43294.3514-.78432.7843-.78432s.7843.35138.7843.78432z" fill="url(#e)"/><path d="m35.8166 19.2039c-1.7211-1.0607-3.0978-2.6058-3.9644-4.4324-.1216-.2562-.2324-.5071-.3331-.7493-.4003-.9625-1.3139-.9625-1.7143 0-.1007.242-.2114.4928-.3329.7489-.8813 1.8576-2.3106 3.3894-4.0497 4.4858-2.7629 1.7419-4.5985 4.0683-4.5985 7.5758 0 5.4424 4.4787 7.9343 9.9209 7.8896 5.3955-.0444 9.7556-2.4837 9.7556-7.8895 0-3.5434-1.8733-5.897-4.6836-7.6289z" fill="url(#g)"/><path d="m35.8166 19.2029c-1.7211-1.0607-3.0978-2.6058-3.9644-4.4324-.1215-.2562-.2324-.5071-.3331-.7493-.4003-.9625-1.3139-.9625-1.7143 0-.1007.242-.2114.4929-.3329.7489-.117.2468-.2444.4873-.3802.7222.8662 1.5117 2.0968 2.7927 3.586 3.7105 2.8103 1.732 4.6836 4.0855 4.6836 7.629 0 4.9143-3.6033 7.3767-8.312 7.8172.5515.0529 1.1179.077 1.6953.0723 5.3956-.0443 9.7556-2.4835 9.7556-7.8894 0-3.5434-1.8733-5.897-4.6836-7.629z" fill="url(#h)"/><path d="m34.6104 19.2029c-1.3184-1.0607-2.373-2.6058-3.0367-4.4324-.0931-.2562-.1781-.5071-.2552-.7493-.1533-.4813-.4049-.7219-.6565-.7219.1126 0 .2252.2406.2938.7219.0345.2422.0725.4931.1142.7493.2971 1.8266.769 3.3716 1.359 4.4324.9633 1.732 1.6055 4.0855 1.6055 7.629 0 5.4058-1.4946 7.8451-3.3442 7.8895-1.8656.0447-3.401-2.4472-3.4009-7.8896 0-3.5075.6293-5.8339 1.5763-7.5758.5963-1.0965 1.0862-2.6283 1.3883-4.4859.0416-.256.0796-.5069.1141-.7489.0686-.4813.1812-.7219.2938-.7219-.2516 0-.5032.2406-.6566.7219-.0771.242-.1619.4929-.255.7489-.6751 1.8576-1.7699 3.3894-3.1021 4.4859-2.1163 1.7419-3.5225 4.0683-3.5225 7.5758 0 5.4424 3.4307 7.9343 7.5995 7.8896 4.1329-.0444 7.4728-2.4837 7.4728-7.8895.0001-3.5434-1.435-5.897-3.5876-7.629z" fill="url(#j)"/><path d="m32.429 19.2029c-.59-1.0607-1.0619-2.6058-1.359-4.4324-.0416-.2562-.0797-.5071-.1142-.7493-.1372-.9625-.4504-.9625-.5876 0-.0345.242-.0724.4929-.1141.7489-.3021 1.8576-.7921 3.3894-1.3882 4.4858-.9472 1.7419-1.5763 4.0684-1.5763 7.5758 0 5.4424 1.5352 7.9344 3.4008 7.8896 1.8496-.0444 3.3443-2.4836 3.3443-7.8895-.0001-3.5434-.6423-5.897-1.6057-7.6289z" fill="url(#k)"/><path d="m32.4289 19.2029c-.59-1.0607-1.0619-2.6058-1.359-4.4324-.0416-.2562-.0797-.5071-.1142-.7493-.1372-.9625-.4504-.9625-.5876 0-.0345.242-.0724.4929-.1141.7489-.097.5965-.2134 1.1592-.3465 1.6847-.1523.6015-.1127 1.2361.1188 1.8117.1381.3433.2854.6567.441.9363.9634 1.732 1.6056 4.0855 1.6056 7.629 0 4.4497-1.013 6.8878-2.4027 7.6363.3226.1778.6653.2617 1.0201.2532 1.8496-.0444 3.3442-2.4836 3.3442-7.8895 0-3.5433-.6422-5.8969-1.6056-7.6289z" fill="url(#l)"/><path d="m29.2656 34.6272c.3843.0552.7785.086 1.1804.0927.0759.0007.1519.0013.2282.001-.2867.0047-.5654-.0502-.8319-.1672-.1902.0279-.3824.0526-.5767.0735z" fill="url(#n)"/><path d="m34.6105 19.2029c-1.3183-1.0607-2.3729-2.6058-3.0367-4.4324-.0931-.2562-.178-.5071-.2551-.7493-.1534-.4813-.405-.7219-.6566-.7219.1126 0 .2252.2406.2938.7219.0345.2422.0726.4931.1142.7493.2749 1.6902.6998 3.1385 1.2291 4.186.1245.0845.2503.1673.3787.2464 2.8103 1.732 4.6836 4.0855 4.6836 7.629 0 3.7003-2.0431 6.0102-5.0625 7.1139-.4762.5076-1.0229.7605-1.6052.7754.0118-.0001.0233.0002.0351.0002 4.1313-.0458 7.4693-2.4851 7.4693-7.8895 0-3.5434-1.4351-5.897-3.5877-7.629z" fill="url(#o)"/><path d="m30.2549 14.7701c.0417-.256.0797-.5069.1142-.7489.0686-.4813.1811-.7219.2938-.7219-.2516 0-.5032.2406-.6566.7219-.0771.242-.1619.4929-.255.7489-.1342.3691-.2854.7247-.4513 1.0671.1739.2782.3603.5478.5587.8079.1538-.5795.2874-1.2057.3962-1.875z" fill="url(#p)"/><path d="m30.7286 12.3107c.9275 0 1.6793-.7518 1.6793-1.6793 0-.92741-.7518-1.67925-1.6793-1.67925-.9274 0-1.6793.75184-1.6793 1.67925 0 .9275.7519 1.6793 1.6793 1.6793z" fill="url(#q)"/><path d="m30.6621 15.7382c.4798 0 .9392-.0483 1.3636-.1362.2664-.0552.3988-.3561.2629-.5917-.0525-.0909-.1036-.1825-.1533-.2747-.1505-.279-.2876-.5522-.4123-.8159-.4955-1.0479-1.6262-1.0479-2.1218 0-.1246.2636-.2617.5367-.4121.8155-.0497.0922-.1009.1837-.1534.2744-.1366.2356-.0043.5371.2624.5923.4245.088.884.1363 1.364.1363z" fill="url(#r)"/><path d="m40.3811 34.045c0-.8667-.7026-1.5694-1.5694-1.5694h-16.2999c-.8667 0-1.5694.7027-1.5694 1.5694s.7027 1.5694 1.5694 1.5694h16.2999c.8668 0 1.5694-.7027 1.5694-1.5694z" fill="url(#s)"/><path d="m38.8117 32.4756h-3.1388c.8667 0 1.5694.7027 1.5694 1.5694s-.7027 1.5694-1.5694 1.5694h3.1388c.8667 0 1.5694-.7027 1.5694-1.5694s-.7027-1.5694-1.5694-1.5694z" fill="url(#t)"/><path d="m25.4893 12.0026h-3.2339l-1.7556-3.55387h6.7451z" fill="url(#u)"/><path d="m25.6533 8.44873-1.7556 3.55387h1.5915l1.7556-3.55387z" fill="url(#v)"/><path d="m26.0225 3.32866c-.7179-.44243-1.2921-1.0869-1.6535-1.84878-.0507-.1069-.097-.21153-.139-.31255-.167-.401492-.5481-.401492-.7151 0-.0419.10094-.0882.20557-.1389.31239-.3676.77482-.9638 1.41373-1.6892 1.87114-1.1524.72659-1.918 1.69694-1.918 3.16 0 2.27012 1.8682 3.30957 4.1382 3.29082 2.2505-.01851 4.0692-1.03592 4.0692-3.29082 0-1.47804-.7814-2.45969-1.9537-3.1822z" fill="url(#w)"/><path d="m26.0421 3.34082c-.674-.41867-1.2378-.99718-1.5966-1.70479-.0816-.16109-.1532-.3189-.2155-.4687-.167-.401492-.5481-.401492-.7151 0-.0419.10094-.0882.20557-.1389.31239-.0013.00282-.0027.00565-.004.00847-.2728.57161-.123 1.2589.3861 1.63569.0978.07239.1988.1407.3028.20486 1.1721.72243 1.9536 1.70416 1.9536 3.18212 0 1.93427-1.3386 2.95718-3.1397 3.22094.3304.04973.6764.07286 1.0322.06996 2.2505-.01851 4.0692-1.03592 4.0692-3.29082 0-1.46988-.7727-2.44879-1.9341-3.17012z" fill="url(#x)"/><path d="m21.4802 12.4455-6.7405 15.9971h18.2651l-6.7404-15.9971c-.5112-1.2131-4.273-1.2131-4.7842 0z" fill="url(#y)"/><path d="m23.0531 22.3973c-.2966-.4688-.8097-.6753-1.2973-.6201-.4801-1.5185-1.3903-2.7619-2.6034-3.8075l-4.4127 10.4728h2.2036 4.1094 5.8253z" fill="url(#z)"/><path d="m26.3068 12.5471-.0424-.1012c-.3906-.9262-2.6753-1.1451-3.9616-.6572-.3992.1514-.7019.3702-.8227.6572l-.0424.1012-.8266 1.9616h.8554c1.532 0 2.9149.9179 3.5098 2.3297l4.8897 11.6044h3.1388z" fill="url(#A)"/><path d="m22.7299 22.3972-3.8249 6.0451h9.9349l-3.8249-6.0451c-.5308-.8388-1.7544-.8388-2.2851 0z" fill="url(#B)"/><path d="m25.0152 22.3972c-.4823-.7615-1.5364-.8313-2.1231-.2086.0588.062.1129.1318.1616.2086l3.8243 6.0455h1.9615z" fill="url(#C)"/><path d="m32.6361 40.8664h-1.6292l-7.1346-.2353-7.5034.2353h-1.6292v-12.4235h17.8964z" fill="url(#D)"/><path d="m21.0526 28.4429h-6.3129v12.4235h1.6292l2.9143-.0914c.3499-.1593.5936-.5113.5936-.9208v-6.7032h.5728c.7341 0 1.3487-.5048 1.5202-1.1858h4.1024c1.8917 0 3.4252 1.5335 3.4252 3.4252v5.4266l1.5098.0494h1.629v-12.4235z" fill="url(#E)"/><path d="m32.6361 40.8661h-1.6292l-7.1346-.2353-7.5034.2353h-1.6292c0-2.9455 4.0062-5.3334 8.9482-5.3334s8.9482 2.3879 8.9482 5.3334z" fill="url(#F)"/><path d="m19.8769 39.8542v-3.8142c-3.0359.8531-5.1372 2.6934-5.1372 4.8265h1.6292l2.9143-.0914c.3499-.1594.5937-.5113.5937-.9209z" fill="url(#G)"/><path d="m29.4976 36.8101v4.0064l1.4734.0486.0364.0011h1.6288c0-1.6238-1.2179-3.0779-3.1386-4.0561z" fill="url(#H)"/><path d="m31.0071 40.8659c-1.0532-2.0845-3.9321-3.5807-7.319-3.5807s-6.2657 1.4962-7.319 3.5807z" fill="url(#I)"/><path d="m19.8771 37.9746c-1.6254.6336-2.8855 1.6597-3.508 2.8915h3.508z" fill="url(#J)"/><path d="m34.9902 28.4425c0-.8668-.7027-1.5695-1.5694-1.5695h-19.097c-.8667 0-1.5694.7027-1.5694 1.5695 0 .8667.7027 1.5694 1.5694 1.5694h19.097c.8668 0 1.5694-.7027 1.5694-1.5694z" fill="url(#K)"/><path d="m14.3238 26.873c-.8667 0-1.5694.7027-1.5694 1.5695 0 .8667.7027 1.5694 1.5694 1.5694h5.3556c.9654-.8124 1.6911-1.8541 2.0954-3.1389z" fill="url(#L)"/><path d="m33.4211 26.873h-3.1389c.8668 0 1.5694.7027 1.5694 1.5695 0 .8667-.7026 1.5694-1.5694 1.5694h3.1389c.8667 0 1.5694-.7027 1.5694-1.5694 0-.8668-.7026-1.5695-1.5694-1.5695z" fill="url(#M)"/><path d="m25.9117 12.5471h-4.0786c-.4331 0-.7843-.3511-.7843-.7843 0-.4331.3512-.7843.7843-.7843h4.0786c.4331 0 .7844.3512.7844.7843 0 .4332-.3513.7843-.7844.7843z" fill="url(#N)"/><path d="m29.4976 39.0913v1.7256l1.5095.0494c-.3338-.6605-.8512-1.2616-1.5095-1.775z" fill="url(#O)"/><path d="m16.9033 40.8662h-13.13008c-.55906 0-1.01223-.4532-1.01223-1.0122v-8.7749h15.15441v8.7749c.0001.559-.4531 1.0122-1.0121 1.0122z" fill="url(#P)"/><path d="m17.9155 31.0786v8.7752c0 .5591-.4532 1.0122-1.0122 1.0122h-2.1266v-2.4809c0-1.8075-1.4653-3.2728-3.2728-3.2728h-8.74291v-4.0337z" fill="url(#Q)"/><path d="m11.1226 3.7433v8.2293h-1.56864v-8.2293c0-.43294.35137-.78432.78434-.78432.4329 0 .7843.35138.7843.78432z" fill="url(#R)"/><path d="m15.4928 16.7395c-1.7211-1.0607-3.0978-2.6058-3.9644-4.4323-.1216-.2563-.2324-.5072-.3331-.7494-.4003-.9625-1.31388-.9625-1.71428 0-.1007.2421-.21145.4929-.33294.749-.88125 1.8575-2.31059 3.3893-4.04973 4.4858-2.76274 1.7419-4.59835 4.0684-4.59835 7.5758 0 5.4424 4.47867 7.9344 9.9209 7.8896 5.3954-.0444 9.7555-2.4836 9.7555-7.8895 0-3.5435-1.8733-5.897-4.6836-7.629z" fill="url(#T)"/><path d="m15.4926 16.7395c-1.7211-1.0607-3.0978-2.6058-3.9644-4.4323-.1215-.2563-.2323-.5072-.3331-.7494-.4003-.9625-1.31384-.9625-1.71423 0-.1007.2421-.21145.4929-.33294.749-.11702.2467-.24439.4872-.38024.7222.8662 1.5116 2.09681 2.7927 3.58601 3.7105 2.8103 1.732 4.6836 4.0855 4.6836 7.6289 0 4.9144-3.6033 7.3767-8.31196 7.8173.55153.0528 1.11788.0769 1.69526.0722 5.3955-.0444 9.7556-2.4836 9.7556-7.8895 0-3.5434-1.8733-5.8969-4.6836-7.6289z" fill="url(#V)"/><path d="m14.2866 16.7395c-1.3183-1.0607-2.3729-2.6058-3.0367-4.4323-.0931-.2563-.178-.5072-.2551-.7494-.1533-.4812-.405-.7219-.6566-.7219.1127 0 .2252.2407.2938.7219.0346.2422.0726.4931.1142.7494.2971 1.8265.7691 3.3716 1.359 4.4323.9634 1.732 1.6056 4.0855 1.6056 7.629 0 5.4059-1.4947 7.8451-3.3442 7.8895-1.86562.0448-3.40099-2.4472-3.40091-7.8896 0-3.5074.62925-5.8339 1.57631-7.5758.59624-1.0965 1.0862-2.6283 1.38824-4.4858.04165-.2561.07956-.5069.11416-.749.0686-.4812.1811-.7219.2938-.7219-.2516 0-.50326.2407-.65659.7219-.0771.2421-.16196.4929-.25506.749-.67506 1.8575-1.76988 3.3893-3.10212 4.4858-2.11631 1.7419-3.52243 4.0684-3.52243 7.5758 0 5.4424 3.43067 7.9344 7.5995 7.8896 4.1329-.0444 7.4727-2.4836 7.4727-7.8895.0001-3.5435-1.4349-5.897-3.5876-7.629z" fill="url(#W)"/><path d="m12.1053 16.7395c-.59-1.0607-1.062-2.6058-1.359-4.4323-.0417-.2563-.0797-.5072-.1142-.7494-.1373-.9625-.4504-.9625-.5876 0-.0345.2421-.07248.4929-.11413.749-.30211 1.8575-.79208 3.3893-1.38823 4.4858-.94714 1.7418-1.57632 4.0683-1.57632 7.5757 0 5.4425 1.5353 7.9344 3.40088 7.8896 1.8496-.0444 3.3442-2.4836 3.3442-7.8895-.0001-3.5434-.6422-5.8969-1.6056-7.6289z" fill="url(#X)"/><path d="m12.1049 16.7395c-.5899-1.0607-1.0618-2.6058-1.3589-4.4323-.0417-.2563-.0797-.5072-.1142-.7494-.1373-.9625-.4505-.9625-.5876 0-.0346.2421-.07252.4929-.11417.749-.09701.5964-.21341 1.1591-.34651 1.6847-.15231.6014-.1127 1.236.11883 1.8117.13812.3432.28541.6566.44105.9363.9633 1.732 1.6055 4.0855 1.6055 7.6289 0 4.4497-1.013 6.8878-2.40271 7.6363.32259.1778.66531.2617 1.02011.2532 1.8496-.0444 3.3443-2.4836 3.3443-7.8895-.0001-3.5434-.6423-5.8969-1.6057-7.6289z" fill="url(#Y)"/><path d="m8.94165 32.1638c.38431.0552.77851.086 1.18035.0927.076.0007.1519.0014.2282.0011-.2867.0046-.56541-.0503-.83192-.1673-.1902.028-.38235.0527-.57663.0735z" fill="url(#Z)"/><path d="m14.2865 16.7395c-1.3183-1.0607-2.3729-2.6058-3.0367-4.4323-.0931-.2563-.178-.5072-.2551-.7494-.1533-.4812-.405-.7219-.6566-.7219.1127 0 .2252.2407.2938.7219.0345.2422.0726.4931.1142.7494.2749 1.6902.6998 3.1385 1.2291 4.1859.1245.0845.2503.1673.3787.2464 2.8103 1.732 4.6836 4.0855 4.6836 7.629 0 3.7003-2.043 6.0102-5.0625 7.1139-.4762.5077-1.0229.7605-1.6052.7754.0118-.0001.0233.0003.0351.0002 4.1314-.0457 7.4693-2.485 7.4693-7.8894 0-3.5436-1.435-5.8971-3.5877-7.6291z" fill="url(#aa)"/><path d="m9.93025 12.3068c.04164-.2561.07965-.5069.11415-.749.0686-.4812.1811-.7219.2938-.7219-.2516 0-.50325.2407-.65658.7219-.0771.2421-.16196.4929-.25506.749-.13412.369-.28541.7246-.45122 1.067.17381.2782.36024.5478.55867.8079.1538-.5796.28737-1.2058.39624-1.8749z" fill="url(#ab)"/><path d="m10.4049 9.84736c.9274 0 1.6793-.75185 1.6793-1.6793 0-.92744-.7519-1.67929-1.6793-1.67929-.92747 0-1.67931.75185-1.67931 1.67929 0 .92745.75184 1.6793 1.67931 1.6793z" fill="url(#ac)"/><path d="m10.3384 13.2748c.4798 0 .9392-.0482 1.3636-.1362.2663-.0552.3988-.3561.2629-.5917-.0525-.0909-.1036-.1825-.1534-.2747-.1504-.279-.2876-.5522-.4123-.8158-.4954-1.048-1.62618-1.048-2.1217 0-.12463.2635-.26173.5366-.41208.8154-.04973.0922-.10094.1837-.15349.2744-.13655.2356-.00424.5371.26243.5924.42447.088.884.1362 1.36404.1362z" fill="url(#ad)"/><path d="m20.0576 31.5816c0-.8667-.7026-1.5694-1.5694-1.5694h-16.29989c-.86675 0-1.569414.7027-1.569414 1.5694 0 .8668.702664 1.5694 1.569414 1.5694h16.29989c.8668 0 1.5694-.7026 1.5694-1.5694z" fill="url(#ae)"/><path d="m18.4879 30.0122h-3.1388c.8668 0 1.5694.7027 1.5694 1.5694 0 .8668-.7026 1.5694-1.5694 1.5694h3.1388c.8668 0 1.5695-.7026 1.5695-1.5694 0-.8667-.7027-1.5694-1.5695-1.5694z" fill="url(#af)"/></g><path d="m11.1226 3.7433v8.2293h-1.56864v-8.2293c0-.43294.35137-.78432.78434-.78432.4329 0 .7843.35138.7843.78432z" fill="url(#R)"/><path d="m15.4928 16.7395c-1.7211-1.0607-3.0978-2.6058-3.9644-4.4323-.1216-.2563-.2324-.5072-.3331-.7494-.4003-.9625-1.31388-.9625-1.71428 0-.1007.2421-.21145.4929-.33294.749-.88125 1.8575-2.31059 3.3893-4.04973 4.4858-2.76274 1.7419-4.59835 4.0684-4.59835 7.5758 0 5.4424 4.47867 7.9344 9.9209 7.8896 5.3954-.0444 9.7555-2.4836 9.7555-7.8895 0-3.5435-1.8733-5.897-4.6836-7.629z" fill="url(#T)"/><path d="m15.4926 16.7395c-1.7211-1.0607-3.0978-2.6058-3.9644-4.4323-.1215-.2563-.2323-.5072-.3331-.7494-.4003-.9625-1.31384-.9625-1.71423 0-.1007.2421-.21145.4929-.33294.749-.11702.2467-.24439.4872-.38024.7222.8662 1.5116 2.09681 2.7927 3.58601 3.7105 2.8103 1.732 4.6836 4.0855 4.6836 7.6289 0 4.9144-3.6033 7.3767-8.31196 7.8173.55153.0528 1.11788.0769 1.69526.0722 5.3955-.0444 9.7556-2.4836 9.7556-7.8895 0-3.5434-1.8733-5.8969-4.6836-7.6289z" fill="url(#V)"/><path d="m14.2866 16.7395c-1.3183-1.0607-2.3729-2.6058-3.0367-4.4323-.0931-.2563-.178-.5072-.2551-.7494-.1533-.4812-.405-.7219-.6566-.7219.1127 0 .2252.2407.2938.7219.0346.2422.0726.4931.1142.7494.2971 1.8265.7691 3.3716 1.359 4.4323.9634 1.732 1.6056 4.0855 1.6056 7.629 0 5.4059-1.4947 7.8451-3.3442 7.8895-1.86562.0448-3.40099-2.4472-3.40091-7.8896 0-3.5074.62925-5.8339 1.57631-7.5758.59624-1.0965 1.0862-2.6283 1.38824-4.4858.04165-.2561.07956-.5069.11416-.749.0686-.4812.1811-.7219.2938-.7219-.2516 0-.50326.2407-.65659.7219-.0771.2421-.16196.4929-.25506.749-.67506 1.8575-1.76988 3.3893-3.10212 4.4858-2.11631 1.7419-3.52243 4.0684-3.52243 7.5758 0 5.4424 3.43067 7.9344 7.5995 7.8896 4.1329-.0444 7.4727-2.4836 7.4727-7.8895.0001-3.5435-1.4349-5.897-3.5876-7.629z" fill="url(#W)"/><path d="m12.1053 16.7395c-.59-1.0607-1.062-2.6058-1.359-4.4323-.0417-.2563-.0797-.5072-.1142-.7494-.1373-.9625-.4504-.9625-.5876 0-.0345.2421-.07248.4929-.11413.749-.30211 1.8575-.79208 3.3893-1.38823 4.4858-.94714 1.7418-1.57632 4.0683-1.57632 7.5757 0 5.4425 1.5353 7.9344 3.40088 7.8896 1.8496-.0444 3.3442-2.4836 3.3442-7.8895-.0001-3.5434-.6422-5.8969-1.6056-7.6289z" fill="url(#X)"/><path d="m12.1049 16.7395c-.5899-1.0607-1.0618-2.6058-1.3589-4.4323-.0417-.2563-.0797-.5072-.1142-.7494-.1373-.9625-.4505-.9625-.5876 0-.0346.2421-.07252.4929-.11417.749-.09701.5964-.21341 1.1591-.34651 1.6847-.15231.6014-.1127 1.236.11883 1.8117.13812.3432.28541.6566.44105.9363.9633 1.732 1.6055 4.0855 1.6055 7.6289 0 4.4497-1.013 6.8878-2.40271 7.6363.32259.1778.66531.2617 1.02011.2532 1.8496-.0444 3.3443-2.4836 3.3443-7.8895-.0001-3.5434-.6423-5.8969-1.6057-7.6289z" fill="url(#Y)"/><path d="m8.94165 32.1638c.38431.0552.77851.086 1.18035.0927.076.0007.1519.0014.2282.0011-.2867.0046-.56541-.0503-.83192-.1673-.1902.028-.38235.0527-.57663.0735z" fill="url(#Z)"/><path d="m14.2865 16.7395c-1.3183-1.0607-2.3729-2.6058-3.0367-4.4323-.0931-.2563-.178-.5072-.2551-.7494-.1533-.4812-.405-.7219-.6566-.7219.1127 0 .2252.2407.2938.7219.0345.2422.0726.4931.1142.7494.2749 1.6902.6998 3.1385 1.2291 4.1859.1245.0845.2503.1673.3787.2464 2.8103 1.732 4.6836 4.0855 4.6836 7.629 0 3.7003-2.043 6.0102-5.0625 7.1139-.4762.5077-1.0229.7605-1.6052.7754.0118-.0001.0233.0003.0351.0002 4.1314-.0457 7.4693-2.485 7.4693-7.8894 0-3.5436-1.435-5.8971-3.5877-7.6291z" fill="url(#aa)"/><path d="m9.93025 12.3068c.04164-.2561.07965-.5069.11415-.749.0686-.4812.1811-.7219.2938-.7219-.2516 0-.50325.2407-.65658.7219-.0771.2421-.16196.4929-.25506.749-.13412.369-.28541.7246-.45122 1.067.17381.2782.36024.5478.55867.8079.1538-.5796.28737-1.2058.39624-1.8749z" fill="url(#ab)"/><path d="m10.4049 9.84687c.9274 0 1.6793-.75184 1.6793-1.67929s-.7519-1.6793-1.6793-1.6793c-.92747 0-1.67931.75185-1.67931 1.6793s.75184 1.67929 1.67931 1.67929z" fill="url(#ag)"/><path d="m10.3384 13.2748c.4798 0 .9392-.0482 1.3636-.1362.2663-.0552.3988-.3561.2629-.5917-.0525-.0909-.1036-.1825-.1534-.2747-.1504-.279-.2876-.5522-.4123-.8158-.4954-1.048-1.62618-1.048-2.1217 0-.12463.2635-.26173.5366-.41208.8154-.04973.0922-.10094.1837-.15349.2744-.13655.2356-.00424.5371.26243.5924.42447.088.884.1362 1.36404.1362z" fill="url(#ad)"/><path d="m20.0576 31.5816c0-.8667-.7026-1.5694-1.5694-1.5694h-16.29989c-.86675 0-1.569414.7027-1.569414 1.5694 0 .8668.702664 1.5694 1.569414 1.5694h16.29989c.8668 0 1.5694-.7026 1.5694-1.5694z" fill="url(#ae)"/><path d="m18.4882 30.0122h-3.1388c.8667 0 1.5694.7027 1.5694 1.5694 0 .8668-.7027 1.5694-1.5694 1.5694h3.1388c.8667 0 1.5694-.7026 1.5694-1.5694 0-.8667-.7027-1.5694-1.5694-1.5694z" fill="url(#ah)"/><path d="m32 4.61261v6.25359h-2v-6.25359c0-.41201.448-.7464 1-.7464s1 .33439 1 .7464z" fill="url(#ai)"/><path d="m31 12.8662c1.1046 0 2-.8954 2-2 0-1.10456-.8954-1.99999-2-1.99999s-2 .89543-2 1.99999c0 1.1046.8954 2 2 2z" fill="url(#aj)"/><path d="m26.0957 3.34638c-.6997-.44562-1.2595-1.09472-1.6118-1.86209-.0494-.10767-.0945-.21305-.1354-.3148-.1628-.404374-.5343-.404374-.697 0-.0409.10167-.086.20705-.1354.31464-.3583.7804-.9394 1.4239-1.6465 1.8846-1.1233.73182-1.8696 1.70915-1.8696 3.18273 0 2.28645 1.821 3.33338 4.0336 3.3145 2.1937-.01864 3.9664-1.04337 3.9664-3.3145 0-1.48867-.7617-2.47738-1.9043-3.20508z" fill="url(#ak)"/><path d="m26.1044 3.3586c-.6606-.42167-1.2132-1.00434-1.5649-1.71703-.08-.16226-.1502-.3212-.2112-.47208-.1637-.404373-.5372-.404373-.7009 0-.0411.10167-.0864.20705-.1361.31464-.0013.00284-.0026.00569-.0039.00853-.2674.57572-.1206 1.26795.3783 1.64744.0959.07291.1949.14172.2968.20633 1.1489.72763 1.9148 1.71641 1.9148 3.20499 0 1.94817-1.312 2.97842-3.0773 3.24408.3239.05009.6629.07339 1.0117.07047 2.2058-.01865 3.9883-1.04337 3.9883-3.31447 0-1.48045-.7573-2.46638-1.8956-3.1929z" fill="url(#al)"/></svg>