<svg fill="none" height="41" viewBox="0 0 40 41" width="40" xmlns="http://www.w3.org/2000/svg" xmlns:xlink="http://www.w3.org/1999/xlink"><clipPath id="a"><path d="m0 .866211h40v40h-40z"/></clipPath><clipPath id="b"><path d="m0 .866211h40v40h-40z"/></clipPath><g clip-path="url(#a)"><g clip-path="url(#b)"><path d="m40.0003 20.8663c0 3.0982-.7109 6.0304-1.9784 8.6423-3.2109 6.6171-9.9942 9.5467-17.843 9.5467-10.94709 0-17.87812-7.2419-17.87812-18.189 0-6.8419 1.52329-12.87418 6.79578-16.4362 3.16344-2.13721 6.97724-3.38518 11.08234-3.38518 10.9471 0 19.8214 8.8743 19.8214 19.82138z" fill="#2477f9"/><path d="m26.9564 32.8831c-10.9471 0-19.82139-8.8743-19.82139-19.8213 0-3.09862.71155-6.03071 1.97934-8.64285-5.28236 3.56046-8.756928 9.59785-8.756928 16.44725 0 10.9471 8.874298 19.8213 19.821378 19.8213 7.8488 0 14.6319-4.562 17.8428-11.179-3.1602 2.1304-6.9672 3.3746-11.0652 3.3746z" fill="#0360e8"/><path d="m4.67321 8.5197c-.32476.40731-.6342.82736-.92663 1.25994 10.44272 4.49606 22.31812 4.42386 32.71462-.21726-.2983-.42884-.6125-.84564-.9428-1.2489-9.8226 4.27952-20.9799 4.34882-30.84519.20622z" fill="#b2dbfe"/><path d="m8.70542 15.5632c1.54118-1.3466 2.96488-2.7696 4.26388-4.2551.4054-.4701.1145-1.1825-.5044-1.3032-2.4549-.48148-4.87306-1.20593-7.21843-2.17189-.25154.28791-.49382.58407-.72865.88628v6.84391z" fill="#6e64c3"/><path d="m7.80061 15.1986c-.54303.4011-1.53542.0693-1.72959-.5785-.61556-2.0217-1.09096-4.0466-1.43064-6.05955-.84556 1.06608-1.58361 2.22105-2.198 3.44885.33199 1.8384.77747 3.6857 1.33907 5.5302.19417.6478 1.18656.9796 1.72959.5785 2.81005-2.054 5.30436-4.347 7.45846-6.8102.1704-.1977.2165-.438.1682-.6593-1.6247 1.6147-3.40641 3.1387-5.33709 4.55z" fill="#5046af"/><path d="m25.1845 10.3512c-2.5358.3552-5.0991.4544-7.6506.2999 0 0 .0044.5551.0112 1.3489.0262 3.0386 2.4971 5.4886 5.5358 5.4886 1.1696-1.9858 2.1725-4.0163 3.0054-6.0704.2295-.5767-.2787-1.155-.9018-1.067z" fill="#fa870a"/><path d="m23.2653 16.8028c-.3777.5567-1.4116.5683-1.8017.0204-1.4362-1.9977-2.6903-4.06-3.7614-6.162-.7725-.0434-1.5439-.1093-2.3133-.1993-.6246-.0739-1.1191.5158-.877 1.0872 1.2964 3.0027 2.9608 5.9462 4.985 8.7617.3902.5479 1.424.5364 1.8017-.0203 1.1925-1.7402 2.2502-3.525 3.1732-5.3384-.3858.6218-.7873 1.2391-1.2065 1.8507z" fill="#fa690f"/><path d="m34.936 7.63525c-1.4116.60351-2.8507 1.11863-4.3093 1.54529 0 2.80186 2.2714 5.07326 5.0733 5.07326h1.8137c.1599-.7311.3031-1.4613.4275-2.19-.8008-1.6131-1.8146-3.10152-3.0052-4.42855z" fill="#fff5aa"/><path d="m36.4293 13.9307c-2.0881-1.4659-4.0078-3.0638-5.7507-4.76615-.9073.2667-1.8221.50035-2.7427.69857-.6171.13214-.8952.84978-.481 1.31238 2.2001 2.423 4.7381 4.6693 7.5884 6.6702.5509.3908 1.5385.0401 1.7211-.6114.3122-1.0949.5834-2.19.8154-3.2831-.37.1834-.8328.2049-1.1505-.0205z" fill="#ffe65a"/><path d="m39.2934 28.469c-13.7565 3.9568-28.5868.4021-39.054629-9.3611-.3082027-.2875-.3192405-.7728-.026117-1.0754.003498-.0037.007073-.0074.010571-.011.286205-.2955.755622-.3061 1.056515-.0255 10.07576 9.3961 24.34916 12.8174 37.58976 9.01.3954-.1137.8091.1085.9302.5017.0014.0048.0029.0097.0045.0145.124.4028-.1058.8303-.5108.9468z" fill="#b2dbfe"/><path d="m12.0672 24.2014c-2.57307-1.1767-5.02805-2.6447-7.31435-4.3899l-.31193.312v8.2602c-.00008 0 8.19998-3.9208 7.62628-4.1823z" fill="#6e64c3"/><path d="m12.0673 24.2011c-.0078-.0036-.0155-.0073-.0233-.0108-1.7919 1.0558-3.69024 2.0084-5.68575 2.8426-.62153.2635-1.5093-.2906-1.54707-.9657-.1267-2.0996-.118-4.17.01881-6.1976-.3955-.3003-.78656-.6079-1.17172-.9248-.49677-.4096-1.2398-.1889-1.33938.4281-.50307 3.2549-.66234 6.6536-.45239 10.1316.03785.6752.92554 1.2292 1.54708.9657 3.21137-1.3425 6.17152-2.9909 8.84042-4.8841.5038-.3628.387-1.1234-.1867-1.385z" fill="#5046af"/><path d="m24.3554 27.503c-2.6041-.251-5.1739-.7682-7.6689-1.5401l1.3597 6.3155c.1154.5361.5213.9624 1.0511 1.1041.4926.1316 1.0175-.0026 1.3861-.3549 1.3577-1.2978 3.6563-3.0958 4.5003-4.2767.3575-.5075-.0019-1.1882-.6283-1.2479z" fill="#fa870a"/><path d="m20.5369 32.3126c-.497.4533-1.5051.2236-1.7568-.4002-.8021-1.962-1.4615-3.939-1.9817-5.9157-.6704-.2052-1.3357-.4276-1.9945-.6694-.5901-.2173-1.2086.2408-1.1062.8529.5608 3.2222 1.4932 6.4726 2.8054 9.6823.2517.6238 1.2598.8535 1.7569.4002 2.573-2.3248 4.8218-4.8505 6.7239-7.512.2228-.3162.1671-.6996-.058-.9582-1.3361 1.5729-2.8005 3.085-4.389 4.5201z" fill="#fa690f"/><path d="m35.5341 33.9701c1.0072-2.1054 1.8434-4.2423 2.5062-6.3892.1805-.5987-.3927-1.1212-1.0198-.9694-2.3971.578-4.8213.9173-7.2407 1.0276v.5766c-.0001 3.1781 2.5762 5.7544 5.7543 5.7544z" fill="#fff5aa"/><path d="m34.2143 33.3826c-1.6269-1.8419-3.0731-3.7667-4.3375-5.7483-.9117.0438-1.8228.0563-2.7315.0351-.6309-.0153-1.0686.6177-.7737 1.1641 1.5748 2.8691 3.5193 5.6451 5.8246 8.2552.4446.5085 1.4868.3976 1.8163-.1933.6353-1.1278 1.2199-2.2681 1.7538-3.4172-.4489.3211-1.194.3139-1.552-.0956z" fill="#ffe65a"/><g fill="#b2dbfe"><path d="m26.6817 18.4077c.3646 1.3397 1.4112 2.3863 2.7508 2.7508-1.3396.3646-2.3862 1.4112-2.7508 2.7508-.3645-1.3396-1.4111-2.3862-2.7508-2.7508 1.3397-.3645 2.3863-1.4111 2.7508-2.7508z"/><path d="m33.3367 22.356c.239.8783.9252 1.5644 1.8035 1.8035-.8783.239-1.5645.9251-1.8035 1.8035-.239-.8784-.9251-1.5645-1.8035-1.8035.8784-.2391 1.5646-.9252 1.8035-1.8035z"/><path d="m18.8228 4.95361c.239.87836.9251 1.56449 1.8035 1.80351-.8784.23903-1.5645.92516-1.8035 1.80351-.239-.87835-.9252-1.56448-1.8035-1.80351.8783-.2391 1.5645-.92523 1.8035-1.80351z"/><path d="m11.3521 30.3633c.239.8783.9251 1.5645 1.8035 1.8035-.8784.239-1.5645.9251-1.8035 1.8035-.239-.8784-.9252-1.5645-1.80352-1.8035.87832-.239 1.56452-.9252 1.80352-1.8035z"/></g></g></g></svg>