<svg fill="none" height="41" viewBox="0 0 40 41" width="40" xmlns="http://www.w3.org/2000/svg" xmlns:xlink="http://www.w3.org/1999/xlink"><clipPath id="a"><path d="m0 .866211h40v40h-40z"/></clipPath><clipPath id="b"><path d="m0 .866211h40v40h-40z"/></clipPath><g clip-path="url(#a)"><g clip-path="url(#b)"><path d="m19.9999.944336c-4.7357 0-8.3503 1.646884-10.42925 2.911704-1.60884 1.32509-2.61487 3.24775-2.77111 5.3261-.02411.32102-.03758.62873-.03758.91336 0 11.0241 9.29654 19.9587 20.32064 19.9587 4.2451 0 8.9681-2.0346 12.1291-4.4809.0707-.0547.295-.4224.295-.4224.0139-.0851.454-1.8377.454-4.2457.0001-11.02411-8.9367-19.960864-19.9608-19.960864z" fill="#afe6ff"/><path d="m39.4296 25.489c.0264-.1124.0526-.2249.0771-.3381-.1443.1149-.2908.2271-.4383.3381z" fill="#73c8f0"/><path d="m7.11999 9.52989c0-.17683.00234-.35311.00688-.52877l-3.0879-.08266c-.85957 1.14264-1.59938 2.38044-2.20063 3.69484-.01581.0346-.03045.0698-.0461.1044h5.58223c-.16666-1.0382-.25448-2.1026-.25448-3.18781z" fill="#73c8f0"/><path d="m37.337 15.6428c-.4266-1.3269-1.7115-2.2048-3.0928-2.1348-.5303.0269-1.0525-.1716-1.4231-.5519-.7755-.796-1.8587-1.2906-3.0578-1.2906-1.5039 0-2.826.7774-3.5867 1.9522-.4761.7351-1.2367 1.2544-2.1063 1.3586-1.1798.1414-2.2046 1.1252-2.2046 2.473 0 1.9858 2.0599 2.966 3.5662 2.2548.7732-.365 1.6691-.3203 2.4352.0592 1.2497.6191 2.751.5957 3.9913-.1047.4773-.2695 1.0454-.3057 1.5655-.1329.6184.2057 1.2846.2085 1.8998.0152.3932-.1235.8202-.1241 1.1975.0418 1.0713.4712 2.4226-.2762 2.4226-1.5888 0-.6557-.365-1.225-.9028-1.518-.3317-.1806-.5885-.4735-.704-.8331z" fill="#fff"/><path d="m18.5531 4.99097c.4265-1.32689 1.7115-2.20477 3.0928-2.13479.5303.02685 1.0525-.17159 1.4231-.55194.7754-.79601 1.8587-1.29057 3.0578-1.29057 1.5039 0 2.8259.77738 3.5867 1.95217.4761.73511 1.2367 1.25441 2.1063 1.3586 1.1798.14144 2.2045 1.12524 2.2045 2.47303 0 1.98575-2.0599 2.96595-3.5662 2.25479-.7731-.36501-1.669-.32031-2.4351.05918-1.2498.6191-2.751.5957-3.9914-.10473-.4772-.26944-1.0453-.30568-1.5654-.13284-.6185.20563-1.2846.20845-1.8999.01518-.3932-.12352-.8201-.12415-1.1974.0418-1.0714.47116-2.4226-.27624-2.4226-1.5888 0-.65566.365-1.22497.9028-1.51797.3317-.18058.5884-.4735.704-.83311z" fill="#e1faff"/><path d="m4.04004 8.91946c.26262.03632.52125.11608.76423.2364 1.04375.51702 2.29745.49753 3.33338-.08744.39851-.22505.87296-.25526 1.30732-.11092.71503.23773 1.50643.15092 2.15563-.24579.9075.88618 2.4543.24971 2.4543-1.03358 0-.54756-.3049-1.02302-.754-1.26771-.2769-.15092-.4913-.39554-.5878-.69581-.3562-1.10818-1.4293-1.84134-2.583-1.78294-.19112.00971-.38039-.01769-.55934-.07522-1.29276.78653-1.99217 1.42544-1.99718 1.42825-1.32603 1.05652-2.51358 2.27899-3.53354 3.63476z" fill="#fff"/><path d="m26.2337 22.5807h-11.0062l3.8992-19.49672 7.107 4.04258z" fill="#2896ff"/><path d="m19.1267 3.08406-3.8992-2.217849v21.714589h3.8992z" fill="#2477f9"/><path d="m16.6432 4.02122-.1205-.02513v32.64451h11.8588v-25.6644z" fill="#2477f9"/><path d="m16.6434 36.523v-32.50191l-3.2883-1.94834c-.7448.26051-1.4254.54717-2.0365.83891v31.93604l3.6962 5.3907c1.5934.4098 3.2639.6278 4.9852.6278 2.9836 0 5.8258-.6586 8.3817-1.8431v-2.5001z" fill="#0360e8"/><path d="m16.6434 4.93588v-.91476l-5.3248-3.154909v4.069669z" fill="#0360e8"/><path d="m2.63184 11.0637v2.6012h9.74496v-3.0506h-9.48226c-.08963.1485-.17699.2984-.2627.4494z" fill="#5046af"/><path d="m9.46223 36.7782h5.55247v-24.1649h-10.21197v19.8246c.92353 1.0834 3.52689 3.4753 4.6595 4.3403z" fill="#6e64c3"/><path d="m10.4136 36.707-.96658 1.1433c1.70138 1.0622 3.57398 1.8755 5.56758 2.3881v-3.5314z" fill="#5046af"/><path d="m1.83851 12.6133c-1.15522 2.5254-1.7994475 5.3334-1.7994475 8.2919 0 3.6124.9596865 7.0005 2.6379675 9.9237l2.21197-2.9967v-15.2189z" fill="#5046af"/><path d="m12.3767 34.2324-6.48681.5369.57863-19.1868h5.90818z" fill="#6cdcfe"/><path d="m6.46863 34.2324v-18.6499h-3.79163v6.9721l1.06654 2.3993-1.06654 2.7746v1.6366l.65409 2.5248c1.60086 2.424 3.71671 4.4777 6.19116 6.0069h2.85455v-3.6644z" fill="#06b3ff"/><path d="m12.3767 16.9443-5.90823 3.4173-1.11593 4.3145 1.11593.8594 5.90823-3.4172z" fill="#e1faff"/><path d="m2.677 22.5549v5.1739l3.79163-2.193v-5.174z" fill="#a0ebff"/><path d="m12.377 23.7549-5.90822 3.4172-1.05667 2.772 1.05667.2101 5.90822-3.4172z" fill="#e1faff"/><path d="m2.677 30.8291c.21863.3808.45033.7531.69276 1.1177l3.09887-1.7924v-2.982l-3.79163 2.193z" fill="#a0ebff"/><g fill="#004dd6"><path d="m16.3594 20.2314h2.4601v.8274h-2.4601z"/><path d="m20.3071 20.2314h2.4602v.8274h-2.4602z"/><path d="m24.2551 20.2314h2.4602v.8274h-2.4602z"/><path d="m16.3594 28.8242h2.4601v.7046h-2.4601z"/><path d="m20.3071 28.8242h2.4602v.7046h-2.4602z"/><path d="m24.2551 28.8242h2.4602v.7046h-2.4602z"/></g><path d="m16.3594 12.6133h2.4601v7.7409h-2.4601z" fill="#1e2d64"/><path d="m18.8195 15.5444-2.4601.9394v1.6794l2.4601-.9394z" fill="#2a417f"/><path d="m20.3074 12.6133h2.4601v7.7409h-2.4601z" fill="#05cdff"/><path d="m22.7676 15.5444-2.4602.9394v1.6794l2.4602-.9394z" fill="#6ee1ff"/><path d="m24.2554 12.6133h2.4601v7.7409h-2.4601z" fill="#05cdff"/><path d="m26.7156 15.5444-2.4602.9394v1.6794l2.4602-.9394z" fill="#6ee1ff"/><path d="m16.3594 21.0835h2.4601v7.7409h-2.4601z" fill="#05cdff"/><path d="m18.8195 24.5415-2.4601.9393v1.6795l2.4601-.9394z" fill="#6ee1ff"/><path d="m20.3074 21.0835h2.4601v7.7409h-2.4601z" fill="#1e2d64"/><path d="m22.7676 24.5415-2.4602.9393v1.6795l2.4602-.9394z" fill="#2a417f"/><path d="m24.2554 21.0835h2.4601v7.7409h-2.4601z" fill="#05cdff"/><path d="m26.7156 24.5415-2.4602.9393v1.6795l2.4602-.9394z" fill="#6ee1ff"/><path d="m33.7798 10.9761h.7828v13.0691h-.7828z" fill="#fa870a"/><path d="m16.3594 29.5537h2.4601v7.7409h-2.4601z" fill="#05cdff"/><path d="m18.8195 33.5381-2.4601.9394v1.6794l2.4601-.9394z" fill="#6ee1ff"/><path d="m33.7798 21.2402h.7828v2.8052h-.7828z" fill="#fa690f"/><path d="m20.3074 29.5537h2.4601v7.7409h-2.4601z" fill="#1e2d64"/><path d="m22.7676 33.5381-2.4602.9394v1.6794l2.4602-.9394z" fill="#2a417f"/><path d="m24.2554 29.5537h2.4601v7.7409h-2.4601z" fill="#05cdff"/><path d="m26.7156 33.5381-2.4602.9394v1.6794l2.4602-.9394z" fill="#6ee1ff"/><path d="m32.8857 22.5811h5.0085v4.1589h-5.0085z" fill="#fa870a"/><path d="m30.4482 22.5811h2.6044v4.1589h-2.6044z" fill="#fa690f"/><path d="m31.6211 25.3506v10.6774l.8713.4422c.2226-.1788.4414-.3622.6561-.5503l2.0448-2.0708c.2255-.2643.4442-.5345.6561-.8106l2.0443-3.2807c.6851-1.3829 1.2155-2.859 1.5675-4.4071h-7.8401z" fill="#ffa50a"/><path d="m28.3816 25.3506v13.6727c.7124-.3301 1.4024-.7012 2.0672-1.1102l1.2147-10.1064v-2.456h-3.2819z" fill="#fa870a"/><path d="m30.4482 37.9124c.7121-.4382 1.3942-.9206 2.044-1.4424v-9.2044h-2.044z" fill="#ffe65a"/><path d="m35.1931 33.8489v-6.5833h-2.0439v8.6551c.7301-.6395 1.413-1.3323 2.0439-2.0718z" fill="#ffe65a"/><path d="m35.8499 33.039c.7816-1.0193 1.4674-2.1172 2.0439-3.2812v-2.4922h-2.0439z" fill="#ffe65a"/><path d="m35.8501 32.0804.9884-.4526c.3839-.6016.7365-1.2256 1.0556-1.87v-2.4839l-2.0439.9361v3.8704z" fill="#fff5aa"/><path d="m33.1492 34.0218 2.044-.936v-3.8705l-2.044.9361z" fill="#fff5aa"/><path d="m30.4482 36.6678 2.044-.936v-3.8705l-2.044.9361z" fill="#fff5aa"/></g></g></svg>