<svg fill="none" height="40" viewBox="0 0 40 40" width="40" xmlns="http://www.w3.org/2000/svg"><path d="m40 20c0 2.4789-.4508 4.8516-1.2758 7.0422l-2.5047 1.7328c-9.7586 6.7539-22.6804 6.7539-32.43903 0l-2.50391-1.7328h-.00078c-.824999-2.1906-1.27578-4.5633-1.27578-7.0422 0-11.04531 8.95469-20 20-20 11.0453 0 20 8.95469 20 20z" fill="#92eaff"/><path d="m40 20c0 2.4789-.4508 4.8516-1.2758 7.0422l-.0008.0008-2.5039 1.732c-9.7586 6.7539-22.6804 6.7539-32.43903 0l-2.50391-1.7328h-.00078c-.824999-2.1906-1.27578-4.5641-1.27578-7.0422 0-3.6109.957031-6.9977 2.63125-9.9219 3.44687 6.0211 9.93435 10.0782 17.36875 10.0782s13.9219-4.0571 17.3688-10.0782c1.6742 2.9242 2.6312 6.311 2.6312 9.9219z" fill="#63dbfa"/><path d="m39.9999 20.0001c0 1.3164-.1273 2.6023-.3695 3.8469-.2148 1.1-.5203 2.1679-.9063 3.1953l-2.5046 1.7328c-9.7586 6.7539-22.6805 6.7539-32.43913 0l-.75547-.5228c-1.24093-.8588-2.134372-2.1402-2.482419-3.6086-.001953-.0083-.003906-.0166-.00586-.0248-.160937-.6766-.286719-1.3665-.375781-2.068-.047656-.3766-.0851564-.757-.1117189-1.1399-.0117187-.164-.0210938-.3289-.028125-.4945 1.1789039-.3992 2.5000039-.4148 3.7500039-.257 1.68984.2133 3.3375.7101 5.0336.864 2.8852.2618 5.7898-.4789 8.6781-.2429.8469.0687 1.6836.2211 2.5172.4031 2.1836.4773 4.3391 1.1594 6.5633 1.0852 3.068-.1016 5.8774-1.6211 8.7227-2.7711 1.4812-.5985 3.0867-1.0969 4.675-1.2493.0218.3493.0343.7008.0382 1.0547.0008.0656.0008.1313.0008.1969z" fill="#d1f6ff"/><path d="m40 20.0001c0 1.3164-.1273 2.6023-.3695 3.8469-.2149 1.1-.5203 2.1679-.9063 3.1953l-2.5047 1.7328c-4.8789 3.3766-10.5492 5.0656-16.2195 5.0656v-12.157c2.1836.4773 4.3391 1.1594 6.5633 1.0852 3.068-.1016 5.8773-1.6211 8.7226-2.7711 1.4813-.5985 3.0868-1.0969 4.675-1.2493.0219.3493.0344.7008.0383 1.0547.0008.0656.0008.1313.0008.1969z" fill="#c5f2f9"/><path d="m39.6304 23.8472c-.2149 1.1-.5203 2.1679-.9063 3.1953l-2.5047 1.7328c-9.7586 6.7539-22.6804 6.7539-32.43903 0l-.75547-.5228c-1.24094-.8588-2.134373-2.1402-2.48242-3.6086-.001953-.0083-.003906-.0166-.005859-.0249.45.0016.900779.0164 1.342189.0391 1.76094.0898 3.47812.3008 5.24609.3656 3.0078.111 6.0344-.2031 9.0445-.1031 1.2914.043 2.5625.1617 3.8305.2844 1.8672.1812 3.7266.3726 5.6344.3469 3.1976-.0438 6.125-.6868 9.0914-1.1743 1.5539-.2547 3.239-.4679 4.9047-.5304z" fill="#fff"/><path d="m39.6305 23.8472c-.2149 1.1-.5203 2.1679-.9063 3.1953l-2.5047 1.7328c-4.8789 3.3766-10.5492 5.0656-16.2195 5.0656v-8.6359c1.8672.1812 3.7266.3726 5.6344.3469 3.1976-.0438 6.125-.6868 9.0914-1.1743 1.5539-.2547 3.239-.4679 4.9047-.5304z" fill="#dff7fd"/><path d="m38.7243 27.0425c-.8875 2.3601-2.2094 4.5086-3.8672 6.3469-.0274.0304-.0555.0609-.0828.0914-.4477.4898-.9188.9578-1.4125 1.4007h-.1227c-.3867 0-.7008.3141-.7008.7008-.1883.1516-.3789.3-.5726.4446-3.3219 2.4843-7.4407 3.9593-11.9039 3.9734h-.0618c-5.8515 0-11.11636-2.5133-14.77417-6.5195-1.12969-1.2375-2.10625-2.6172-2.89844-4.1102-.25468-.4789-.49062-.9703-.70625-1.4719-.12187-.282-.23672-.5672-.34453-.8562z" fill="#ffc0a4"/><path d="m38.7242 27.0425c-.9023 2.3992-2.2531 4.5797-3.95 6.4383-.4476.4898-.9187.9578-1.4125 1.4007h-.1226c-.3868 0-.7008.3141-.7008.7008-.1883.1516-.3789.3-.5727.4446-3.3218 2.4843-7.4406 3.9593-11.9039 3.9734h-.0617v-12.9578z" fill="#ffa87a"/><path d="m34.857 33.3894c-.0274.0304-.0555.0609-.0828.0914-.8532.9343-1.7938 1.7875-2.8086 2.5461-3.3219 2.4843-7.4406 3.9593-11.9039 3.9734h-.0617c-5.8516 0-11.11646-2.5133-14.77427-6.5195-1.12968-1.2375-2.10625-2.6172-2.89843-4.1102-.25469-.4789-.49063-.9703-.70626-1.4719-.72187-1.6757-1.221089-3.4711-1.460151-5.3476.853121-.1594 1.809371.018 2.584371.4359 1.30938.7055 2.24532 1.9266 3.22032 3.0508s2.10937 2.2313 3.55937 2.5641c1.82035.4172 3.93825-.4321 5.48825.6093 1.161.7797 1.6047 2.4149 2.875 3.0008.6696.3086 1.3821.2508 2.1118.0953 1.0539-.225 2.1445-.6539 3.196-.4773 1.0672.1789 1.9297.957 2.9407 1.3437 1.8047.6907 3.6172.0383 5.4336-.1843 1.2484-.1532 2.282-.0852 3.2867.4z" fill="#7e7f92"/><path d="m34.857 33.3895c-.0273.0305-.0554.061-.0828.0914-.4476.4899-.9187.9579-1.4125 1.4008h-.1226c-.3868 0-.7008.3141-.7008.7008-.1883.1516-.3789.3-.5727.4445-3.3218 2.4844-7.4406 3.9594-11.9039 3.9735h-.0617v-7.693c1.0539-.225 2.1445-.6539 3.1961-.4773 1.0672.1789 1.9297.957 2.9406 1.3437 1.8047.6906 3.6172.0383 5.4336-.1844 1.2485-.1531 2.282-.0851 3.2867.4z" fill="#6e6f83"/><path d="m31.9656 36.0265c-3.3218 2.4844-7.4406 3.9594-11.9039 3.9735h-.0617c-5.8516 0-11.11641-2.5133-14.77422-6.5195-1.12969-1.2375-2.10625-2.6172-2.89844-4.1102-.25468-.4789-.49062-.9703-.70625-1.4719.82032.2727 1.58125.718 2.20235 1.3227.88672.8641 1.52265 2.0226 2.61093 2.6117 2.20469 1.1922 5.24533-.4586 7.32583.9375.9757.6539 1.5023 1.8578 2.5296 2.4266 1.1211.621 2.4086.307 3.7102.0023 1.1172-.2609 2.2445-.5156 3.2875-.1664 1.1164.3734 1.9609 1.3984 3.118 1.6148 1.1351.2125 2.2414-.4047 3.3718-.6422.7196-.1507 1.4711-.1398 2.1883.0211z" fill="#6e6f83"/><path d="m18.9331 6.43752c0 1.53531-1.2448 2.78016-2.7801 2.78016-1.536 0-2.7802-1.24485-2.7802-2.78016 0-1.53594 1.2442-2.78078 2.7802-2.78078 1.5353 0 2.7801 1.24484 2.7801 2.78078z" fill="#fff9bb"/><path d="m18.9332 6.43752c0 1.53531-1.2448 2.78016-2.7801 2.78016v-5.56094c1.5353 0 2.7801 1.24484 2.7801 2.78078z" fill="#ffeb98"/><path d="m4.46189 16.0867c0-.0058-.00046-.0115-.00046-.0173 0-1.0573.8571-1.9144 1.91445-1.9144.25117 0 .49086.0489.71062.1368.42453-.7606 1.2368-1.2752 2.16969-1.2752 1.21141 0 2.21971.8676 2.43881 2.0152.0653-.0094.1321-.0145.1999-.0145.6587 0 1.2105.4559 1.358 1.0694z" fill="#fff"/><path d="m6.32982 16.0866c0-.0034-.00023-.0066-.00023-.0099 0-.608.49289-1.1009 1.10086-1.1009.14445 0 .28226.0281.40859.0787.24414-.4374.71117-.7332 1.24758-.7332.69656 0 1.27638.4988 1.40238 1.1587.0376-.0054.076-.0083.115-.0083.3788 0 .6961.2622.7809.6149z" fill="#dff7fd"/><path d="m33.0986 8.17469c0-.00625.0005-.01242.0005-.01867 0-1.14383-.9273-2.0711-2.071-2.0711-.2718 0-.531.05289-.7688.14805-.4593-.82274-1.338-1.37945-2.3472-1.37945-1.3105 0-2.4013.93851-2.6383 2.18-.0707-.01016-.1428-.01571-.2164-.01571-.7125 0-1.3095.49328-1.469 1.1568h9.5102z" fill="#fff"/><path d="m31.078 8.17482c0-.00359.0002-.00711.0002-.0107 0-.65773-.5332-1.19086-1.1909-1.19086-.1562 0-.3053.03039-.442.08508-.264-.47313-.7694-.7932-1.3497-.7932-.7536 0-1.3808.53968-1.5171 1.25359-.0406-.00578-.0821-.00898-.1244-.00898-.4096 0-.7529.28359-.8447.66523h5.4686z" fill="#dff7fd"/><path d="m35.9707 16.6688c0-.0044.0003-.0087.0003-.0131 0-.7987-.6475-1.4462-1.4462-1.4462-.1897 0-.3707.037-.5368.1034-.3207-.5745-.9343-.9633-1.6389-.9633-.9152 0-1.6768.6554-1.8424 1.5223-.0494-.0071-.0998-.011-.151-.011-.4976 0-.9144.3445-1.0259.8079z" fill="#fff"/><path d="m34.5595 16.669c0-.0025.0001-.005.0001-.0075 0-.4593-.3723-.8316-.8315-.8316-.1092 0-.2132.0213-.3087.0595-.1844-.3304-.5373-.554-.9425-.554-.5263 0-.9642.3769-1.0594.8754-.0283-.0041-.0573-.0064-.0869-.0064-.286 0-.5257.1981-.5899.4646z" fill="#dff7fd"/><path d="m33.3617 34.8815c-.268.2414-.543.475-.8235.7007-1.1726-.6445-2.2539-1.4937-3.2195-2.5375-2.2055-2.382-3.7633-5.6851-4.5055-9.5508-.0523-.2757.1282-.5414.4032-.5945.2757-.0531.5421.1274.5945.4031.7062 3.6789 2.1766 6.8094 4.2531 9.0524.9945 1.075 2.0961 1.918 3.2977 2.5266z" fill="#a44e3e"/><path d="m25.3123 23.3986c-.8735-1.2142-2.3713-1.9189-3.957-1.7047-1.5857.2143-2.8428 1.2912-3.3626 2.6937z" fill="#43af3e"/><path d="m25.3122 23.3985c.241-1.4763-.3198-3.0337-1.5926-4.0035-1.2728-.9697-2.9232-1.0971-4.2826-.4729z" fill="#00a23e"/><path d="m25.312 23.3984c.5199-1.4025 1.777-2.4795 3.3627-2.6938 1.5857-.2142 3.0836.4905 3.9569 1.7048z" fill="#00a23e"/><path d="m25.3122 23.3985c-.6242-1.3593-.4968-3.0098.473-4.2825.9697-1.2728 2.5272-1.8336 4.0034-1.5926z" fill="#008839"/><path d="m25.312 23.3984c.8416-.3864 1.8634-.3075 2.6514.2928.788.6004 1.1352 1.5647.986 2.4786z" fill="#008839"/><path d="m25.3122 23.3986c-.9139-.1492-1.8782.1979-2.4786.9859s-.6792 1.8098-.2928 2.6514z" fill="#00a23e"/><path d="m34.811 33.4409c-1.1641-1.1156-2.1352-2.4554-2.8883-3.9976-1.5766-3.2266-2.1734-7.2227-1.7266-11.5571.0289-.2789.2774-.4812.5571-.4523.2789.0281.482.2781.4531.557-.4274 4.1446.1359 7.9508 1.6289 11.0071.7 1.4328 1.5797 2.6617 2.632 3.682z" fill="#a44e3e"/><path d="m30.7011 17.9385c-.5396-1.5693-1.9056-2.7969-3.6587-3.0763s-3.4331.4628-4.4338 1.7866z" fill="#43af3e"/><path d="m30.7011 17.9386c.7281-1.4912.6303-3.3251-.4118-4.7624s-2.7548-2.1002-4.3984-1.8718z" fill="#00a23e"/><path d="m30.7012 17.9389c1.0007-1.3239 2.6805-2.066 4.4337-1.7867 1.7531.2794 3.1191 1.5071 3.6587 3.0763z" fill="#00a23e"/><path d="m30.7011 17.9387c-.2284-1.6437.4346-3.3564 1.8718-4.3985 1.4373-1.0421 3.2712-1.1398 4.7625-.4118z" fill="#008839"/><path d="m30.7012 17.9385c1.0176-.1414 2.0779.269 2.7231 1.1588s.7057 2.0252.2549 2.9484z" fill="#008839"/><path d="m30.701 17.9385c-.9233-.4507-2.0587-.3902-2.9484.255-.8899.6451-1.3003 1.7054-1.1588 2.7231z" fill="#00a23e"/><path d="m31.9656 36.0269c-3.3218 2.4844-7.4406 3.9594-11.9039 3.9734h-.0617v-4.8007c1.1172-.261 2.2445-.5157 3.2875-.1664 1.1164.3734 1.9609 1.3984 3.118 1.6148 1.1351.2125 2.2414-.4047 3.3718-.6422.7196-.1508 1.4711-.1398 2.1883.0211z" fill="#605f74"/></svg>