<svg width="40" height="41" fill="none" xmlns="http://www.w3.org/2000/svg"><g clip-path="url(#clip0)"><path d="M35.757 31.86a19.051 19.051 0 003.384-10.867c0-10.57-8.57-19.14-19.141-19.14-10.571 0-19.14 8.57-19.14 19.14 0 4.037 1.25 7.78 3.383 10.867h31.514z" fill="#66E9FF"/><path d="M20 32.712c7.767 0 14.063-6.296 14.063-14.062 0-7.767-6.297-14.063-14.063-14.063-7.767 0-14.063 6.296-14.063 14.063 0 7.766 6.296 14.062 14.063 14.062z" fill="#46D8FC"/><path d="M28.229 13.643H11.77c0 3.032-4.872 5.773-4.872 10.315s4.121 7.422 4.121 7.422h17.96S33.1 28.5 33.1 23.958s-4.872-7.283-4.872-10.315z" fill="#CE684D"/><path d="M27.777 6.635C26.79 3.42 24.251.134 21.474.134c-.956 0-1.474.938-1.474.938s-.518-.938-1.474-.938c-2.777 0-5.315 3.286-6.303 6.502a8.198 8.198 0 00-.437 2.62v2.38h16.428v-2.35a8.2 8.2 0 00-.437-2.65z" fill="#E07763"/><path d="M16.322 11.635v-1.004c-2.567-2.463-2.46-8.029-.024-9.81-1.838 1.131-3.361 3.491-4.075 5.815a8.2 8.2 0 00-.437 2.62v2.38h4.536z" fill="#CE684D"/><path d="M33.648 27.668c-.566-.499-1.705-.969-3.014-1.381H9.366c-1.31.412-2.448.882-3.014 1.381-.643.568-1.398 2.245-2.11 4.192 3.454 4.998 9.223 8.274 15.758 8.274 6.535 0 12.304-3.276 15.758-8.274-.712-1.947-1.467-3.624-2.11-4.192z" fill="#FFDD40"/><path d="M13.548 32.523c.195-2.705 1.655-4.821 3.507-6.236h-7.69c-1.309.412-2.447.882-3.013 1.381-.643.568-1.398 2.245-2.11 4.192 3.454 4.998 9.223 8.274 15.758 8.274-3.908 0-6.744-3.562-6.452-7.611z" fill="#FFC839"/><path d="M9.438 36.957c-.005-.017-.685-1.94.368-4.19.196-.419-.347-.793-.667-.458-.67.7-1.331 1.732-1.609 3.204.605.52 1.242 1.002 1.908 1.444z" fill="#FFB73B"/><path d="M30.562 36.957c.005-.017.685-1.94-.368-4.19-.196-.419.347-.793.668-.458.67.7 1.33 1.732 1.608 3.204a19.202 19.202 0 01-1.908 1.444z" fill="#FFC839"/><path d="M10.871 25.854c-.511.135-1.02.28-1.505.433.44 1.589 1.548 3.024 3.227 4.143 2.024 1.35 4.686 2.093 7.496 2.093 2.809 0 5.47-.743 7.495-2.093 1.661-1.107 2.763-2.523 3.213-4.091a33.097 33.097 0 00-1.668-.485H10.871z" fill="#FCECA9"/><path d="M23.79 24.71v-9.44h-7.58v9.44c-.117.02-2.766.463-5.34 1.144.807 2.905 4.627 5.106 9.219 5.106 4.568 0 8.373-2.178 9.205-5.062-2.624-.706-5.384-1.168-5.503-1.188z" fill="#FEB98A"/><path d="M23.79 20.455v-5.184h-7.58v9.44c-.117.019-2.766.462-5.34 1.143.424 1.524 1.677 2.854 3.435 3.774 1.162-2.464 3.454-4.156 5.695-4.918 3.034-1.03 3.79-4.255 3.79-4.255z" fill="#FCA870"/><path d="M25.864 12.6s.811-1.975 2.258-1.517c1.446.459-.035 4.74-2.858 5.01l.6-3.493z" fill="#FEB98A"/><path d="M14.136 12.6s-.811-1.975-2.257-1.517c-1.447.459.035 4.74 2.857 5.01l-.6-3.493z" fill="#FCA870"/><path d="M19.983 6.578S18.445 11.3 13.16 11.31a12.09 12.09 0 00-.004.29c0 5.04 3.064 10.95 6.844 10.95 3.78 0 6.843-5.91 6.843-10.95 0-.097-.001-.193-.003-.29-5.285-.009-6.857-4.73-6.857-4.73z" fill="#FFC9A4"/><path d="M16.282 11.6c0-.33.014-.652.04-.969-.863.408-1.906.676-3.162.678a12.09 12.09 0 00-.004.29c0 5.04 3.064 10.95 6.844 10.95.538 0 1.06-.12 1.562-.34-3.026-1.324-5.28-6.287-5.28-10.61zm2.625 3.569l.66-1.05c.2-.32.666-.32.867 0l.659 1.05a.512.512 0 01-.434.784h-1.318a.512.512 0 01-.434-.784z" fill="#FEB98A"/><path d="M18.39 18.952h3.22c.322-.283.568-.65.705-1.065a.584.584 0 00-.558-.762h-3.514a.584.584 0 00-.557.762c.136.416.382.782.703 1.065z" fill="#003060"/><path d="M21.61 18.952a2.425 2.425 0 01-3.22 0 2.428 2.428 0 013.221 0z" fill="#FF4155"/><path d="M24.297 12.797a.974.974 0 00-.332-.745.981.981 0 00-1.29 0 .974.974 0 00-.331.745c.004.354.44.525.69.274a.404.404 0 01.572 0c.251.25.686.08.69-.274zm-8.594 0a.974.974 0 01.332-.745.981.981 0 011.29 0 .974.974 0 01.331.745c-.004.354-.44.525-.69.274a.405.405 0 00-.572 0c-.251.25-.686.08-.69-.274z" fill="#003060"/><path d="M17.46 10.991h-1.562a.586.586 0 010-1.172h1.563a.586.586 0 110 1.172zm6.642 0h-1.563a.586.586 0 010-1.172h1.563a.586.586 0 110 1.172z" fill="#AA493C"/></g><defs><clipPath id="clip0"><path fill="#fff" transform="translate(0 .134)" d="M0 0h40v40H0z"/></clipPath></defs></svg>