<svg fill="none" height="41" width="41" xmlns="http://www.w3.org/2000/svg" xmlns:xlink="http://www.w3.org/1999/xlink"><mask id="a" height="41" maskUnits="userSpaceOnUse" width="41" x="0" y="0"><path d="m20.82 40.134c11.045 0 20-8.954 20-20s-8.955-20-20-20c-11.046 0-20 8.954-20 20s8.954 20 20 20z" fill="#316eac"/></mask><g mask="url(#a)"><path d="m20.82 40.134c11.045 0 20-8.954 20-20s-8.955-20-20-20c-11.046 0-20 8.954-20 20s8.954 20 20 20z" fill="#316eac"/><g clip-rule="evenodd" fill-rule="evenodd"><path d="m6.453 42.963a.8.8 0 0 1 -.8-.791l-.024-2.038h-2.01a.8.8 0 0 1 -.8-.8v-8c0-.13.032-.257.092-.371l4.4-8.4a.798.798 0 0 1 .274-.3l6.55-4.239 2.715-9.314a.8.8 0 0 1 .647-.567l.121-.009a.8.8 0 0 1 .666.356l2.248 3.372 2.14.713a.8.8 0 0 1 .432.348l5.589 9.314 3.314-1.989a.799.799 0 0 1 1.051.206l4.8 6.4a.806.806 0 0 1 .085.142l2.8 6a.801.801 0 0 1 -.24.974l-11.563 8.829a.8.8 0 0 1 -.486.164h-22z" fill="#fff"/><path d="m28.453 42.163h-22l-.034-2.829h-2.8v-8l4.4-8.4 6.8-4.4 2.8-9.6 2.4 3.6 2.4.8 6 10 4-2.4 4.8 6.4 2.8 6-11.566 8.83z" fill="#fff"/><path d="m4.02 43.334a.8.8 0 0 1 -.8-.8v-12a.8.8 0 0 1 .084-.358l4-8a.796.796 0 0 1 .281-.314l6.531-4.226 2.325-9.688a.8.8 0 0 1 .778-.614h.016a.8.8 0 0 1 .77.643l1.2 6a.856.856 0 0 1 .01.237l-.4 4a.81.81 0 0 1 -.044.194l-1.6 4.4-1.924 5.387 1.156 5.782a.806.806 0 0 1 -.025.41l-1.559 4.677v3.47a.8.8 0 0 1 -.8.8h-10zm25.199-10a.793.793 0 0 1 -.396-.106l-2.8-1.6a.8.8 0 0 1 -.37-.924l2.4-8a.8.8 0 0 1 .378-.47l3.6-2a.806.806 0 0 1 .794.01.8.8 0 0 1 .394.69v6.8a.799.799 0 0 1 -.134.444l-3.2 4.8a.8.8 0 0 1 -.666.356z" fill="#6bc8f2"/><path d="m28.82 22.934-2.4 8 2.8 1.6 3.2-4.8v-6.8zm-14-4.8-6.8 4.4-4 8v12h10v-3.6l1.6-4.8-1.2-6 2-5.6 1.6-4.4.4-4-1.2-6z" fill="#6bc8f2"/></g><path d="m31.42 12.534a.6.6 0 1 0 0-1.2.6.6 0 0 0 0 1.2z" fill="#fff" opacity=".2"/><path d="m6.62 16.934a.6.6 0 1 0 0-1.2.6.6 0 0 0 0 1.2z" fill="#fff" opacity=".1"/><path d="m23.42 6.934a.6.6 0 1 0 0-1.2.6.6 0 0 0 0 1.2z" fill="#fff" opacity=".43"/></g></svg>