<svg width="40" height="41" fill="none" xmlns="http://www.w3.org/2000/svg"><g clip-path="url(#clip0)"><path d="M20 40.134c11.046 0 20-8.954 20-20s-8.954-20-20-20-20 8.954-20 20 8.954 20 20 20z" fill="#FC6F58"/><path d="M39.994 20.58l-7.525-7.404-5.265 11.96-11.545-11.544L8.07 13.4l-1.21.003 6.498 6.498-3.864 10.603 9.609 9.61c.297.012.596.02.896.02 10.896 0 19.757-8.714 19.994-19.553z" fill="#F1543F"/><path d="M6.608 20.481l-1.557 8.542 6.72-1.95v-6.93l-5.163.338z" fill="#E7D9ED"/><path d="M16.933 19.805l-5.163.338v6.93l6.008-.272-.845-6.996z" fill="#E7D9ED"/><path d="M15.659 26.328h-2.106a.245.245 0 01-.245-.245v-1.695H11.77v7.787h3.889v-5.847z" fill="#EABE96"/><path d="M6.83 22.06a1.222 1.222 0 100-2.443 1.222 1.222 0 000 2.443zm9.162 4.268h-2.439a.245.245 0 01-.245-.245v-1.694h-3.056v1.694c0 .135-.11.245-.245.245H7.568a3.546 3.546 0 00-3.545 3.546v2.291c3.564 4.726 9.174 7.82 15.514 7.963V29.873a3.546 3.546 0 00-3.545-3.545z" fill="#FED8B2"/><path d="M19.537 29.873a3.546 3.546 0 00-3.545-3.545h-2.439a.245.245 0 01-.245-.245v-1.695H11.74v13.965a19.911 19.911 0 007.797 1.775V29.873z" fill="#F2C59E"/><path d="M4.66 27.847a3.528 3.528 0 00-.637 2.026v2.292c3.564 4.725 9.174 7.82 15.514 7.963V29.873a3.53 3.53 0 00-.586-1.952c-4.481 1.618-9.711 1.53-14.291-.074z" fill="#E6F3FF"/><path d="M19.537 29.873c0-.72-.216-1.392-.586-1.952-2.272.82-4.737 1.202-7.211 1.17v9.262a19.913 19.913 0 007.798 1.775V29.873z" fill="#CFDBE6"/><path d="M16.73 22.06a1.222 1.222 0 100-2.443 1.222 1.222 0 000 2.443z" fill="#EABE96"/><path d="M11.918 25.924h-.275a4.609 4.609 0 01-4.61-4.61v-4.207a4.609 4.609 0 014.61-4.61h.275a4.609 4.609 0 014.609 4.61v4.208a4.609 4.609 0 01-4.61 4.609z" fill="#F4E3C3"/><path d="M11.918 12.498h-.148v13.426h.148a4.609 4.609 0 004.609-4.61v-4.207a4.609 4.609 0 00-4.61-4.61z" fill="#FED8B2"/><path d="M16.027 14.055a4.996 4.996 0 00-4.097-2.133h-.3c-2.763 0-5.022 2.24-5.022 5.004v7.044h.753v-5.199c2.23-.227 4.421-.664 6.343-1.624.691.794 1.49 1.503 2.37 2.078v4.745h.86v-7.043a4.98 4.98 0 00-.907-2.872z" fill="#B97850"/><path d="M16.027 14.055a4.996 4.996 0 00-4.098-2.133h-.159v6a13.283 13.283 0 001.934-.775 11.5 11.5 0 002.37 2.078v4.745h.86v-7.043a4.98 4.98 0 00-.907-2.872z" fill="#935635"/><path d="M9.542 20.77a.475.475 0 100-.949.475.475 0 000 .95z" fill="#59595B"/><path d="M14.018 20.77a.475.475 0 100-.949.475.475 0 000 .95z" fill="#272525"/><path d="M11.78 24.186c-.855 0-1.55-.696-1.55-1.55a.262.262 0 11.524 0 1.027 1.027 0 002.052 0 .262.262 0 11.525 0c0 .854-.696 1.55-1.55 1.55z" fill="#FD8469"/><path d="M13.069 22.373a.262.262 0 00-.263.262c0 .566-.46 1.026-1.026 1.026h-.01v.524h.01c.855 0 1.55-.695 1.55-1.55a.262.262 0 00-.261-.262z" fill="#FC6F58"/><path d="M30.388 25.795V24.1h-3.054v1.694c0 .135-.11.244-.244.244h-2.105v5.844h7.752v-5.844h-2.104a.245.245 0 01-.245-.244z" fill="#FED8B2"/><path d="M32.737 26.04h-2.104a.245.245 0 01-.245-.246v-1.693h-1.632v7.781h3.981V26.04z" fill="#EABE96"/><path d="M36.483 31.462v-1.88a3.543 3.543 0 00-3.543-3.543h-1.625c0 1.427-1.027 1.869-2.454 1.869l-.105-.001v10.212a20.084 20.084 0 007.727-6.657z" fill="#324A5E"/><path d="M26.147 26.04h-1.624a3.543 3.543 0 00-3.544 3.543V40.11a19.886 19.886 0 007.777-1.99V27.907c-1.384-.021-2.609-.476-2.609-1.868z" fill="#3C5668"/><path d="M27.812 34.046h2.098l2.232-8.007h-.827c0 1.427-1.027 1.869-2.454 1.869-1.427 0-2.714-.442-2.714-1.869h-.567l2.232 8.007z" fill="#B5F1F4"/><path d="M23.786 21.774a1.22 1.22 0 100-2.44 1.22 1.22 0 000 2.44z" fill="#FED8B2"/><path d="M33.677 21.774a1.22 1.22 0 100-2.44 1.22 1.22 0 000 2.44z" fill="#EABE96"/><path d="M28.869 25.636h-.275a4.606 4.606 0 01-4.606-4.606v-4.206a4.606 4.606 0 014.606-4.605h.275a4.606 4.606 0 014.605 4.606v4.205a4.606 4.606 0 01-4.605 4.605z" fill="#F4E3C3"/><path d="M28.869 12.219h-.113v13.417h.113a4.606 4.606 0 004.605-4.606v-4.205a4.605 4.605 0 00-4.605-4.606z" fill="#FED8B2"/><path d="M32.975 13.775a4.993 4.993 0 00-4.094-2.131h-.299a5 5 0 00-5 5v3.91h.734v-2.066c2.227-.226 4.418-.663 6.337-1.623.691.793 1.49 1.501 2.37 2.076v1.613h.858v-3.91a4.976 4.976 0 00-.906-2.868z" fill="#935635"/><path d="M32.975 13.775a4.993 4.993 0 00-4.095-2.131h-.123v5.985a13.24 13.24 0 001.896-.764 11.501 11.501 0 002.37 2.077v1.612h.858v-3.909a4.976 4.976 0 00-.906-2.87z" fill="#804000"/><path d="M26.496 20.486a.474.474 0 100-.949.474.474 0 000 .949z" fill="#59595B"/><path d="M30.967 20.486a.474.474 0 100-.949.474.474 0 000 .949z" fill="#272525"/><path d="M28.731 23.899c-.854 0-1.55-.696-1.55-1.55a.262.262 0 11.525 0 1.026 1.026 0 002.05 0 .262.262 0 11.525 0c0 .855-.695 1.55-1.55 1.55z" fill="#FD8469"/><path d="M30.28 22.349a.262.262 0 10-.524 0c0 .557-.446 1.01-1 1.024v.525a1.55 1.55 0 001.525-1.549z" fill="#FC6F58"/><path d="M29.807 37.567l-.542-8.476h-.807l-.593 9.436a19.953 19.953 0 001.942-.96z" fill="#F1543F"/><path d="M29.807 37.567l-.542-8.476h-.509v9.029c.357-.174.707-.359 1.05-.553z" fill="#C1321F"/><path d="M29.91 27.803h-2.098l.644 1.396h.81l.645-1.396z" fill="#FC6F58"/><path d="M29.91 27.803h-1.154v1.396h.51l.645-1.396z" fill="#F1543F"/><path d="M27.13 26.04l1.731 1.763-1.73 1.731-1.732-3.495h1.731zm3.462 0l-1.73 1.763 1.73 1.731 1.732-3.495h-1.732z" fill="#2B9ED8"/><path d="M28.861 31.737v6.33a19.975 19.975 0 002.228-1.287l1.234-5.014-1.364-.845 1.364-1.107v-3.847h-1.73l-1.732 5.77z" fill="#2B3B4E"/><path d="M25.399 25.967v3.847l1.364 1.107-1.364.845 1.738 7.056a19.87 19.87 0 001.724-.755v-6.33l-1.73-5.77h-1.732z" fill="#324A5E"/><path d="M9.999 11.134l.31.628.693.101-.502.49.119.69-.62-.326-.62.326.118-.69-.502-.49.694-.1.31-.63zm-2.413 1.262l.492.5.69-.122-.323.622.328.62-.69-.116-.488.504-.104-.693-.63-.308.628-.313.097-.694z" fill="#E6F3FF"/></g><defs><clipPath id="clip0"><path fill="#fff" transform="translate(0 .134)" d="M0 0h40v40H0z"/></clipPath></defs></svg>