<svg width="20" height="20" fill="none" xmlns="http://www.w3.org/2000/svg"><g clip-path="url(#clip0)" fill="#36445F"><path d="M10 5a2.5 2.5 0 100-5 2.5 2.5 0 000 5zm3.745 6.795l-.568-4.42a1.245 1.245 0 00-1.242-1.125h-.685a.63.63 0 00-.443.183L10 7.24l-.808-.808a.63.63 0 00-.442-.182h-.684c-.645 0-1.18.484-1.242 1.109l-.57 4.437a.623.623 0 00.62.704h.676l.522 6.375c.063.64.6 1.125 1.244 1.125h1.369a1.25 1.25 0 001.245-1.137l.521-6.363h.674a.624.624 0 00.62-.705zM16.25 5a2.5 2.5 0 100-5 2.5 2.5 0 000 5zM3.75 0a2.502 2.502 0 00-2.5 2.5c0 1.379 1.121 2.5 2.5 2.5 1.377 0 2.5-1.121 2.5-2.5S5.127 0 3.75 0zm16.245 11.795l-.567-4.419a1.244 1.244 0 00-1.243-1.126H17.5a.63.63 0 00-.442.183l-.808.807-.807-.808a.629.629 0 00-.441-.182h-.685c-.078 0-.148.027-.222.041.162.285.288.594.325.94l.567 4.405a1.87 1.87 0 01-.458 1.483c-.17.195-.387.332-.62.44l.415 4.066a1.245 1.245 0 001.244 1.125h1.369a1.25 1.25 0 001.245-1.136l.52-5.114h.673a.624.624 0 00.62-.705zM5.467 13.112a1.872 1.872 0 01-.452-1.473L5.584 7.2a2.31 2.31 0 01.31-.91c-.07-.013-.135-.04-.21-.04H5a.63.63 0 00-.443.183l-.807.807-.808-.808a.629.629 0 00-.44-.182h-.686c-.645 0-1.18.484-1.242 1.109l-.57 4.437a.623.623 0 00.62.704H1.3l.522 5.125c.063.64.6 1.125 1.244 1.125h1.369a1.25 1.25 0 001.245-1.136l.415-4.057a1.875 1.875 0 01-.628-.445z"/></g><defs><clipPath id="clip0"><path fill="#fff" d="M0 0h20v20H0z"/></clipPath></defs></svg>