<svg width="40" height="41" fill="none" xmlns="http://www.w3.org/2000/svg"><g clip-path="url(#clip0)"><path d="M40 20.134a19.93 19.93 0 01-1.795 8.293 20.08 20.08 0 01-9.727 9.827c-.778.364-1.584.68-2.414.943a19.602 19.602 0 01-2.896.686 19.883 19.883 0 01-3.168.251 19.317 19.317 0 01-1.701-.072 19.823 19.823 0 01-2.21-.311A19.757 19.757 0 019.65 37.25a20.104 20.104 0 01-5.609-5.059A19.922 19.922 0 010 20.134c0-11.046 8.954-20 20-20s20 8.954 20 20z" fill="#FFE152"/><path d="M16.088 26.088v13.663a19.752 19.752 0 01-5.102-1.76 20.107 20.107 0 01-6.944-5.8 19.952 19.952 0 01-2.326-3.941v-2.162a5.421 5.421 0 015.42-5.42h3.53c.395 0 .78.041 1.15.122l.064.014c.062.014.125.03.186.046l.005.001a5.39 5.39 0 011.683.782 5.412 5.412 0 012.334 4.455z" fill="#2BA1CF"/><path d="M16.088 26.088v13.663a19.757 19.757 0 01-6.437-2.501 20.107 20.107 0 01-5.609-5.059v-6.103a5.421 5.421 0 015.42-5.42h1.205c.394 0 .779.041 1.15.122l.063.014c.062.014.125.03.186.046l.005.001a5.39 5.39 0 011.683.782 5.413 5.413 0 012.334 4.455z" fill="#66BAED"/><path d="M12.084 20.79l-.012.061-1.622 7.543a1.578 1.578 0 01-1.535 1.25h-.027a1.577 1.577 0 01-1.534-1.25l-1.622-7.542-.013-.062h6.365z" fill="#F2F0EC"/><path d="M8.902 22.887l-2.44 1.356-.743-3.453 1.516-.893m1.667 2.99l2.44 1.356.742-3.453-1.516-.893" fill="#D8D5D0"/><path d="M1.615 19.361v-8.175c0-.83.139-1.644.412-2.419a7.296 7.296 0 018.01-4.78 7.286 7.286 0 016.152 7.2v8.174" fill="#CC7A3B"/><path d="M4.613 11.506c0 2.891 1.693 6.236 2.623 7.855H1.615v-8.175c0-.83.139-1.644.412-2.419A7.295 7.295 0 018.849 3.9c-2.24.056-4.236 3.65-4.236 7.606z" fill="#A35418"/><path d="M10.836 18.58v2.373a1.934 1.934 0 11-3.868 0V18.58h3.868z" fill="#EAB599"/><path d="M10.836 20.803v.15c0 .87-.573 1.604-1.362 1.848a1.933 1.933 0 01-1.346-1.596 6.618 6.618 0 002.708-.402zM3.597 14.69a1.798 1.798 0 11-3.597 0 1.798 1.798 0 013.597 0z" fill="#F6CAAE"/><path d="M3.597 14.69c0 .895-.654 1.638-1.51 1.775a6.695 6.695 0 010-3.55c.856.137 1.51.88 1.51 1.775z" fill="#EAB599"/><path d="M2.441 14.69a.643.643 0 11-1.285 0 .643.643 0 011.285 0z" fill="#EAB599"/><path d="M13.52 12.394v6.182a6.666 6.666 0 01-3.544 1.764l-.033.005a6.691 6.691 0 01-7.733-6.61v-2.549c0-.326.024-.647.069-.96 1.592 1.144 3.875 1.031 5.33-.343A3.79 3.79 0 008.613 8.31a4.416 4.416 0 001.381 2.757 4.938 4.938 0 003.525 1.326z" fill="#EAB599"/><path d="M13.52 12.394v6.182a6.666 6.666 0 01-3.544 1.764l-.033.005a6.693 6.693 0 01-5.649-6.61v-2.549c0-.067.002-.135.004-.202 1.18.12 2.405-.246 3.31-1.102a3.789 3.789 0 001.006-1.57 4.416 4.416 0 001.381 2.756 4.938 4.938 0 003.525 1.326z" fill="#F6CAAE"/><path d="M12.496 13.17a1.111 1.111 0 10-2.223 0m-2.741 0a1.111 1.111 0 10-2.223 0" fill="#EAB599"/><path d="M7.18 13.642a.76.76 0 11-1.519 0 .76.76 0 011.519 0zm4.964 0a.76.76 0 11-1.519 0 .76.76 0 011.519 0z" fill="#3D4159"/><path d="M9.662 15.554H8.144a.328.328 0 010-.655h1.518a.327.327 0 010 .655zm-.759 2.071c-.56 0-1.121-.14-1.632-.421a.298.298 0 11.287-.522 2.777 2.777 0 002.69 0 .298.298 0 01.286.522 3.38 3.38 0 01-1.631.421z" fill="#EAB599"/><path d="M7.025 13.508a.325.325 0 11-.65 0 .325.325 0 01.65 0zm5.001 0a.325.325 0 11-.65 0 .325.325 0 01.65 0z" fill="#fff"/><path d="M13.457 15.492a.834.834 0 11-1.667-.001.834.834 0 011.667 0zm-7.442 0a.833.833 0 11-1.667 0 .833.833 0 011.667 0z" fill="#EAB599"/><path d="M38.205 25.924v2.503a20.079 20.079 0 01-9.728 9.827c-.777.364-1.583.68-2.413.943a19.599 19.599 0 01-2.896.686v-13.96a5.67 5.67 0 015.671-5.67h3.693a5.675 5.675 0 015.673 5.67z" fill="#BFD5DE"/><path d="M38.205 25.924v2.503a20.08 20.08 0 01-9.727 9.827c-.778.364-1.584.68-2.414.943V25.924c0-3.132 2.54-5.67 5.672-5.67h.797a5.67 5.67 0 015.672 5.67z" fill="#DDE8ED"/><path d="M25.136 13.998a1.882 1.882 0 11-3.764.001 1.882 1.882 0 013.764 0z" fill="#D3A489"/><path d="M32.209 22.299l-1.523 2.442-1.522-2.442" fill="#F74F4F"/><path d="M32.735 31.639l-2.049 2.585-2.048-2.585 2.049-7.534 2.048 7.534z" fill="#F74F4F"/><path d="M25.136 13.998c0 .937-.685 1.714-1.58 1.858a6.998 6.998 0 01-.25-1.857 7 7 0 01.25-1.858c.895.144 1.58.92 1.58 1.857z" fill="#BF8E75"/><path d="M23.927 13.998a.673.673 0 11-1.346 0 .673.673 0 011.346 0z" fill="#BF8E75"/><path d="M30.686 22.575l-2.553 1.419-.777-3.613 1.586-.935m1.744 3.129l2.553 1.419.777-3.613-1.587-.935" fill="#BFD5DE"/><path d="M36.237 13.998A1.882 1.882 0 1040 14a1.882 1.882 0 00-3.763 0z" fill="#D3A489"/><path d="M36.237 13.998c0 .937.684 1.714 1.58 1.858a6.99 6.99 0 00.25-1.857 6.99 6.99 0 00-.25-1.858 1.882 1.882 0 00-1.58 1.857z" fill="#BF8E75"/><path d="M38.791 13.998a.673.673 0 11-1.345 0 .673.673 0 011.345 0z" fill="#BF8E75"/><path d="M37.687 12.998a7.002 7.002 0 01-14.002 0c0-1.83.635-4.576 1.784-5.823 1.28-1.389 3.18-1.178 5.217-1.178a7.001 7.001 0 017.001 7.001z" fill="#BF8E75"/><path d="M32.71 18.068v2.484a2.023 2.023 0 01-4.047 0v-2.484h4.047z" fill="#BF8E75"/><path d="M32.71 20.394v.158c0 .909-.6 1.677-1.425 1.932a2.023 2.023 0 01-1.409-1.67 6.958 6.958 0 002.834-.42zm4.977-7.396a7.002 7.002 0 01-5.877 6.911 7.002 7.002 0 010-13.822 7.004 7.004 0 015.877 6.911z" fill="#D3A489"/><path d="M30.686 16.447a3.536 3.536 0 01-1.706-.441.311.311 0 11.3-.546c.88.484 1.932.484 2.813 0a.31.31 0 11.3.546c-.534.294-1.12.44-1.707.44z" fill="#BF8E75"/><path d="M29.195 12.591a.794.794 0 11-1.588 0 .794.794 0 011.588 0zm4.571 0a.794.794 0 11-1.589 0 .794.794 0 011.589 0z" fill="#3D4159"/><path d="M29.033 12.45a.34.34 0 11-.68 0 .34.34 0 01.68 0zm4.61 0a.34.34 0 11-.681 0 .34.34 0 01.68 0z" fill="#fff"/><path d="M31.48 14.59h-1.588a.343.343 0 010-.685h1.588a.343.343 0 110 .685z" fill="#BF8E75"/><path d="M32.991 25.738h3.052v.934h-3.052v-.934z" fill="#BFD5DE"/><path d="M30.276 3.997a4.243 4.243 0 013.932 4.022l.02.405h1.22l.657 4.37 1.592-.493-.214-4.282a4.243 4.243 0 00-4.254-4.033l-2.953.011z" fill="#2A2F4F"/><path d="M37.348 2.307a4.325 4.325 0 01-6.116 6.116l6.116-6.116z" fill="#3D4159"/><path d="M31.232 8.423h-5.307l-.658 4.37-1.591-.492.213-4.282a4.244 4.244 0 014.255-4.033l7.665.03 1.014 1.823" fill="#3D4159"/><path d="M31.096 3.997a4.243 4.243 0 00-3.932 4.022l-.02.405h-1.22l-.657 4.37-1.591-.493.213-4.282a4.243 4.243 0 014.254-4.033l2.953.011z" fill="#2A2F4F"/><path d="M28.477 36.755v1.5A19.93 19.93 0 0120 40.134c-3.031 0-5.905-.675-8.478-1.882v-1.498a6.396 6.396 0 016.395-6.396h4.165a6.41 6.41 0 011.65.215 6.353 6.353 0 011.991.923 6.385 6.385 0 012.754 5.258z" fill="#3D4159"/><path d="M23.754 30.503l-.015.073-2.04 9.486a23.472 23.472 0 01-.769.05 19.679 19.679 0 01-2.312-.026l-.32-.024-2.039-9.485-.015-.074h7.51z" fill="#66BAED"/><path d="M21.716 32.667L20 35.42l-1.716-2.753" fill="#3D4159"/><path d="M21.381 40.087a21.337 21.337 0 01-1.38.047 19.311 19.311 0 01-1.383-.048L20 34.704l1.381 5.383z" fill="#3D4159"/><path d="M20 32.977l-2.88 1.6-.876-4.073 1.789-1.054" fill="#2BA1CF"/><path d="M19.999 32.977l2.88 1.6.875-4.073-1.789-1.054" fill="#2BA1CF"/><path d="M23.863 36.001h.913l-1.595 3.88c-.738.119-1.489.197-2.25.231l2.802-9.538.021-.071 1.97.643-1.861 4.855zm-4.816 4.11a19.819 19.819 0 01-2.253-.233L15.201 36h.913l-1.862-4.855 1.97-.643.022.071 2.803 9.537z" fill="#2A2F4F"/><path d="M22.281 27.896v2.8a2.281 2.281 0 11-4.563 0v-2.8h4.563z" fill="#EAB599"/><path d="M22.281 30.519v.177a2.282 2.282 0 01-1.607 2.18 2.281 2.281 0 01-1.588-1.883 7.834 7.834 0 003.195-.474zm-8.541-7.212a2.122 2.122 0 11-4.245 0 2.122 2.122 0 014.245 0z" fill="#F6CAAE"/><path d="M13.74 23.307a2.122 2.122 0 01-1.782 2.094 7.897 7.897 0 01-.281-2.094c0-.726.098-1.428.281-2.095a2.122 2.122 0 011.782 2.095z" fill="#EAB599"/><path d="M12.377 23.307a.759.759 0 11-1.517 0 .759.759 0 011.517 0z" fill="#EAB599"/><path d="M26.258 23.307a2.122 2.122 0 104.245 0 2.122 2.122 0 00-4.245 0z" fill="#F6CAAE"/><path d="M26.258 23.307c0 1.056.772 1.932 1.783 2.094.183-.667.28-1.37.28-2.094 0-.726-.097-1.428-.28-2.095a2.122 2.122 0 00-1.783 2.095z" fill="#EAB599"/><path d="M27.894 19.173v3.006a7.895 7.895 0 01-6.628 7.793l-.038.006a7.894 7.894 0 01-9.123-7.799v-3.006a7.896 7.896 0 017.894-7.895 7.896 7.896 0 017.895 7.895z" fill="#EAB599"/><path d="M29.139 23.307a.758.758 0 11-1.517 0 .758.758 0 011.517 0z" fill="#EAB599"/><path d="M27.894 19.173v3.006a7.895 7.895 0 01-6.628 7.793l-.039.006a7.896 7.896 0 01-6.664-7.799v-3.006c0-3.942 2.89-7.21 6.666-7.8a7.896 7.896 0 016.665 7.8z" fill="#F6CAAE"/><path d="M18.318 21.72a.896.896 0 11-1.791 0 .896.896 0 011.79 0zm5.154 0a.896.896 0 11-1.791 0 .896.896 0 011.791 0z" fill="#3D4159"/><path d="M18.135 21.561a.384.384 0 11-.767 0 .384.384 0 01.767 0zm5.198 0a.384.384 0 11-.767 0 .384.384 0 01.767 0z" fill="#fff"/><path d="M20.895 23.623h-1.791a.386.386 0 010-.773h1.791a.386.386 0 110 .773zM20 26.067a3.988 3.988 0 01-1.925-.497.35.35 0 11.338-.615c.993.546 2.18.546 3.173 0a.351.351 0 01.338.615 3.988 3.988 0 01-1.925.497z" fill="#EAB599"/><path d="M27.894 16.444v3.08h-1.47v-2.412l-10.606-1.97-2.244-.418v4.8h-1.47v-3.08a6.356 6.356 0 016.356-6.356h3.079a6.355 6.355 0 016.356 6.357z" fill="#2A2F4F"/><path d="M27.894 16.445v3.079h-1.47v-2.412l-10.606-1.97a6.356 6.356 0 015.972-5.048 6.355 6.355 0 016.104 6.35z" fill="#3D4159"/></g><defs><clipPath id="clip0"><path fill="#fff" transform="translate(0 .134)" d="M0 0h40v40H0z"/></clipPath></defs></svg>