<svg width="22" height="24" fill="none" xmlns="http://www.w3.org/2000/svg"><g opacity=".3" fill-rule="evenodd" clip-rule="evenodd"><path d="M14.887 9.22a7.855 7.855 0 004.582 1.465V7.399c-.323 0-.646-.034-.962-.101v2.587a7.856 7.856 0 01-4.582-1.466v6.707A6.076 6.076 0 017.847 21.2a6.05 6.05 0 01-3.383-1.028A6.06 6.06 0 008.81 22a6.076 6.076 0 006.078-6.075V9.22zm1.187-3.316a4.58 4.58 0 01-1.187-2.682V2.8h-.912a4.6 4.6 0 002.099 3.104zM6.587 17.598a2.78 2.78 0 013.056-4.33v-3.36a6.132 6.132 0 00-.962-.055v2.615a2.78 2.78 0 00-2.094 5.13z" fill="#EE1D52"/><path d="M13.925 8.42a7.856 7.856 0 004.582 1.465V7.298a4.6 4.6 0 01-2.433-1.394A4.6 4.6 0 0113.975 2.8H11.58v13.126a2.78 2.78 0 01-4.993 1.672 2.778 2.778 0 012.094-5.13V9.853a6.076 6.076 0 00-4.217 10.32A6.051 6.051 0 007.847 21.2a6.076 6.076 0 006.078-6.074V8.42z" fill="#fff"/><path d="M18.507 7.298v-.7a4.583 4.583 0 01-2.433-.694 4.595 4.595 0 002.433 1.394zM13.975 2.8a4.696 4.696 0 01-.05-.377V2h-3.307v13.126a2.78 2.78 0 01-4.031 2.472 2.78 2.78 0 004.993-1.673V2.8h2.395zM8.681 9.853v-.745a6.076 6.076 0 00-4.217 11.064 6.076 6.076 0 014.217-10.32z" fill="#69C9D0"/></g></svg>