<svg width="25" height="24" fill="none" xmlns="http://www.w3.org/2000/svg"><g clip-path="url(#clip0)"><rect opacity=".5" x="3" y="3" width="20" height="20" rx="6" fill="#D6D8DE"/><path fill-rule="evenodd" clip-rule="evenodd" d="M12 1c-.057 4.937.378 7.7-1.461 9.539C8.699 12.378 5.937 11.943.999 12v2c4.938.057 7.7-.147 9.54 1.692 1.81 1.81 1.397 4.515 1.46 9.308h2c.065-4.793-.117-7.498 1.693-9.308 1.81-1.81 4.515-1.628 9.308-1.692v-2c-4.793-.064-7.498.349-9.308-1.461C13.853 8.699 14.057 5.937 14 1h-2z" fill="#303E59"/></g><defs><clipPath id="clip0"><path fill="#fff" transform="translate(.765)" d="M0 0h24v24H0z"/></clipPath></defs></svg>