<svg fill="none" height="21" viewBox="0 0 87 21" width="87" xmlns="http://www.w3.org/2000/svg"><path d="m86.9808 20.2964c-1.3559-1.8391-3.361-3.1671-5.6949-3.6248 1.4381-1.6378 2.3175-3.7835 2.3175-6.137 0-5.14264-4.1747-9.31476-9.3189-9.31476-3.624 0-6.7467 2.06592-8.2917 5.0851-1.7832-.80944-3.7472-1.26716-5.8181-1.26716-4.7827 0-8.9984 2.38312-11.5541 6.01702-1.0025-.3329-2.0626-.5202-3.172-.5202-2.0709 0-3.9856.6229-5.5798 1.6863-1.6025-1.0634-3.5089-1.6863-5.5716-1.6863-.5752 0-1.134.0608-1.6846.1528l.0082-.1528c0-5.5601-4.5115-10.06585-10.0749-10.06585-5.5552 0-10.0667 4.50575-10.0667 10.06585l.0083.1282c-.5013-.0764-1.0026-.1282-1.5203-.1282-5.45654 0-9.88585 4.3439-10.050208 9.7618z" fill="#fff" opacity=".5"/></svg>