<svg fill="none" height="20" viewBox="0 0 92 20" width="92" xmlns="http://www.w3.org/2000/svg"><path d="m.451293 19.0774c-.011504-.2351-.030395-.4676-.030395-.7051 0-7.0187 4.912492-12.70703 10.978002-12.70703 2.2393 0 4.3175.77904 6.0556 2.10948 2.5524-4.67093 7.0508-7.77475 12.1778-7.77475 5.8321 0 10.8498 4.01434 13.1154 9.78644 1.9196-1.81118 4.44-2.92057 7.2102-2.92057 1.1858 0 2.3256.20874 3.3947.58182 1.3477-2.23192 3.5788-3.6955 6.1131-3.6955 2.4029 0 4.528 1.31894 5.8954 3.35775.9146-.15778 1.8654-.24407 2.8425-.24407 5.5034 0 10.2467 2.67322 12.4852 6.53553 1.0691-.6459 2.3017-1.0182 3.6182-1.0182 3.6766 0 6.7228 2.8927 7.3359 6.6942z" fill="#fff" opacity=".5"/></svg>