<svg fill="none" height="36" viewBox="0 0 172 36" width="172" xmlns="http://www.w3.org/2000/svg"><path d="m171.943 0c.021.443508.057.882362.057 1.33052 0 13.24468-9.263 23.97878-20.699 23.97878-4.222 0-8.141-1.4701-11.418-3.9807-4.813 8.8143-13.294 14.6714-22.961 14.6714-10.997 0-20.4577-7.5753-24.7296-18.4675-3.6195 3.4178-8.3717 5.5112-13.5949 5.5112-2.2359 0-4.385-.3939-6.4008-1.0979-2.5411 4.2118-6.7478 6.9736-11.5263 6.9736-4.5306 0-8.5375-2.4889-11.1158-6.3362-1.7246.2977-3.5173.4605-5.3596.4605-10.3766 0-19.3202-5.0445-23.5409-12.3329-2.0158 1.2189-4.3399 1.9214-6.8221 1.9214-6.93228 0-12.67612-5.45856-13.832-12.6322z" fill="#fff" opacity=".5"/></svg>