<svg fill="none" height="35" viewBox="0 0 152 35" width="152" xmlns="http://www.w3.org/2000/svg"><path d="m0 35c2.39473-3.2464 5.9361-5.5906 10.0579-6.3986-2.53983-2.891-4.09287-6.6785-4.09287-10.833 0-9.07788 7.37297-16.44257 16.45847-16.44257 6.4004 0 11.9155 3.6468 14.6441 8.97627 3.1494-1.42881 6.6181-2.23678 10.2755-2.23678 8.4468 0 15.8924 4.20668 20.4061 10.62128 1.7706-.5875 3.6428-.9182 5.6021-.9182 3.6575 0 7.0392 1.0995 9.8548 2.9766 2.8301-1.8771 6.1971-2.9766 9.84-2.9766 1.016 0 2.0029.1073 2.9754.2698l-.0146-.2698c0-9.81478 7.9681-17.7684 17.7941-17.7684 9.811 0 17.779 7.95362 17.779 17.7684l-.015.2263c.885-.1349 1.771-.2263 2.685-.2263 9.637 0 17.46 7.6678 17.75 17.2316z" fill="#fff"/></svg>