<svg fill="none" height="57" viewBox="0 0 273 57" width="273" xmlns="http://www.w3.org/2000/svg"><path d="m272.909 57c.034-.7022.091-1.3971.091-2.1067 0-20.9708-14.702-37.9664-32.854-37.9664-6.701 0-12.921 2.3276-18.122 6.3028-7.639-13.956-21.101-23.2297-36.445-23.2297-17.454 0-32.47 11.9942-39.25 29.2403-5.745-5.4115-13.288-8.7262-21.578-8.7262-3.549 0-6.96.6237-10.16 1.7384-4.033-6.6686-10.71-11.0416-18.2944-11.0416-7.191 0-13.5508 3.9408-17.6431 10.0324-2.7372-.4714-5.5826-.7292-8.5067-.7292-16.47 0-30.6652 7.9871-37.3644 19.5271-3.1995-1.9299-6.8884-3.0421-10.8282-3.0421-11.0029 0-20.11954 8.6426-21.9542 20.0009z" fill="#fff" opacity=".5"/></svg>