<svg fill="none" height="736" width="736" xmlns="http://www.w3.org/2000/svg"><g clip-rule="evenodd" fill-rule="evenodd" opacity=".05"><path d="m319.664 316.824 49.281 53.032-368.945-2.387 279.041-44.155z" fill="#5fa0b2"/><path d="m368.945 369.859-49.281 49.388-34.825-5.686-284.839-46.089z" fill="#706ba3"/><path d="m364.317 369.827-364.317-2.358 279.041-44.155 40.623-6.49 44.653 48.058z" fill="#cbcccb"/><path d="m364.317 369.83-364.317-2.358z" fill="#98aac6"/><path d="m319.664 419.247-34.825-5.686-284.839-46.089 364.317 2.358v4.662z" fill="#020304"/><path d="m117.518 348.874-117.518 18.596 285.38 1.847z" fill="#e4e4e3"/><path d="m323.992 284.399-4.326 32.423-96.389-100.256c11.605 9.671 99.916 67.706 99.916 67.706zm-4.328 134.847-105.265 89.11 70.44-94.567v-.229z" fill="#5fa0b2"/><path d="m510.849 513.246 1.14 1.598-101.051-60.55 5.462-31.293z" fill="#fff"/><path d="m445.992 416.742-29.593 6.256-46.435-54.056 365.871-13.768z" fill="#cbcccb"/><path d="m704.574 359.058-328.916 12.38 41.748 48.594zm-195.43-144.204h.122c-6.261 11.269-57.247 102.99-55.318 102.99v.112l-36.983-4.892zm-97.646 70.331 4.901 27.77-47.453 56.901-7.513-369.856z" fill="#fff"/><path d="m364.015 127.175-2.582-127.175 48.94 278.763z" fill="#cbcccb"/><path d="m416.964 313.072 36.984 4.891 281.887 37.218-365.871 13.768 46.435-55.989zm29.026 103.673 64.857 96.5-94.45-90.245z" fill="#020304"/><path d="m411.847 285.075 98.098-71.346s-.229.331-.687 1.13h-.116l-92.179 98.211-.566-.112-4.901-27.771zm-.909 169.221-49.505 281.667 7.513-366.104 47.453 53.144z" fill="#020304"/><path d="m319.664 419.244 4.667 35.279-109.932 53.831zm-96.387-202.678 96.389 100.256-40.624 6.49-.116-.799s-46.889-90.81-55.649-105.947z" fill="#706ba3"/><path d="m319.666 316.822-96.389-100.256c11.605 9.671 99.916 67.706 99.916 67.706l.799.127zm41.952 50.288v-1.169l-42.947-46.221-39.206 6.265-246.481 39.001zm-.186 368.852-41.768-316.716 44.652-44.75v220.694zm-147.033-227.606 70.44-94.567v-.229l34.825 5.686z" fill="#fff"/><path d="m364.316 364.882-44.652-48.058z" fill="#87cdd0"/><path d="m364.316 364.882-44.652-48.058 4.326-32.424 37.442-284.4 2.884 142.215z" fill="#020304"/><path d="m319.664 419.245 44.652-44.754v.005z" fill="#87cdd0"/><path d="m214.399 508.354 105.265-89.11 4.667 35.279zm64.643-185.042-.116-.799s-46.889-90.81-55.649-105.947l96.389 100.256zm29.412 46.543c0-33.407 27.079-60.491 60.492-60.491 33.407 0 60.491 27.084 60.491 60.491 0 33.413-27.084 60.497-60.491 60.497-33.413 0-60.492-27.084-60.492-60.497z" fill="#020304"/><path d="m330.475 361.804h76.944v-4.76h-76.944zm55.298 22.879a7.632 7.632 0 0 1 14.368 3.581v-12.496h-14.368zm14.368 3.63v-.049zm-21.642-11.683c0-5.281-4.278-9.559-9.554-9.559-5.281 0-9.554 4.278-9.554 9.559v33.685h-6.651v-35.21h-15.619v35.21h-6.646v-35.21h-1.34a2.01 2.01 0 0 1 -2.007-2.007v-.166a2.01 2.01 0 0 1 2.007-2.007h30.256v.029a10.845 10.845 0 0 1 9.554-5.705c4.131 0 7.717 2.309 9.554 5.705v-.029h30.25c1.106 0 2.008.901 2.008 2.007v.166a2.011 2.011 0 0 1 -2.008 2.007h-1.334v35.21h-6.651v-35.21h-15.62v35.21h-6.645zm-19.108.058v-.058zm-7.274 7.995a7.63 7.63 0 0 0 -14.368 3.581v-12.496h14.368zm-14.368 3.63v-.049zm50.928-52.428a3.041 3.041 0 0 0 -6.081 0v16.224h6.081zm-6.081.02v-.02zm-2.265-.02a3.04 3.04 0 0 0 -6.08 0v16.224h6.08zm-6.08.02v-.02zm-2.266-.02a3.04 3.04 0 0 0 -6.08 0v16.224h6.08zm-6.08.02v-.02zm-10.612-.02a3.04 3.04 0 0 0 -6.08 0v16.224h6.08zm-6.08.02v-.02zm14.426-.02a3.04 3.04 0 0 0 -6.08 0v16.224h6.08zm-6.08.02v-.02zm36.16-3.835v20.039h15.03c1.106 0 2.008.901 2.008 2.007v.166a2.011 2.011 0 0 1 -2.008 2.007h-79.614a2.01 2.01 0 0 1 -2.007-2.007v-.166a2.01 2.01 0 0 1 2.007-2.007h15.036v-20.039h-.702a1.284 1.284 0 0 1 -1.286-1.281v-.107c0-.707.575-1.286 1.286-1.286h50.952c.706 0 1.281.579 1.281 1.286v.107c0 .706-.575 1.281-1.281 1.281zm-63.244 35.327h30.918a11.46 11.46 0 0 0 -2.387 2.87h-28.531zm46.017 0h30.923v2.87h-28.531a11.586 11.586 0 0 0 -2.392-2.87zm-47.357-4.838h79.614c1.106 0 2.008.902 2.008 2.008v.17a2.01 2.01 0 0 1 -2.008 2.003h-33.086a11.503 11.503 0 0 0 -6.718-2.159c-2.46 0-4.799.78-6.719 2.159h-33.091a2.01 2.01 0 0 1 -2.007-2.003v-.17c0-1.106.901-2.008 2.007-2.008z" fill="#fff"/><path d="m363.941 613.7-2.509 122.259-36.214-274.696zm218.76-226-103.283-22.879 256.416-9.647zm-325.972-147.666-33.452-23.468 72.077 74.966zm225.682 3.307 27.532-29.612-50.402 92.203zm-234.682 236.8-32.506 27.113 64.462-86.537zm223.188 10.093 41.071 24.609-81.801-78.669z" fill="#cbcccb"/></g></svg>