<svg fill="none" height="112" width="303" xmlns="http://www.w3.org/2000/svg"><g clip-rule="evenodd" fill-rule="evenodd"><path d="m93.272 37.796h158.731l-2.451 7.215h-132.191l-7.261 29.121h-9.383l7.271-29.12h-17.168zm165.523 0h43.938l-2.451 7.215h-12.604l-7.26 29.121h-9.383l7.27-29.12h-21.961z" fill="#651c1e"/><path d="m242.991 48.822h28.05l-1.737 7.214h-22.719l-2.712 10.881h22.811l-1.737 7.215h-31.626l6.41-25.31zm-89.604 25.31 6.319-25.31h32.569l-4.823 19.05h-23.126l-1.561 6.26zm28.207-18.096h-14.318l-1.151 4.621h14.442l1.027-4.62zm10.729 18.096 6.319-25.31h9.37l-4.054 16.259c5.235.407 12.333.165 16.553-1.577h.001l3.666-14.682h9.369l-6.311 25.31h-9.378l.916-3.664c-3.787 2.194-10.762 3.664-17.073 3.664zm-72.796-12.233 3.321-13.303h9.369l-1.518 6.089h11.854l1.464-5.863h9.37l-6.311 25.31h-30.599l1.802-7.215h21.221l1.252-5.017h-21.226z" fill="#651c1e"/><path d="m48.563 48.233 7.448 8.015-55.76-.361 42.173-6.674 6.14-.98z" fill="#5fa0b2"/><path d="m56.011 56.248-7.448 7.464-5.263-.86-43.05-6.965 55.76.36z" fill="#706ba3"/><path d="m55.312 56.243-55.06-.356 42.172-6.674 6.14-.98 6.748 7.263z" fill="#cbcccb"/><path d="m55.312 56.243-55.06-.356z" fill="#98aac6"/><path d="m48.563 63.712-5.263-.86-43.05-6.965 55.06.356v.705l-6.748 6.764z" fill="#072859"/><path d="m18.012 53.076-17.76 2.81 43.13.28z" fill="#e4e4e3"/><path d="m49.217 43.333-.654 4.9-14.567-15.153c1.753 1.461 15.1 10.232 15.1 10.232l.121.02zm-.654 20.379-15.909 13.467 10.646-14.292v-.035z" fill="#5fa0b2"/><path d="m77.457 77.918.173.242-15.272-9.151.825-4.73 14.274 13.64z" fill="#fff"/><path d="m67.655 63.334-4.472.945-7.018-8.17 55.295-2.08z" fill="#cbcccb"/><path d="m106.736 54.615-49.71 1.871 6.31 7.344zm-29.536-21.793h.018c-.946 1.703-8.652 15.565-8.36 15.565v.017l-5.59-.74 13.932-14.841zm-14.758 10.628.74 4.198-7.171 8.6-1.135-55.898z" fill="#fff"/><path d="m55.266 19.57-.39-19.22 7.396 42.13z" fill="#cbcccb"/><path d="m63.268 47.665 5.59.74 42.602 5.624-55.295 2.081 7.018-8.462zm4.387 15.669 9.802 14.584-14.274-13.638 4.472-.945z" fill="#072859"/><path d="m62.495 43.434 14.826-10.784s-.034.05-.104.17h-.017l-13.932 14.846-.085-.017-.74-4.197.052-.017zm-.137 25.575-7.482 42.569 1.135-55.33 7.172 8.031z" fill="#072859"/><path d="m48.563 63.712.706 5.331-16.615 8.136 15.91-13.467zm-14.567-30.632 14.567 15.153-6.14.98-.017-.12s-7.087-13.725-8.41-16.012z" fill="#706ba3"/><path d="m48.563 48.233-14.567-15.153c1.753 1.461 15.1 10.232 15.1 10.232l.121.02-.654 4.9zm6.341 7.599v-.177l-6.491-6.985-5.925.947-37.253 5.893 49.668.321zm-.028 55.746-6.313-47.866 6.749-6.763v33.354zm-22.222-34.399 10.646-14.292v-.035l5.263.86z" fill="#fff"/><path d="m55.312 55.496-6.749-7.264z" fill="#87cdd0"/><path d="m55.312 55.496-6.749-7.263.654-4.9 5.659-42.983.436 21.493z" fill="#072859"/><path d="m48.563 63.712 6.749-6.764z" fill="#87cdd0"/><path d="m32.654 77.18 15.91-13.468.705 5.331-16.615 8.136zm9.77-27.966-.018-.121s-7.087-13.725-8.41-16.012l14.567 15.152-6.14.98z" fill="#072859"/><path d="m46.869 56.247a9.142 9.142 0 0 1 18.285 0 9.143 9.143 0 1 1 -18.285 0z" fill="#651c1e"/><path d="m50.197 55.031h11.629v-.72h-11.629zm8.357 3.458a1.153 1.153 0 0 1 2.172.541v-1.889h-2.172zm2.172.548v-.007zm-3.271-1.765a1.444 1.444 0 1 0 -2.888 0v5.09h-1.005v-5.32h-2.36v5.32h-1.005v-5.32h-.203a.304.304 0 0 1 -.303-.304v-.025c0-.167.136-.304.303-.304h4.573v.005a1.64 1.64 0 0 1 2.888 0v-.005h4.572c.167 0 .303.137.303.304v.025a.304.304 0 0 1 -.303.303h-.202v5.322h-1.005v-5.323h-2.36v5.322h-1.005v-5.091zm-2.888.009v-.01zm-1.1 1.208a1.154 1.154 0 0 0 -2.17.541v-1.889h2.17zm-2.17.548v-.007zm7.696-7.923a.46.46 0 0 0 -.919 0v2.452h.92v-2.452zm-.919.003v-.003zm-.342-.003a.46.46 0 0 0 -.92 0v2.452h.92zm-.92.003v-.003zm-.341-.003a.46.46 0 0 0 -.92 0v2.452h.92zm-.92.003v-.003zm-1.603-.003a.46.46 0 0 0 -.92 0v2.452h.92zm-.92.003v-.003zm2.181-.003a.46.46 0 0 0 -.919 0v2.452h.92v-2.452zm-.919.003v-.003zm5.465-.58v3.029h2.272c.167 0 .303.136.303.303v.025a.304.304 0 0 1 -.303.303h-12.032a.304.304 0 0 1 -.304-.303v-.025c0-.167.136-.303.303-.303h2.273v-3.029h-.106a.194.194 0 0 1 -.195-.194v-.016c0-.106.087-.194.195-.194h7.7c.107 0 .194.088.194.194v.017a.194.194 0 0 1 -.194.193zm-9.558 5.34h4.673a1.728 1.728 0 0 0 -.361.433h-4.312v-.434zm6.955 0h4.673v.433h-4.312a1.748 1.748 0 0 0 -.361-.434zm-7.157-.732h12.032c.167 0 .303.136.303.303v.026a.304.304 0 0 1 -.303.303h-5a1.739 1.739 0 0 0 -2.031 0h-5.002a.304.304 0 0 1 -.303-.303v-.025c0-.168.136-.304.303-.304z" fill="#fff"/><path d="m55.255 93.1-.38 18.478-5.472-41.516 5.852 23.039zm33.062-34.155-15.61-3.458 38.753-1.458zm-49.266-22.318-5.055-3.546 10.893 11.33zm34.109.499 4.16-4.475-7.617 13.935 3.456-9.46zm-35.469 35.789-4.913 4.098 9.743-13.079zm33.731 1.525 6.208 3.72-12.363-11.89 6.156 8.17z" fill="#cbcccb"/><path d="m233.292 27.585h4.623l-.035.34.036.357-.102-.01a21.34 21.34 0 0 0 -.807-.07 13.964 13.964 0 0 0 -.912-.034v5.526l-.462-.042-.467.032v-5.517c-.29 0-.586 0-.874.018-.309.018-.622.053-.931.086l-.102.011.036-.35-.03-.296-.039.072c-.528.987-1.059 1.973-1.576 2.967a33.286 33.286 0 0 0 -.89 1.817 8.56 8.56 0 0 0 -.429 1.134l-.02.068-.352-.042-.556.05.093-.144c.291-.451.543-.928.764-1.417a78.588 78.588 0 0 0 -.809-1.385c-.29-.483-.579-.97-.883-1.446-.339-.533-.681-1.064-1.022-1.597l-.087-.136.692.034.504-.03.024.05c.337.691.698 1.37 1.089 2.031.31.527.637 1.045.984 1.548.194-.369.388-.738.576-1.11.212-.42.415-.846.614-1.271.185-.393.366-.79.527-1.192l.023-.057.345.03.461-.037-.006.012zm-117.515 5.684a2.694 2.694 0 0 1 -.911.387 4.713 4.713 0 0 1 -1.05.117c-.867 0-1.68-.23-2.295-.864-.614-.633-.838-1.45-.838-2.317 0-.91.285-1.711.972-2.32.668-.592 1.497-.817 2.377-.817.323 0 .643.038.958.106.322.069.636.169.938.3l.075.032-.03.075a4.192 4.192 0 0 0 -.177.651l-.011.059-.169.024-.029-.038a1.608 1.608 0 0 0 -.321-.278c-.378-.27-.8-.435-1.268-.435-.698 0-1.286.236-1.719.79-.426.546-.58 1.208-.58 1.89 0 .7.155 1.389.621 1.93.424.493.97.716 1.617.716.321 0 .634-.068.933-.18a2.84 2.84 0 0 0 .85-.501l.154-.134-.063.785zm2.426-5.102c-.29 0-.586 0-.873.018-.31.018-.623.053-.932.086l-.102.011.037-.35-.036-.347h4.655l-.035.34.036.357-.102-.01a21.34 21.34 0 0 0 -.807-.07 13.934 13.934 0 0 0 -.911-.034v5.526l-.463-.042-.467.032zm5.712 3.172h-2.089c-.182.45-.381.918-.542 1.375-.11.296-.204.601-.292.904l-.019.065-.378-.031-.441.038 2.783-6.235h.309l2.674 6.242-.579-.045-.519.03-.021-.06a36.77 36.77 0 0 0 -.527-1.435 29.18 29.18 0 0 0 -.359-.848zm5.421-.991c.243.045.474.136.686.281.393.27.581.652.581 1.127 0 .653-.279 1.164-.815 1.535-.268.185-.592.275-.912.317a7.75 7.75 0 0 1 -.964.044h-1.366v-6.067h1.826c.468 0 1.089.041 1.505.28.374.214.51.58.51.998 0 .4-.132.75-.409 1.04-.186.194-.403.34-.642.445zm3.278.614v2.732l-.463-.042-.467.032v-6.099h1.635c.521 0 1.342.034 1.794.325.407.261.524.72.524 1.18 0 .478-.133.921-.495 1.248-.371.335-.946.505-1.423.6a1.85 1.85 0 0 1 -.318.037c-.073.003-.148.008-.221.008-.119 0-.24-.001-.36-.009a20.307 20.307 0 0 1 -.206-.012zm3.627-.335c0-.904.288-1.698.954-2.32.649-.605 1.455-.852 2.336-.852.836 0 1.636.198 2.304.718.747.583 1.063 1.386 1.063 2.324 0 .917-.276 1.736-.945 2.375-.673.644-1.518.901-2.44.901-.889 0-1.724-.233-2.375-.858-.641-.615-.897-1.41-.897-2.288zm12.043-2.443-1.735-.025-1.746.025v5.51l-.462-.042-.467.032v-6.099h5.339v6.11l-.462-.043-.467.032zm1.915 2.443c0-.904.287-1.698.953-2.32.65-.605 1.456-.852 2.336-.852.836 0 1.637.198 2.304.718.748.583 1.063 1.386 1.063 2.324 0 .917-.275 1.736-.944 2.375-.673.644-1.518.901-2.44.901-.89 0-1.724-.233-2.376-.858-.641-.615-.896-1.41-.896-2.288zm9.478-1.891c-.38.858-.745 1.724-1.09 2.598a40.708 40.708 0 0 0 -.844 2.296l-.021.064-.374-.042-.464.051.074-.139c.259-.49.49-1.042.717-1.548.371-.833.731-1.67 1.091-2.506.251-.585.567-1.263.759-1.867l.018-.058h.525l.022.052c.184.457.374.913.562 1.368.371.897.748 1.792 1.126 2.686.253.596.52 1.293.82 1.865l.07.13-.556-.034-.483.04zm4.543 1.448h.704c.537 0 1.329.044 1.785.362.407.282.534.744.534 1.22 0 .479-.133.922-.495 1.25-.371.334-.947.504-1.426.6-.162.032-.382.033-.547.036-.158.003-.317.008-.474.008h-1.011v-6.08l.462.03.468-.03zm8.687 3.085a2.69 2.69 0 0 1 -.912.387 4.69 4.69 0 0 1 -1.049.117c-.867 0-1.681-.23-2.295-.864-.614-.633-.839-1.45-.839-2.317 0-.91.286-1.711.973-2.32.667-.592 1.497-.817 2.378-.817.321 0 .642.038.957.106.322.069.636.169.939.3l.074.032-.03.075a3.866 3.866 0 0 0 -.178.65l-.01.06-.169.024-.029-.038a1.636 1.636 0 0 0 -.321-.278c-.379-.27-.8-.435-1.268-.435-.698 0-1.286.236-1.719.79-.427.546-.581 1.208-.581 1.89 0 .7.157 1.389.622 1.93.424.493.97.716 1.617.716.32 0 .634-.068.932-.18.312-.118.598-.284.85-.501l.154-.134-.062.785zm2.884-2.962a403.33 403.33 0 0 0 2.056 2.331l.72.892v.163l-.558-.041-.529.028-.027-.038a10.42 10.42 0 0 0 -.289-.4 6.614 6.614 0 0 0 -.304-.382l-1.88-2.2a.027.027 0 0 0 -.008-.007v3.041l-.463-.042-.467.032v-6.105l.462.032.468-.032-.002 2.697a.321.321 0 0 0 .091-.051c.095-.078.191-.175.28-.26.053-.054.108-.105.164-.155l2.157-2.228.378.029.565-.041-2.814 2.736zm2.808.32c0-.904.288-1.698.954-2.32.649-.605 1.455-.852 2.336-.852.835 0 1.636.198 2.303.718.748.583 1.064 1.386 1.064 2.324 0 .917-.276 1.736-.945 2.375-.673.644-1.518.901-2.44.901-.889 0-1.724-.233-2.375-.858-.642-.615-.897-1.41-.897-2.288zm8.554-.46h1.26c.143 0 .288-.009.432-.017.109-.008.228-.018.338-.018h.094l-.036.305.035.33h-.093a4.66 4.66 0 0 1 -.441-.027c-.103-.01-.226-.025-.329-.025h-1.26v2.362c.273-.001.547-.01.819-.017.22-.006.446-.017.665-.017.113 0 .235 0 .346-.012.146-.017.294-.042.438-.065l.107-.017-.036.355.035.348h-3.304v-6.067h3.252l-.035.34.037.371-.113-.026a6.222 6.222 0 0 0 -.419-.086 2.227 2.227 0 0 0 -.342-.025h-1.45zm6.758-2.008v2.025h.713c.56 0 1.354.048 1.836.366.425.28.57.736.57 1.23 0 .526-.173.987-.559 1.35-.405.379-.919.522-1.465.522h-2.025v-6.067h3.708l-.036.109c-.008.023-.011.06-.014.084-.005.05-.008.098-.008.144l.037.374-.113-.026a6.46 6.46 0 0 0 -.418-.086 2.25 2.25 0 0 0 -.343-.025zm5.742 2.532c-.064-.003-.134-.002-.194-.002h-.419v2.995l-.462-.032-.467.032v-6.105l.461.032.468-.032v2.498c.07.004.144.003.211.003h.43c.111-.75.427-1.399 1.011-1.895.595-.506 1.298-.73 2.077-.73.808 0 1.568.204 2.201.719.723.59 1.009 1.404 1.009 2.323 0 .902-.257 1.722-.899 2.369-.632.638-1.429.907-2.32.907-.86 0-1.65-.24-2.261-.862-.596-.608-.832-1.384-.846-2.22zm8.198.271v2.732l-.463-.042-.466.032v-6.099h1.634c.522 0 1.343.034 1.795.325.406.261.524.72.524 1.18 0 .478-.134.921-.496 1.248-.371.335-.946.505-1.423.6a1.84 1.84 0 0 1 -.319.037c-.071.003-.148.008-.22.008-.119 0-.24-.001-.359-.009a20.504 20.504 0 0 1 -.207-.012zm3.628-.335c0-.904.287-1.698.953-2.32.651-.605 1.455-.852 2.336-.852.836 0 1.637.198 2.304.718.747.583 1.063 1.386 1.063 2.324 0 .917-.276 1.736-.944 2.375-.673.644-1.519.901-2.441.901-.888 0-1.723-.233-2.374-.858-.642-.615-.897-1.41-.897-2.288zm14.451-2.443-1.735-.025-1.745.025v5.51l-.462-.042-.468.032v-6.099h5.34v6.11l-.463-.043-.467.032zm13.683 1.983h1.259c.144 0 .29-.009.433-.017.109-.008.229-.018.338-.018h.094l-.036.305.035.33h-.093a4.65 4.65 0 0 1 -.44-.027c-.104-.01-.227-.025-.331-.025h-1.259v2.362c.273-.001.547-.01.82-.017.219-.006.445-.017.665-.017.112 0 .234 0 .345-.012.146-.017.294-.042.439-.065l.107-.017-.037.355.035.348h-3.304v-6.067h3.252l-.036.34.039.371-.114-.026a6.222 6.222 0 0 0 -.419-.086 2.227 2.227 0 0 0 -.342-.025h-1.45zm6.097 2.887v-5.5l.466.031c.116 0 .25-.002.363-.024l.1-.02v5.513l.903.024.853-.024v-5.5l.463.031.467-.032v6.099h-6.301v-6.099l.462.032.468-.032v5.501l.85.024zm5.937-2.887h1.259c.144 0 .289-.009.432-.017.111-.008.229-.018.339-.018h.094l-.037.305.036.33h-.093a4.67 4.67 0 0 1 -.44-.027c-.104-.01-.227-.025-.331-.025h-1.259v2.362c.272-.001.547-.01.82-.017.219-.006.445-.017.664-.017.112 0 .235 0 .346-.012.146-.017.294-.042.439-.065l.106-.017-.036.355.035.348h-3.303v-6.067h3.251l-.036.34.039.371-.115-.026a6.069 6.069 0 0 0 -.418-.086 2.218 2.218 0 0 0 -.342-.025h-1.45zm8.055 3.102a2.699 2.699 0 0 1 -.912.387 4.697 4.697 0 0 1 -1.049.117c-.867 0-1.681-.23-2.295-.864-.614-.633-.839-1.45-.839-2.317 0-.91.286-1.711.973-2.32.668-.592 1.497-.817 2.377-.817.322 0 .643.038.958.106.321.069.636.169.938.3l.075.032-.03.075a3.866 3.866 0 0 0 -.178.65l-.01.06-.169.024-.029-.038a1.665 1.665 0 0 0 -.321-.278c-.379-.27-.8-.435-1.268-.435-.698 0-1.286.236-1.72.79-.426.546-.58 1.208-.58 1.89 0 .7.156 1.389.622 1.93.424.493.969.716 1.617.716.32 0 .634-.068.933-.18.31-.118.597-.284.849-.501l.154-.134-.062.785zm2.426-5.102c-.289 0-.585 0-.873.018-.31.018-.623.053-.933.086l-.101.011.036-.35-.035-.347h4.655l-.036.34.037.357-.102-.01a21.52 21.52 0 0 0 -.807-.07 13.964 13.964 0 0 0 -.912-.034v5.526l-.462-.042-.467.032zm6.315 2.18c.244.046.474.137.686.282.394.27.582.652.582 1.127 0 .653-.28 1.164-.816 1.535-.267.185-.592.275-.911.317a7.67 7.67 0 0 1 -.964.044h-1.366v-6.067h1.825c.469 0 1.09.041 1.506.28.373.214.509.58.509.998 0 .4-.131.75-.409 1.04-.186.194-.402.34-.642.445zm3.279 1.735c.084-.083.181-.2.253-.276l.71-.78c.257-.283.511-.568.761-.857.317-.365.63-.73.942-1.096.252-.338.57-.69.841-1.016.048-.058.358-.472.437-.472h.465v6.11l-.462-.043-.467.032v-4.701a11.07 11.07 0 0 0 -.21.232c-.231.25-.458.5-.684.753-.304.337-.605.676-.9 1.021-.341.398-.684.794-1.022 1.195-.265.314-.527.63-.782.951-.116.144-.287.344-.379.501l-.025.042h-.408v-6.117l.104.026c.035.01.088.012.125.016.078.005.156.008.231.008l.47-.032zm6.74 0c.085-.083.182-.2.253-.276l.711-.78c.257-.283.51-.568.76-.857.317-.365.63-.73.942-1.096.253-.338.571-.69.842-1.016.048-.058.357-.472.437-.472h.465v6.11l-.463-.043-.466.032v-4.701a9.372 9.372 0 0 0 -.211.232c-.231.25-.457.5-.684.753-.304.337-.605.676-.9 1.021-.34.398-.684.794-1.022 1.195-.264.314-.526.63-.782.951-.116.144-.287.344-.379.501l-.024.042h-.408v-6.117l.103.026c.036.01.088.012.126.016.078.005.155.008.231.008l.469-.032zm3.18-5.677a1.588 1.588 0 0 1 -.54.671 1.56 1.56 0 0 1 -.905.268 1.39 1.39 0 0 1 -.851-.269 1.571 1.571 0 0 1 -.525-.665l-.025-.06.326-.242.047.08c.236.4.595.574 1.055.574.219 0 .434-.042.626-.149a1.16 1.16 0 0 0 .437-.426l.046-.075.339.229zm-158.762 2.488-.822 1.915h1.651zm4.596 1.291h.296c.199 0 .404-.005.602-.03.163-.02.319-.07.469-.136.421-.187.615-.51.615-.968 0-.293-.074-.58-.333-.746-.29-.185-.715-.223-1.051-.223h-.598zm0 2.972h.783c.371 0 .715-.098.992-.351.266-.243.38-.551.38-.909 0-.392-.116-.744-.463-.96-.345-.213-.851-.256-1.247-.256h-.445zm5.138-2.695c.052.002.116 0 .159 0 .052.007.104.009.156.009h.302c.05-.007.103-.018.151-.017.36-.034.697-.151.95-.416.24-.252.341-.56.341-.904 0-.25-.05-.502-.208-.703-.127-.162-.292-.299-.505-.32a5.019 5.019 0 0 0 -.481-.029h-.865zm8.74-1.746a2.034 2.034 0 0 0 -.762-.598 2.316 2.316 0 0 0 -.974-.21c-.69 0-1.282.225-1.726.762-.48.582-.634 1.324-.634 2.062 0 .713.165 1.414.67 1.94.436.456.986.65 1.611.65.798 0 1.398-.349 1.827-1.018.34-.529.516-1.108.516-1.737 0-.341-.028-.69-.111-1.022a2.207 2.207 0 0 0 -.417-.83zm13.958 0a2.057 2.057 0 0 0 -.762-.598 2.317 2.317 0 0 0 -.975-.21c-.69 0-1.282.225-1.726.762-.48.582-.634 1.324-.634 2.062 0 .713.165 1.414.67 1.94.436.456.986.65 1.612.65.797 0 1.398-.349 1.826-1.018a3.148 3.148 0 0 0 .517-1.737c0-.341-.028-.69-.111-1.022a2.222 2.222 0 0 0 -.417-.83zm8.908 4.415h.768c.359-.034.697-.15.95-.416.24-.252.341-.56.341-.904 0-.264-.051-.53-.209-.748-.123-.169-.291-.33-.508-.352a4.925 4.925 0 0 0 -.477-.03h-.865zm19.492-4.416a2.041 2.041 0 0 0 -.762-.597 2.32 2.32 0 0 0 -.975-.21c-.689 0-1.281.225-1.725.762-.48.582-.634 1.324-.634 2.062 0 .713.164 1.414.669 1.94.436.456.987.65 1.612.65.797 0 1.397-.349 1.827-1.018.34-.529.515-1.108.515-1.737 0-.341-.027-.69-.11-1.022a2.207 2.207 0 0 0 -.417-.83zm10.199 4.424h.782c.379 0 .716-.109.986-.38.257-.259.378-.57.378-.935 0-.278-.075-.531-.25-.748-.135-.166-.322-.343-.546-.365a4.885 4.885 0 0 0 -.476-.03h-.874zm10.576-4.424a2.04 2.04 0 0 0 -1.623-.806c-.658 0-1.205.231-1.611.754-.455.588-.593 1.342-.593 2.07 0 .7.149 1.407.629 1.942.397.444.902.646 1.497.646.689 0 1.221-.299 1.621-.856.403-.56.566-1.212.566-1.898 0-.342-.025-.694-.103-1.027a2.28 2.28 0 0 0 -.383-.825zm3.364 1.747c.052.002.116 0 .16 0 .051.007.104.009.155.009h.302c.05-.007.104-.018.152-.017.359-.034.696-.151.95-.416.24-.252.34-.56.34-.904 0-.25-.05-.502-.207-.703-.128-.162-.293-.299-.505-.32a5.06 5.06 0 0 0 -.482-.029h-.865zm8.74-1.746a2.026 2.026 0 0 0 -.762-.598 2.316 2.316 0 0 0 -.974-.21c-.689 0-1.282.225-1.725.762-.481.582-.635 1.324-.635 2.062 0 .713.165 1.414.67 1.94.436.456.986.65 1.612.65.797 0 1.397-.349 1.827-1.018.34-.529.515-1.108.515-1.737 0-.341-.028-.69-.11-1.022a2.194 2.194 0 0 0 -.418-.83zm49.992 1.47h.296c.199 0 .405-.006.603-.031.162-.02.319-.07.469-.136.421-.187.614-.51.614-.968 0-.293-.074-.58-.333-.746-.289-.185-.714-.223-1.051-.223h-.598v2.103zm0 2.971h.783c.372 0 .715-.098.992-.351.266-.243.381-.551.381-.909 0-.392-.117-.744-.464-.96-.345-.213-.851-.256-1.247-.256h-.445zm-95.61 48.161h51.608l17.923-1.303h-87.454zm-.592 10.574-.226-.033-.226.033a22.937 22.937 0 0 0 -.466-1.505 31.74 31.74 0 0 0 -.566-1.547c-.313.616-.693 1.634-1.14 3.052l-.227-.033-.226.033c-.508-1.561-1.003-2.903-1.484-4.025l.369.034.369-.025c.173.594.335 1.118.486 1.572.179.527.372 1.043.578 1.547.174-.37.378-.87.613-1.501.234-.63.422-1.17.562-1.618l.218.025.218-.025c.117.458.277.98.478 1.568.201.587.399 1.104.595 1.551.223-.53.452-1.09.687-1.677.291-.727.473-1.207.545-1.442l.269.025.26-.025c-.067.134-.211.444-.432.928s-.435.982-.642 1.492c-.279.679-.483 1.21-.612 1.596zm6.524 0-.226-.033-.227.033a23.471 23.471 0 0 0 -.465-1.505 32.5 32.5 0 0 0 -.566-1.547c-.314.616-.694 1.634-1.141 3.052l-.226-.033-.227.033c-.508-1.561-1.003-2.903-1.484-4.025l.37.034.369-.025c.173.594.335 1.118.486 1.572.178.527.371 1.043.578 1.547.173-.37.377-.87.612-1.501.235-.63.422-1.17.562-1.618l.218.025.218-.025c.117.458.277.98.478 1.568.202.587.4 1.104.595 1.551.224-.53.453-1.09.687-1.677.292-.727.473-1.207.546-1.442l.268.025.26-.025c-.067.134-.211.444-.431.928-.221.484-.436.982-.643 1.492a25.95 25.95 0 0 0 -.611 1.596zm6.523 0-.226-.033-.226.033a22.937 22.937 0 0 0 -.466-1.505c-.204-.6-.392-1.115-.566-1.547-.313.616-.693 1.634-1.141 3.052l-.226-.033-.226.033c-.508-1.561-1.003-2.903-1.484-4.025l.369.034.369-.025c.173.594.335 1.118.486 1.572.179.527.372 1.043.578 1.547.173-.37.378-.87.612-1.501.235-.63.423-1.17.562-1.618l.218.025.219-.025c.117.458.276.98.478 1.568.201.587.399 1.104.595 1.551.223-.53.452-1.09.687-1.677.291-.727.472-1.207.545-1.442l.269.025.26-.025c-.068.134-.211.444-.432.928s-.435.982-.642 1.492c-.279.679-.483 1.21-.612 1.596zm2.373-.948c.129 0 .244.051.344.151a.493.493 0 0 1 .008.705.462.462 0 0 1 -.352.151.506.506 0 0 1 -.36-.143.473.473 0 0 1 -.151-.36c0-.134.05-.252.151-.353.1-.1.221-.15.36-.15zm1.752.126c.107.18.247.328.42.445a.958.958 0 0 0 .545.176.85.85 0 0 0 .57-.218.69.69 0 0 0 .252-.545c0-.347-.33-.615-.99-.805s-.99-.542-.99-1.056c0-.392.129-.697.386-.914.257-.218.585-.328.982-.328a2.148 2.148 0 0 1 .947.219c-.084.19-.151.388-.201.595h-.076a.936.936 0 0 0 -.285-.386.655.655 0 0 0 -.428-.167.815.815 0 0 0 -.545.184c-.145.123-.218.293-.218.512 0 .335.33.609.99.822.66.212.99.553.99 1.022 0 .42-.165.752-.495.998-.291.218-.64.327-1.049.327a2.28 2.28 0 0 1 -.549-.072 1.802 1.802 0 0 1 -.499-.196l.101-.306a2.21 2.21 0 0 0 .075-.307zm3.941-4.287v1.084h.889a.75.75 0 0 0 0 .319h-.889v2.379c0 .342.028.585.084.73a.53.53 0 0 0 .537.363.94.94 0 0 0 .205-.026c.076-.016.133-.028.172-.033v.201c-.134.05-.254.088-.36.113a1.499 1.499 0 0 1 -.344.038c-.336 0-.576-.09-.721-.268-.163-.203-.244-.552-.244-1.052v-2.445h-.519a.555.555 0 0 0 .016-.159.622.622 0 0 0 -.016-.16h.519v-.825zm4.52 4.396v.244c.017.117.093.176.227.176a.998.998 0 0 0 .243-.034v.185l-.12.046a1 1 0 0 1 -.176.046c-.064.011-.14.017-.229.017a.63.63 0 0 1 -.395-.118c-.102-.078-.165-.209-.187-.394l-.076.076a1.708 1.708 0 0 1 -1.245.528c-.309 0-.573-.095-.791-.285a.93.93 0 0 1 -.328-.738c0-.425.159-.73.478-.914.195-.112.553-.21 1.073-.293.363-.061.592-.117.688-.168.134-.072.201-.204.201-.394 0-.313-.086-.555-.256-.725s-.412-.256-.726-.256c-.268 0-.503.072-.704.218-.156.112-.254.232-.293.36h-.092v-.469a2.79 2.79 0 0 1 .658-.344 2.06 2.06 0 0 1 .691-.118c.906 0 1.359.47 1.359 1.409zm-.671-1.382-.294.058c-.486.095-.793.17-.922.226-.335.151-.503.394-.503.73 0 .256.073.452.218.587.145.134.346.201.604.201a.802.802 0 0 0 .352-.097 1.2 1.2 0 0 0 .319-.222 2.94 2.94 0 0 0 .146-.138c.053-.053.08-.094.08-.122v-1.224zm4.897-1.93.268.034.268-.034c-.095.198-.277.596-.545 1.197-.245.55-.455 1.032-.628 1.447a23.12 23.12 0 0 0 -.537 1.381l-.251-.033-.261.033a73.01 73.01 0 0 0 -.729-1.866 54.15 54.15 0 0 0 -.914-2.15l.377.025.369-.034c.257.853.674 1.932 1.25 3.237l.084-.118a.537.537 0 0 0 .075-.117l.503-1.186zm1.97-1.084v1.084h.889a.75.75 0 0 0 0 .319h-.889v2.379c0 .342.028.585.084.73a.53.53 0 0 0 .537.363c.062 0 .13-.009.205-.026.076-.016.133-.028.172-.033v.201c-.134.05-.254.088-.36.113a1.499 1.499 0 0 1 -.344.038c-.336 0-.576-.09-.722-.268-.161-.203-.243-.552-.243-1.052v-2.445h-.519a.594.594 0 0 0 .016-.159.67.67 0 0 0 -.016-.16h.519v-.825zm5.022 5.101-.335-.025-.335.025v-.72c-.274.524-.718.787-1.333.787-.47 0-.817-.127-1.044-.383-.226-.254-.34-.666-.34-1.23v-2.47l.335.033.336-.025v2.264c0 .47.077.82.231 1.052.154.233.415.348.784.348.386 0 .665-.15.838-.454.129-.223.193-.524.193-.899v-2.32l.335.034.335-.025zm1.36-4.008.335.025.335-.034v.848l.042-.101c.151-.24.308-.425.47-.554.195-.156.391-.235.586-.235.112 0 .199.014.26.042l-.117.705a1.048 1.048 0 0 1 -.176-.072.548.548 0 0 0 -.218-.062.845.845 0 0 0 -.293.054.59.59 0 0 0 -.243.155 1.157 1.157 0 0 0 -.252.463 2.57 2.57 0 0 0 -.059.605v2.177l-.335-.033-.335.025zm3.63 4.016-.336-.033-.335.025v-4.008l.335.025.336-.025zm-.336-5.023a.415.415 0 0 1 -.302-.125.416.416 0 0 1 -.125-.301.41.41 0 0 1 .125-.302.425.425 0 0 1 .6-.004c.086.08.13.183.13.306a.413.413 0 0 1 -.126.301.412.412 0 0 1 -.302.126zm1.761 4.201c.106.18.246.328.419.445a.958.958 0 0 0 .545.176.85.85 0 0 0 .571-.218.69.69 0 0 0 .251-.545c0-.347-.329-.615-.989-.805s-.99-.542-.99-1.056c0-.392.129-.697.386-.914.257-.218.584-.328.981-.328a2.142 2.142 0 0 1 .948.219c-.084.19-.151.388-.201.595h-.076a.945.945 0 0 0 -.285-.386.657.657 0 0 0 -.428-.167c-.218 0-.4.061-.545.184s-.218.293-.218.512c0 .335.33.609.989.822.66.212.99.553.99 1.022 0 .42-.165.752-.495.998-.29.218-.64.327-1.048.327a2.28 2.28 0 0 1 -.549-.072 1.79 1.79 0 0 1 -.499-.196l.101-.306a2.21 2.21 0 0 0 .075-.307zm3.941-4.287v1.084h.889a1.416 1.416 0 0 0 -.017.177.76.76 0 0 0 .017.142h-.889v2.379c0 .342.028.585.084.73a.53.53 0 0 0 .537.363.94.94 0 0 0 .205-.026c.075-.016.133-.028.172-.033v.201a3 3 0 0 1 -.361.113 1.499 1.499 0 0 1 -.344.038c-.335 0-.575-.09-.721-.268-.162-.203-.243-.552-.243-1.052v-2.445h-.519a.547.547 0 0 0 .017-.159.616.616 0 0 0 -.017-.16h.519v-.825zm2.231 4.161c.128 0 .243.051.343.151a.497.497 0 0 1 .009.705.465.465 0 0 1 -.352.151.509.509 0 0 1 -.361-.143.476.476 0 0 1 -.151-.36c0-.134.051-.252.151-.353.101-.1.221-.15.361-.15zm1.819-3.068.335.025.336-.034v.848l.042-.101c.151-.24.308-.425.47-.554.195-.156.391-.235.586-.235.112 0 .198.014.26.042l-.117.705a1.048 1.048 0 0 1 -.176-.072.548.548 0 0 0 -.218-.062.845.845 0 0 0 -.293.054.59.59 0 0 0 -.243.155 1.157 1.157 0 0 0 -.252.463 2.57 2.57 0 0 0 -.059.605v2.177l-.336-.033-.335.025zm6.096 4.008-.336-.025-.335.025v-.72c-.274.524-.718.787-1.333.787-.47 0-.818-.127-1.044-.383-.226-.254-.34-.666-.34-1.23v-2.47l.336.033.335-.025v2.264c0 .47.077.82.23 1.052.154.233.416.348.785.348.386 0 .665-.15.838-.454.129-.223.193-.524.193-.899v-2.32l.335.034.336-.025zm-49.225-8.532h36.537l12.689-.922h-61.915z" fill="#072859"/></g></svg>