<svg fill="none" height="74" width="200" xmlns="http://www.w3.org/2000/svg" xmlns:xlink="http://www.w3.org/1999/xlink"><clipPath id="a"><path d="m0 0h200v73.922h-200z"/></clipPath><g clip-path="url(#a)" clip-rule="evenodd" fill-rule="evenodd"><path d="m61.604 24.963h104.839l-1.619 4.766h-87.31l-4.794 19.234h-6.197l4.801-19.234h-11.339l1.62-4.766zm109.324 0h29.021l-1.619 4.766h-8.325l-4.795 19.234h-6.198l4.802-19.234h-14.504z" fill="#651c1e"/><path d="m160.49 32.246h18.527l-1.148 4.765h-15.005l-1.791 7.186h15.066l-1.148 4.766h-20.888l4.234-16.717zm-59.181 16.717 4.173-16.717h21.511l-3.185 12.582h-15.275l-1.031 4.135zm18.629-11.952h-9.456l-.76 3.052h9.538zm7.087 11.952 4.174-16.717h6.188l-2.677 10.738c3.457.27 8.145.11 10.933-1.041l2.421-9.697h6.189l-4.169 16.717h-6.193l.604-2.42c-2.501 1.449-7.108 2.42-11.276 2.42zm-48.08-8.08 2.193-8.786h6.189l-1.003 4.021h7.83l.966-3.873h6.189l-4.169 16.718h-20.21l1.19-4.766h14.016l.828-3.313h-14.02v-.001z" fill="#651c1e"/><path d="m32.075 31.856 4.92 5.294-36.83-.238 27.855-4.408z" fill="#5fa0b2"/><path d="m36.994 37.15-4.92 4.93-3.475-.567-28.433-4.601z" fill="#706ba3"/><path d="m36.532 37.147-36.366-.235 27.854-4.408 4.055-.648 4.457 4.798z" fill="#cbcccb"/><path d="m36.532 37.147-36.366-.235z" fill="#98aac6"/><path d="m32.075 42.08-3.476-.567-28.433-4.601 36.366.235v.466z" fill="#072859"/><path d="m11.897 35.056-11.731 1.856 28.486.184z" fill="#e4e4e3"/><path d="m32.507 28.62-.432 3.236-9.622-10.007c1.159.965 9.974 6.758 9.974 6.758zm-.432 13.46-10.508 8.895 7.032-9.44v-.022z" fill="#5fa0b2"/><path d="m51.159 51.463.114.16-10.087-6.044.545-3.124z" fill="#fff"/><path d="m44.685 41.83-2.954.625-4.635-5.396 36.521-1.374-28.932 6.146z" fill="#cbcccb"/><path d="m70.497 36.072-32.833 1.236 4.167 4.85zm-19.508-14.394h.011c-.625 1.125-5.715 10.28-5.522 10.28v.012l-3.692-.489 9.202-9.803zm-9.747 7.02.489 2.772-4.737 5.68-.75-36.919z" fill="#fff"/><path d="m36.502 12.926-.258-12.696 4.885 27.826-4.627-15.131z" fill="#cbcccb"/><path d="m41.787 31.482 3.692.488 28.138 3.715-36.521 1.374 4.635-5.588.056.01zm2.898 10.348 6.474 9.633-9.428-9.008 2.954-.624z" fill="#072859"/><path d="m41.277 28.687 9.792-7.122s-.023.033-.069.113h-.011l-9.202 9.803-.056-.01-.49-2.773zm-.091 16.892-4.942 28.116.75-36.545 4.737 5.305z" fill="#072859"/><path d="m32.075 42.08.466 3.522-10.974 5.373zm-9.622-20.231 9.622 10.008-4.055.647-.012-.08s-4.68-9.064-5.555-10.575z" fill="#706ba3"/><path d="m32.075 31.857-9.622-10.008c1.159.965 9.974 6.758 9.974 6.758l.08.013-.432 3.236zm4.188 5.019v-.117l-4.287-4.614-3.914.626-24.604 3.893zm-.019 36.819-4.17-31.615 4.458-4.467v22.03z" fill="#fff"/><path d="m21.567 50.975 7.032-9.44v-.022l3.476.567z" fill="#fff"/><path d="m36.532 36.654-4.457-4.798z" fill="#87cdd0"/><path d="m36.532 36.654-4.457-4.798.432-3.236 3.737-28.39.288 14.196v22.227z" fill="#072859"/><path d="m32.075 42.08 4.457-4.467z" fill="#87cdd0"/><path d="m21.567 50.975 10.508-8.895.466 3.522zm6.453-18.471-.012-.08s-4.68-9.064-5.555-10.575l9.622 10.008z" fill="#072859"/><path d="m30.956 37.15a6.038 6.038 0 1 1 12.076 0 6.038 6.038 0 0 1 -12.076 0z" fill="#651c1e"/><path d="m33.154 36.347h7.68v-.476h-7.68zm5.52 2.283a.762.762 0 0 1 1.434.358v-1.248h-1.434zm1.434.363v-.005zm-2.16-1.166a.954.954 0 1 0 -1.908 0v3.362h-.663v-3.515h-1.56v3.515h-.663v-3.515h-.134a.2.2 0 0 1 -.2-.2v-.017c0-.11.09-.2.2-.2h3.02v.003a1.082 1.082 0 0 1 1.908 0v-.003h3.02c.11 0 .2.09.2.2v.017a.2.2 0 0 1 -.2.2h-.134v3.515h-.664v-3.515h-1.559v3.515h-.663zm-1.908.005v-.005zm-.726.798a.762.762 0 0 0 -1.434.358v-1.248h1.434zm-1.434.363v-.005zm5.084-5.234a.304.304 0 0 0 -.607 0v1.62h.607zm-.607.002v-.002zm-.226-.002a.304.304 0 0 0 -.607 0v1.62h.607zm-.607.002v-.002zm-.227-.002a.304.304 0 0 0 -.606 0v1.62h.606zm-.606.002v-.002zm-1.06-.002a.304.304 0 0 0 -.607 0v1.62h.607zm-.607.002v-.002zm1.44-.002a.304.304 0 0 0 -.606 0v1.62h.606zm-.606.002v-.002zm3.609-.382v2h1.5c.11 0 .2.09.2.2v.017a.2.2 0 0 1 -.2.2h-7.947a.2.2 0 0 1 -.2-.2v-.017c0-.11.09-.2.2-.2h1.501v-2h-.07a.128.128 0 0 1 -.128-.128v-.011c0-.07.057-.128.128-.128h5.086c.07 0 .128.057.128.128v.01a.128.128 0 0 1 -.128.129zm-6.313 3.526h3.086c-.093.08-.174.177-.238.286h-2.848zm4.593 0h3.087v.286h-2.848a1.159 1.159 0 0 0 -.239-.286zm-4.727-.483h7.947c.11 0 .2.09.2.2v.017a.2.2 0 0 1 -.2.2h-3.302a1.149 1.149 0 0 0 -1.342 0h-3.303a.2.2 0 0 1 -.2-.2v-.017c0-.11.09-.2.2-.2z" fill="#fff"/><path d="m36.495 61.49-.25 12.205-3.616-27.42 3.866 15.216zm21.836-22.559-10.31-2.283 25.596-.963zm-32.539-14.739-3.339-2.343 7.195 7.483zm22.528.329 2.748-2.956-5.03 9.204zm-23.426 23.638-3.245 2.706 6.435-8.638zm22.279 1.007 4.1 2.457-8.166-7.853z" fill="#cbcccb"/><path d="m154.084 18.22h3.054l-.024.223.024.237-.067-.008a13.511 13.511 0 0 0 -.533-.045 9.274 9.274 0 0 0 -.603-.023v3.65l-.304-.028-.309.021v-3.643c-.191 0-.387 0-.577.012-.204.012-.412.035-.615.056l-.068.008.024-.231-.02-.196-.025.047c-.349.652-.7 1.304-1.042 1.96a22.29 22.29 0 0 0 -.587 1.2 5.752 5.752 0 0 0 -.284.75l-.013.044-.232-.028-.367.033.061-.095c.192-.298.358-.613.505-.936a56.308 56.308 0 0 0 -.535-.914c-.191-.32-.382-.641-.583-.955-.224-.352-.45-.704-.675-1.055l-.057-.09.457.022.333-.02.016.034c.222.456.461.904.718 1.341.206.348.422.69.651 1.022a32.565 32.565 0 0 0 .786-1.573c.122-.259.241-.52.348-.786l.015-.038.228.02.304-.025-.004.008zm-77.616 3.754a1.785 1.785 0 0 1 -.602.255c-.227.052-.46.077-.693.077-.573 0-1.11-.152-1.516-.57-.405-.418-.553-.958-.553-1.53 0-.601.188-1.13.642-1.533.44-.391.989-.54 1.57-.54.213 0 .424.025.632.07.213.046.42.112.62.198l.05.021-.02.05a2.663 2.663 0 0 0 -.117.43l-.007.039-.112.016-.02-.025a1.06 1.06 0 0 0 -.211-.184 1.43 1.43 0 0 0 -.838-.287c-.46 0-.85.156-1.135.522-.282.36-.383.797-.383 1.248 0 .462.102.917.41 1.275.28.326.64.473 1.068.473.212 0 .418-.045.616-.12a1.87 1.87 0 0 0 .561-.33l.102-.088-.042.518zm1.602-3.37c-.19 0-.386 0-.576.012-.205.012-.412.035-.616.056l-.067.008.024-.231-.024-.23h3.075l-.023.224.024.237-.067-.008a13.9 13.9 0 0 0 -.533-.045 9.243 9.243 0 0 0 -.602-.023v3.65l-.306-.028-.309.021zm3.773 2.095h-1.38c-.12.297-.251.606-.357.908a8.57 8.57 0 0 0 -.194.597l-.012.043-.25-.02-.29.024 1.837-4.118h.204l1.767 4.123-.383-.03-.343.02-.014-.04a23.37 23.37 0 0 0 -.348-.947 18.308 18.308 0 0 0 -.237-.56zm3.58-.655c.161.03.313.09.453.186.26.178.385.43.385.744 0 .432-.185.769-.539 1.014a1.37 1.37 0 0 1 -.602.21 5.064 5.064 0 0 1 -.637.028h-.902v-4.006h1.206c.309 0 .72.027.994.184.247.143.337.384.337.66a.958.958 0 0 1 -.27.687 1.311 1.311 0 0 1 -.424.294zm2.165.406v1.804l-.305-.028-.308.021v-4.027h1.08c.343 0 .886.023 1.184.215.269.172.346.476.346.779 0 .316-.088.609-.327.825-.245.22-.625.333-.94.396-.067.015-.141.02-.21.024-.048.002-.098.006-.146.006a3.864 3.864 0 0 1 -.374-.014zm2.396-.222c0-.597.19-1.121.63-1.532.43-.4.961-.563 1.543-.563.552 0 1.08.131 1.522.474.493.386.702.916.702 1.536 0 .605-.183 1.146-.624 1.568-.445.426-1.003.595-1.612.595-.587 0-1.138-.153-1.569-.566-.423-.406-.592-.932-.592-1.512zm7.954-1.613-1.145-.017-1.154.017v3.64l-.305-.029-.308.021v-4.027h3.526v4.035l-.305-.028-.309.021v-3.632zm1.265 1.613c0-.597.19-1.121.63-1.532.429-.4.961-.563 1.543-.563.552 0 1.08.131 1.521.474.494.386.702.916.702 1.536 0 .605-.182 1.146-.623 1.568-.445.426-1.003.595-1.612.595-.587 0-1.138-.153-1.569-.566-.424-.406-.592-.932-.592-1.512zm6.26-1.249a46.164 46.164 0 0 0 -.72 1.716c-.198.5-.389 1.005-.557 1.517l-.014.042-.247-.028-.307.034.049-.092c.171-.323.324-.688.473-1.023.246-.55.484-1.102.721-1.654.166-.387.375-.835.502-1.233l.012-.039h.347l.014.035c.122.301.247.602.371.903.245.593.494 1.184.744 1.774.167.394.343.854.542 1.232l.046.086-.367-.023-.319.026zm3 .957h.466c.354 0 .877.03 1.179.239.269.186.352.491.352.806 0 .316-.088.609-.327.825-.245.221-.625.333-.942.396-.107.022-.252.022-.361.024-.104.003-.209.006-.313.006h-.667v-4.017l.305.021.308-.02zm5.738 2.038a1.777 1.777 0 0 1 -.602.255 3.106 3.106 0 0 1 -.693.077c-.572 0-1.11-.152-1.516-.57-.405-.418-.554-.958-.554-1.53 0-.601.189-1.13.643-1.533.44-.391.988-.54 1.57-.54.213 0 .425.025.632.07.213.046.42.112.62.198l.049.021-.019.05a2.411 2.411 0 0 0 -.118.43l-.006.039-.112.016-.019-.025a1.094 1.094 0 0 0 -.212-.184 1.43 1.43 0 0 0 -.838-.287c-.461 0-.849.156-1.135.522-.282.36-.384.797-.384 1.248 0 .462.103.917.411 1.275.28.326.64.473 1.068.473.211 0 .419-.045.616-.12.205-.077.394-.187.561-.33l.102-.088-.041.518zm1.905-1.957c.45.514.902 1.027 1.358 1.54l.476.589v.107l-.369-.027-.35.02-.017-.026a9.252 9.252 0 0 0 -.191-.265 4.658 4.658 0 0 0 -.201-.252l-1.241-1.453a.034.034 0 0 0 -.006-.004v2.008l-.306-.028-.308.021v-4.032l.305.021.309-.02-.001 1.78a.203.203 0 0 0 .06-.033c.063-.052.126-.116.184-.172.036-.035.072-.07.109-.102l1.425-1.472.249.02.374-.028zm1.855.211c0-.597.19-1.121.63-1.532.429-.4.961-.563 1.542-.563.552 0 1.081.131 1.522.474.494.386.702.916.702 1.536 0 .605-.182 1.146-.624 1.568-.444.426-1.002.595-1.611.595-.587 0-1.139-.153-1.569-.566-.424-.406-.592-.932-.592-1.512zm5.649-.304h.832c.095 0 .191-.005.286-.01.072-.006.15-.013.223-.013h.062l-.024.202.024.218h-.062c-.096 0-.195-.009-.291-.018-.068-.006-.15-.016-.218-.016h-.832v1.56c.181-.001.361-.007.541-.011.146-.004.295-.012.44-.012.074 0 .155 0 .228-.008.096-.011.194-.028.29-.043l.07-.01-.024.233.023.23h-2.182v-4.006h2.148l-.023.224.024.246-.074-.017a4.184 4.184 0 0 0 -.277-.057 1.46 1.46 0 0 0 -.226-.017h-.958v1.326zm4.464-1.326v1.338h.471c.37 0 .894.032 1.212.242.281.185.377.486.377.811 0 .349-.114.653-.369.892-.268.25-.607.345-.968.345h-1.337v-4.006h2.449l-.024.072a.262.262 0 0 0 -.009.056c-.004.033-.005.064-.006.095l.025.247-.075-.017a4.155 4.155 0 0 0 -.276-.057 1.469 1.469 0 0 0 -.226-.017h-1.244zm3.793 1.673c-.043-.002-.089-.002-.129-.002h-.277v1.979l-.305-.022-.308.021v-4.032l.305.021.308-.02v1.65c.047.002.096 0 .14 0h.284c.073-.494.282-.923.667-1.25.393-.334.858-.483 1.372-.483.534 0 1.036.135 1.454.475.478.39.667.927.667 1.535 0 .595-.17 1.137-.594 1.564-.418.421-.944.6-1.533.6-.568 0-1.089-.16-1.493-.57-.394-.401-.55-.914-.558-1.466zm5.414.179v1.804l-.306-.028-.308.021v-4.027h1.079c.345 0 .887.023 1.186.215.268.172.346.476.346.779 0 .316-.088.609-.327.825-.245.22-.625.333-.94.396-.068.015-.142.02-.211.024-.047.002-.098.006-.145.006a3.806 3.806 0 0 1 -.374-.014zm2.396-.222c0-.597.19-1.121.63-1.532.429-.4.961-.563 1.542-.563.552 0 1.082.131 1.522.474.494.386.702.916.702 1.536 0 .605-.182 1.146-.623 1.568-.445.426-1.003.595-1.612.595-.587 0-1.139-.153-1.569-.566-.423-.406-.592-.932-.592-1.512zm9.545-1.613-1.146-.017-1.153.017v3.64l-.305-.029-.309.021v-4.027h3.527v4.035l-.306-.028-.308.021v-3.632zm9.037 1.31h.832c.095 0 .191-.006.285-.012.073-.005.151-.012.224-.012h.062l-.024.202.023.218h-.061c-.096 0-.195-.009-.291-.018-.068-.006-.15-.016-.218-.016h-.832v1.56c.18-.001.361-.007.541-.011.145-.004.295-.012.44-.012.073 0 .154 0 .228-.008.096-.011.194-.028.29-.043l.07-.01-.024.233.023.23h-2.182v-4.006h2.148l-.024.224.025.246-.075-.017a4.155 4.155 0 0 0 -.276-.057 1.469 1.469 0 0 0 -.226-.017h-.958zm4.027 1.906v-3.633l.308.021c.076 0 .165-.001.24-.016l.066-.013v3.641l.596.016.564-.015v-3.634l.305.021.309-.02v4.027h-4.162v-4.028l.305.021.309-.02v3.633l.562.015zm3.921-1.907h.832c.095 0 .19-.005.285-.01.073-.006.152-.013.224-.013h.062l-.024.202.023.218h-.061c-.096 0-.195-.009-.291-.018-.068-.006-.15-.016-.218-.016h-.832v1.56c.18-.001.362-.007.541-.011.145-.004.295-.012.44-.012.074 0 .155 0 .228-.008.096-.011.194-.028.29-.043l.07-.01-.024.233.023.23h-2.182v-4.006h2.148l-.024.224.026.246-.076-.017a4.155 4.155 0 0 0 -.276-.057 1.46 1.46 0 0 0 -.226-.017h-.958v1.326zm5.321 2.05a1.799 1.799 0 0 1 -.603.255c-.228.052-.46.077-.693.077-.572 0-1.11-.152-1.516-.57-.405-.418-.554-.958-.554-1.53 0-.601.189-1.13.643-1.533.441-.391.989-.54 1.57-.54.213 0 .425.025.633.07.212.046.419.112.619.198l.049.021-.019.05a2.411 2.411 0 0 0 -.118.43l-.006.039-.112.016-.019-.025a1.094 1.094 0 0 0 -.212-.184 1.43 1.43 0 0 0 -.838-.287c-.461 0-.849.156-1.135.522-.282.36-.384.797-.384 1.248 0 .462.103.917.411 1.275.28.326.64.473 1.068.473.211 0 .419-.045.616-.12.205-.077.394-.187.561-.33l.102-.088-.041.518zm1.602-3.37c-.192 0-.387 0-.577.012-.205.012-.412.035-.616.056l-.067.008.024-.231-.024-.23h3.075l-.023.224.024.237-.068-.008a13.511 13.511 0 0 0 -.533-.045 9.217 9.217 0 0 0 -.602-.023v3.65l-.305-.028-.308.021zm4.171 1.44c.161.03.313.09.453.186.26.178.384.43.384.744 0 .432-.185.769-.539 1.014a1.364 1.364 0 0 1 -.602.21 5.062 5.062 0 0 1 -.636.028h-.902v-4.006h1.205c.31 0 .72.027.994.184.247.143.337.384.337.66a.958.958 0 0 1 -.27.687 1.312 1.312 0 0 1 -.424.294zm2.165 1.145c.056-.054.12-.131.167-.182l.469-.515c.17-.187.338-.375.503-.566.209-.241.416-.483.622-.724.166-.223.377-.455.556-.671.031-.038.236-.312.288-.312h.308v4.035l-.306-.028-.308.021v-3.105a47.639 47.639 0 0 0 -1.185 1.325c-.226.263-.452.525-.675.79-.175.207-.348.416-.517.628-.076.095-.189.227-.25.33l-.016.029h-.27v-4.04l.069.017c.023.006.058.008.082.01.052.004.103.005.153.005l.31-.02zm4.452 0c.056-.054.12-.131.167-.182l.469-.515c.17-.187.337-.375.503-.566.209-.241.416-.483.622-.724.167-.223.377-.455.556-.671.032-.038.236-.312.289-.312h.306v4.035l-.305-.028-.308.021v-3.105a5.75 5.75 0 0 0 -.139.154c-.153.164-.302.33-.452.498-.201.222-.399.446-.594.674-.225.262-.452.524-.675.789-.175.207-.348.416-.517.628-.076.095-.19.227-.25.33l-.016.029h-.27v-4.04l.069.017c.023.006.058.008.082.01.052.004.103.005.153.005l.31-.02zm2.1-3.75c-.08.177-.195.333-.356.444a1.035 1.035 0 0 1 -.598.177.92.92 0 0 1 -.562-.177 1.036 1.036 0 0 1 -.347-.44l-.016-.039.215-.16.031.052c.156.264.393.38.697.38a.842.842 0 0 0 .413-.099.769.769 0 0 0 .289-.281l.03-.05.224.151-.02.043zm-104.859 1.645-.542 1.265h1.09l-.547-1.265zm3.036.853h.196c.131 0 .267-.003.397-.02.108-.013.211-.046.31-.09.278-.123.406-.337.406-.639 0-.194-.049-.383-.22-.493-.192-.122-.472-.147-.694-.147h-.395zm0 1.963h.517a.937.937 0 0 0 .655-.232.773.773 0 0 0 .251-.6c0-.26-.076-.492-.306-.634-.227-.142-.561-.17-.823-.17h-.294zm3.393-1.78h.106a.904.904 0 0 0 .102.006h.2c.033-.005.068-.012.1-.012.237-.022.46-.1.627-.274a.83.83 0 0 0 .225-.598.736.736 0 0 0 -.137-.463c-.084-.108-.193-.198-.333-.211a3.317 3.317 0 0 0 -.318-.02h-.571v1.572zm5.773-1.154a1.345 1.345 0 0 0 -.503-.395 1.528 1.528 0 0 0 -.644-.138c-.455 0-.846.149-1.14.503-.316.384-.418.875-.418 1.362 0 .471.108.934.442 1.282.288.3.651.428 1.065.428.526 0 .923-.23 1.206-.671.225-.35.34-.732.34-1.148 0-.225-.018-.456-.072-.675a1.452 1.452 0 0 0 -.276-.548zm9.219 0a1.345 1.345 0 0 0 -.504-.395 1.524 1.524 0 0 0 -.643-.138c-.456 0-.847.149-1.14.503-.317.384-.42.875-.42 1.362 0 .471.11.934.443 1.282.288.3.652.428 1.065.428.527 0 .924-.23 1.207-.671a2.09 2.09 0 0 0 .341-1.148 2.84 2.84 0 0 0 -.073-.675 1.472 1.472 0 0 0 -.276-.548zm5.883 2.916h.508c.237-.022.46-.099.628-.274a.83.83 0 0 0 .225-.597.828.828 0 0 0 -.138-.494c-.082-.112-.193-.219-.336-.233a3.264 3.264 0 0 0 -.315-.02h-.572zm12.875-2.916a1.353 1.353 0 0 0 -.504-.395 1.532 1.532 0 0 0 -.644-.138c-.455 0-.846.149-1.139.503-.317.384-.419.875-.419 1.362 0 .471.109.934.442 1.282.288.3.652.428 1.065.428.526 0 .923-.23 1.207-.671.224-.35.34-.732.34-1.148a2.79 2.79 0 0 0 -.073-.675 1.455 1.455 0 0 0 -.275-.548zm6.736 2.922h.517c.25 0 .472-.072.65-.25a.837.837 0 0 0 .25-.619.758.758 0 0 0 -.165-.494c-.089-.11-.213-.226-.36-.24a3.244 3.244 0 0 0 -.315-.02h-.577zm6.985-2.922a1.344 1.344 0 0 0 -1.072-.533c-.434 0-.796.153-1.064.499-.301.388-.392.886-.392 1.366 0 .463.099.93.416 1.283.262.294.596.427.988.427.456 0 .807-.197 1.071-.565.266-.37.374-.8.374-1.254 0-.226-.017-.458-.068-.678a1.517 1.517 0 0 0 -.253-.545zm2.222 1.154h.105a.911.911 0 0 0 .103.006h.199c.033-.005.069-.012.101-.012.237-.022.46-.1.627-.274a.833.833 0 0 0 .225-.598.736.736 0 0 0 -.137-.463c-.084-.108-.193-.198-.334-.211a3.305 3.305 0 0 0 -.318-.02h-.571zm5.773-1.154a1.345 1.345 0 0 0 -.504-.395 1.527 1.527 0 0 0 -.643-.138c-.455 0-.847.149-1.14.503-.317.384-.419.875-.419 1.362 0 .471.109.934.443 1.282.288.3.651.428 1.064.428.527 0 .923-.23 1.207-.671.225-.35.34-.732.34-1.148a2.79 2.79 0 0 0 -.073-.675 1.455 1.455 0 0 0 -.275-.548zm33.018.971h.196c.131 0 .267-.003.398-.02.107-.013.211-.046.309-.09.279-.123.406-.337.406-.639 0-.194-.049-.383-.22-.493-.191-.122-.471-.147-.694-.147h-.395zm0 1.963h.517c.246 0 .473-.065.655-.232a.773.773 0 0 0 .252-.6c0-.26-.077-.492-.307-.634-.227-.142-.561-.17-.823-.17h-.294zm-63.148 31.808h34.086l11.838-.86h-57.762zm-.391 6.984-.15-.022-.149.022a21.53 21.53 0 0 0 -.681-2.016c-.207.407-.458 1.08-.753 2.016l-.15-.022-.149.022a31.898 31.898 0 0 0 -.981-2.658l.244.022.244-.017a18.237 18.237 0 0 0 .703 2.061c.115-.245.249-.576.404-.992s.279-.772.371-1.069l.144.017.144-.017c.078.303.183.648.316 1.036.133.387.264.73.393 1.025.148-.351.299-.72.454-1.108.192-.48.312-.797.36-.953l.178.017.171-.017a28.48 28.48 0 0 0 -.709 1.6c-.184.447-.319.798-.404 1.053zm4.308 0-.149-.022-.15.022a21.63 21.63 0 0 0 -.68-2.016c-.208.407-.459 1.08-.754 2.016l-.149-.022-.15.022a32.288 32.288 0 0 0 -.98-2.658l.244.022.243-.017c.115.392.222.739.321 1.039.119.348.246.688.383 1.022a21.88 21.88 0 0 0 .775-2.06l.144.016.144-.017c.077.303.183.648.315 1.036.134.387.264.73.394 1.025.147-.351.299-.72.454-1.108.192-.48.312-.797.36-.953l.177.017.172-.017a24.06 24.06 0 0 0 -.285.613c-.146.32-.288.649-.424.986-.185.448-.319.799-.405 1.054zm4.309 0-.149-.022-.15.022c-.07-.267-.172-.598-.307-.994a20.476 20.476 0 0 0 -.374-1.022c-.207.407-.458 1.08-.753 2.016l-.15-.022-.15.022a31.953 31.953 0 0 0 -.979-2.658l.243.022.244-.017c.114.392.222.739.321 1.039.118.348.245.688.382 1.022.114-.245.25-.576.404-.992.155-.416.279-.772.371-1.069l.144.017.145-.017c.077.303.182.648.315 1.036.133.387.264.73.393 1.025.148-.351.299-.72.454-1.108.193-.48.312-.797.36-.953l.178.017.172-.017c-.045.089-.14.294-.286.613-.146.32-.287.649-.424.986-.184.448-.319.799-.404 1.054zm1.567-.626c.085 0 .161.034.227.1a.327.327 0 0 1 .006.465.306.306 0 0 1 -.233.1.336.336 0 0 1 -.238-.095.314.314 0 0 1 -.099-.237.32.32 0 0 1 .099-.233.327.327 0 0 1 .238-.1zm1.158.083c.07.118.163.217.277.294a.631.631 0 0 0 .36.116.56.56 0 0 0 .376-.144.456.456 0 0 0 .167-.36c0-.229-.218-.406-.654-.532-.436-.125-.654-.358-.654-.697 0-.259.085-.46.255-.604a.968.968 0 0 1 .648-.216 1.43 1.43 0 0 1 .626.144 2.3 2.3 0 0 0 -.133.393h-.05a.62.62 0 0 0 -.188-.255.435.435 0 0 0 -.283-.11.54.54 0 0 0 -.36.122.421.421 0 0 0 -.144.338c0 .221.218.402.654.542s.654.366.654.676a.78.78 0 0 1 -.327.659 1.122 1.122 0 0 1 -.693.216c-.114 0-.235-.016-.363-.047a1.205 1.205 0 0 1 -.329-.13l.067-.203a1.38 1.38 0 0 0 .049-.202zm2.603-2.831v.716h.587a.802.802 0 0 0 -.011.116c0 .026.003.057.011.094h-.587v1.571c0 .226.018.387.055.483a.35.35 0 0 0 .355.24c.04 0 .086-.007.135-.018l.114-.022v.133a2.04 2.04 0 0 1 -.238.075.985.985 0 0 1 -.227.025c-.222 0-.381-.06-.477-.177-.107-.134-.16-.365-.16-.695v-1.615h-.344a.338.338 0 0 0 .011-.105.378.378 0 0 0 -.011-.105h.344v-.545zm2.985 2.903v.161c.011.078.061.116.149.116a.656.656 0 0 0 .161-.022v.122l-.079.03a.664.664 0 0 1 -.116.03.9.9 0 0 1 -.151.012.415.415 0 0 1 -.261-.078c-.068-.051-.109-.138-.124-.26l-.05.05a1.13 1.13 0 0 1 -.822.349.77.77 0 0 1 -.523-.188.614.614 0 0 1 -.217-.488c0-.28.105-.482.316-.604.129-.073.366-.138.709-.193.24-.04.391-.078.454-.111.089-.048.133-.135.133-.26 0-.207-.056-.367-.169-.48-.113-.112-.272-.168-.479-.168a.772.772 0 0 0 -.465.144.48.48 0 0 0 -.194.238h-.061v-.31c.144-.1.289-.176.435-.227.146-.052.298-.078.456-.078.599 0 .898.31.898.93zm-.443-.913-.194.038c-.321.063-.524.113-.609.15-.222.1-.332.26-.332.482 0 .17.047.299.143.388.096.088.229.132.399.132.07 0 .148-.021.233-.063a.787.787 0 0 0 .21-.147c.03-.026.062-.057.097-.092s.053-.061.053-.08zm3.234-1.274.177.022.177-.022c-.063.13-.183.393-.36.79-.162.363-.301.682-.415.956-.162.39-.281.694-.355.912l-.165-.022-.173.022a45.188 45.188 0 0 0 -.481-1.232 34.021 34.021 0 0 0 -.604-1.42l.249.016.244-.022c.17.563.445 1.275.825 2.138l.056-.078a.33.33 0 0 0 .049-.078l.333-.783.443-1.2zm1.301-.716v.716h.587a.522.522 0 0 0 0 .21h-.587v1.571c0 .226.019.387.056.483.062.16.18.24.354.24a.632.632 0 0 0 .136-.018c.05-.01.087-.018.114-.022v.133a2.05 2.05 0 0 1 -.239.075.985.985 0 0 1 -.227.025c-.222 0-.38-.06-.476-.177-.107-.134-.161-.365-.161-.695v-1.615h-.343a.372.372 0 0 0 .011-.105.42.42 0 0 0 -.011-.105h.343v-.545zm3.317 3.369-.221-.017-.221.017v-.476c-.182.346-.475.52-.881.52-.31 0-.54-.084-.69-.253-.149-.168-.224-.44-.224-.812v-1.632l.222.022.221-.017v1.495c0 .31.051.542.153.695.101.154.274.23.517.23.255 0 .44-.1.554-.3.085-.147.128-.345.128-.593v-1.532l.221.022.221-.017zm.898-2.648.221.017.222-.022v.56l.027-.067c.1-.16.204-.28.311-.366a.62.62 0 0 1 .387-.155c.074 0 .132.01.172.028l-.077.465a.692.692 0 0 1 -.117-.047.36.36 0 0 0 -.144-.041.562.562 0 0 0 -.194.036.39.39 0 0 0 -.16.102.755.755 0 0 0 -.166.305 1.69 1.69 0 0 0 -.039.4v1.438l-.222-.022-.221.017zm2.398 2.653-.222-.022-.221.017v-2.648l.221.017.222-.017zm-.222-3.317a.272.272 0 0 1 -.199-.083.275.275 0 0 1 -.083-.2c0-.077.028-.144.083-.199a.28.28 0 0 1 .396-.003.266.266 0 0 1 .086.203.272.272 0 0 1 -.084.199.27.27 0 0 1 -.199.083zm1.163 2.774c.07.118.163.217.277.294a.631.631 0 0 0 .36.116c.14 0 .266-.048.377-.144a.455.455 0 0 0 .166-.36c0-.229-.218-.406-.654-.532-.435-.125-.653-.358-.653-.697 0-.259.085-.46.255-.604a.964.964 0 0 1 .647-.216 1.425 1.425 0 0 1 .626.144 2.352 2.352 0 0 0 -.132.393h-.05a.622.622 0 0 0 -.189-.255.433.433 0 0 0 -.282-.11.538.538 0 0 0 -.36.122.418.418 0 0 0 -.144.338c0 .221.218.402.653.542.436.14.654.366.654.676a.78.78 0 0 1 -.327.659 1.121 1.121 0 0 1 -.692.216 1.51 1.51 0 0 1 -.363-.047 1.18 1.18 0 0 1 -.329-.13l.066-.203c.022-.068.039-.135.05-.202zm2.603-2.831v.716h.587a.522.522 0 0 0 0 .21h-.587v1.571c0 .226.019.387.056.483.062.16.18.24.354.24a.64.64 0 0 0 .136-.018c.049-.01.087-.018.113-.022v.133a1.983 1.983 0 0 1 -.238.075.985.985 0 0 1 -.227.025c-.222 0-.38-.06-.476-.177-.107-.134-.161-.365-.161-.695v-1.615h-.343a.372.372 0 0 0 .011-.105.42.42 0 0 0 -.011-.105h.343v-.545zm1.473 2.748c.085 0 .161.034.227.1s.1.144.1.233a.327.327 0 0 1 -.094.232.306.306 0 0 1 -.233.1.336.336 0 0 1 -.238-.095.315.315 0 0 1 -.1-.237.32.32 0 0 1 .1-.233.327.327 0 0 1 .238-.1zm1.202-2.027.221.017.222-.022v.56l.028-.067c.099-.16.203-.28.31-.366a.621.621 0 0 1 .388-.155c.073 0 .13.01.171.028l-.077.465a.728.728 0 0 1 -.117-.047.36.36 0 0 0 -.144-.041.552.552 0 0 0 -.193.036.393.393 0 0 0 -.161.102.768.768 0 0 0 -.166.305 1.69 1.69 0 0 0 -.039.4v1.438l-.222-.022-.221.017zm4.026 2.648-.222-.017-.221.017v-.476c-.181.346-.474.52-.881.52-.31 0-.54-.084-.689-.253-.149-.168-.224-.44-.224-.812v-1.632l.221.022.222-.017v1.495c0 .31.051.542.152.695.102.154.274.23.518.23.255 0 .439-.1.554-.3.085-.147.127-.345.127-.593v-1.532l.221.022.222-.017zm-32.512-5.636h24.132l8.381-.608h-40.894z" fill="#072859"/></g></svg>