<svg width="167" height="52" fill="none" xmlns="http://www.w3.org/2000/svg"><g clip-path="url(#clip0)" fill-rule="evenodd" clip-rule="evenodd" fill="#fff"><path d="M3.078 9.411h123.9l-1.913 5.632H21.881l-5.668 22.731H8.89l5.675-22.73h-13.4L3.078 9.41zm129.201 0h34.297l-1.913 5.632h-9.838l-5.668 22.731h-7.324l5.675-22.73h-17.142l1.913-5.633z"/><path d="M119.943 18.017h21.895l-1.356 5.632h-17.733l-2.118 8.493h17.806l-1.356 5.632h-24.686l5.003-19.757h2.545zM50.001 37.774l4.933-19.757h25.422l-3.765 14.87H58.54l-1.219 4.887h-7.32zm22.017-14.125H60.843l-.9 3.607h11.274l.801-3.607zm8.376 14.125l4.932-19.757h7.314l-3.165 12.691c4.086.318 9.627.13 12.921-1.23h.001l2.861-11.46h7.314l-4.926 19.756h-7.32l.714-2.86c-2.955 1.712-8.4 2.86-13.326 2.86h-7.32zm-56.823-9.549l2.592-10.383h7.314l-1.185 4.752h9.253l1.142-4.577h7.314l-4.926 19.757H21.191l1.406-5.632h16.564l.978-3.916H23.571v-.001zm88.801-26.784h3.609l-.028.265.029.28-.08-.01c-.209-.022-.42-.038-.63-.053a10.887 10.887 0 00-.712-.027V6.21l-.36-.034-.365.026V1.896c-.226 0-.457 0-.682.013-.241.015-.486.042-.727.068l-.08.008.028-.273-.022-.231-.031.056c-.412.77-.826 1.54-1.231 2.316-.242.466-.48.938-.694 1.418a6.707 6.707 0 00-.335.885l-.015.054-.275-.034-.434.04.072-.113c.227-.352.424-.724.597-1.106a67.102 67.102 0 00-.632-1.08c-.226-.378-.452-.758-.689-1.13l-.798-1.246-.067-.106.54.026.393-.023.019.04c.263.538.545 1.068.849 1.584.243.411.498.816.769 1.209.151-.288.303-.576.449-.867.166-.328.324-.66.48-.992.144-.307.285-.616.411-.93l.018-.045.27.024.359-.03-.005.01zM20.645 5.878a2.109 2.109 0 01-.712.302 3.675 3.675 0 01-.82.091c-.676 0-1.311-.18-1.791-.674-.479-.494-.654-1.132-.654-1.809 0-.71.222-1.335.76-1.81.52-.463 1.168-.639 1.854-.639.252 0 .502.03.748.083a3.9 3.9 0 01.732.234l.058.025-.023.059a3.132 3.132 0 00-.138.508l-.008.046-.132.019-.023-.03a1.257 1.257 0 00-.25-.217c-.296-.21-.625-.34-.99-.34-.545 0-1.004.185-1.342.618-.333.426-.453.942-.453 1.475 0 .546.121 1.084.485 1.506.331.385.757.559 1.262.559.25 0 .495-.053.728-.14a2.21 2.21 0 00.664-.392l.12-.104-.05.612-.025.018zm1.893-3.982c-.226 0-.457 0-.681.013-.242.015-.487.042-.728.068l-.08.008.029-.273-.028-.271h3.634l-.028.265.029.28-.08-.01c-.21-.022-.42-.038-.63-.053a10.9 10.9 0 00-.711-.027V6.21l-.361-.034-.365.026V1.896zm4.459 2.475h-1.63c-.143.351-.299.717-.424 1.074-.086.23-.159.469-.228.705l-.015.051-.295-.025-.344.03 2.172-4.867h.241l2.088 4.872-.453-.035-.405.023-.016-.046a28.718 28.718 0 00-.411-1.12 21.453 21.453 0 00-.28-.662zm4.231-.773c.19.035.37.106.535.22.307.21.454.508.454.879 0 .51-.218.908-.636 1.198a1.62 1.62 0 01-.712.248 5.974 5.974 0 01-.753.033H29.05V1.441h1.425c.366 0 .85.032 1.175.218.292.168.398.453.398.78 0 .312-.103.584-.319.81a1.551 1.551 0 01-.5.349zm2.558.48V6.21l-.36-.034-.365.026V1.44h1.276c.407 0 1.048.026 1.4.254.318.204.41.562.41.92 0 .374-.105.72-.387.975-.29.262-.738.394-1.111.468-.08.019-.167.025-.248.03-.057.002-.116.006-.173.006-.093 0-.187-.002-.28-.007a15.91 15.91 0 01-.162-.01zm2.832-.263c0-.705.224-1.325.744-1.81.507-.473 1.136-.666 1.824-.666.653 0 1.277.155 1.798.56.583.456.83 1.083.83 1.815 0 .716-.216 1.355-.737 1.854-.526.503-1.186.703-1.905.703-.694 0-1.346-.181-1.854-.67-.5-.48-.7-1.1-.7-1.786zm9.4-1.907l-1.354-.02-1.363.02V6.21l-.36-.034-.365.026V1.44h4.167v4.77l-.36-.034-.365.026V1.908zm1.495 1.907c0-.705.224-1.325.744-1.81.507-.473 1.136-.666 1.824-.666.652 0 1.277.155 1.798.56.583.456.83 1.083.83 1.815 0 .716-.216 1.355-.738 1.854-.525.503-1.185.703-1.904.703-.694 0-1.346-.181-1.854-.67-.501-.48-.7-1.1-.7-1.786zM54.91 2.34c-.297.67-.581 1.346-.85 2.028-.235.591-.46 1.188-.66 1.792l-.016.05-.292-.033-.362.04.058-.108c.202-.382.383-.813.559-1.209.29-.65.571-1.303.852-1.956.196-.456.443-.985.592-1.457l.015-.045h.41l.016.04a308.119 308.119 0 001.318 3.164c.197.466.406 1.01.64 1.457l.055.102-.434-.028-.377.031L54.91 2.34zm3.546 1.13h.55c.419 0 1.037.035 1.393.283.318.22.417.581.417.953 0 .373-.104.72-.387.975-.289.261-.738.394-1.113.468-.126.026-.298.026-.427.028-.123.003-.247.007-.37.007h-.788V1.436l.36.025.365-.025V3.47zm6.78 2.41a2.104 2.104 0 01-.71.3 3.67 3.67 0 01-.82.092c-.676 0-1.312-.18-1.791-.674-.48-.494-.655-1.132-.655-1.809 0-.71.223-1.335.76-1.81.52-.463 1.168-.639 1.855-.639.252 0 .502.03.748.083.25.054.496.132.732.234l.058.025-.023.059a3.132 3.132 0 00-.138.508l-.009.046-.131.019-.023-.03a1.274 1.274 0 00-.251-.217c-.295-.21-.625-.34-.99-.34-.545 0-1.003.185-1.342.618-.332.426-.453.942-.453 1.475 0 .546.122 1.084.485 1.506.331.385.757.559 1.263.559.25 0 .494-.053.727-.14a2.21 2.21 0 00.664-.392l.12-.104-.049.612-.026.018zm2.252-2.314a298.62 298.62 0 001.605 1.82l.562.697v.127l-.436-.033-.413.023-.02-.03c-.074-.106-.149-.21-.226-.313a5.361 5.361 0 00-.237-.297l-1.467-1.72-.006-.005V6.21l-.361-.034-.365.026V1.436l.36.025.366-.025-.002 2.106a.241.241 0 00.071-.04c.075-.061.15-.137.219-.203a2.77 2.77 0 01.128-.121l1.684-1.74.294.023.442-.032-2.197 2.136zm2.192.25c0-.705.225-1.325.745-1.81.507-.473 1.135-.666 1.823-.666.652 0 1.277.155 1.798.56.584.456.83 1.083.83 1.815 0 .716-.215 1.355-.737 1.854-.526.503-1.186.703-1.905.703-.694 0-1.346-.181-1.854-.67-.5-.48-.7-1.1-.7-1.786zm6.677-.359h.983c.112 0 .225-.006.337-.013.086-.006.179-.014.265-.014h.073l-.028.238.027.258h-.072a3.63 3.63 0 01-.344-.021c-.082-.008-.178-.02-.258-.02h-.983v1.844c.213-.001.427-.007.64-.013.171-.005.348-.013.518-.013.088 0 .184 0 .27-.01.114-.013.23-.033.343-.05l.083-.014-.028.277.027.271h-2.579V1.441h2.538l-.027.265.03.29-.09-.02a4.84 4.84 0 00-.326-.068 1.725 1.725 0 00-.267-.02h-1.132v1.568zm5.275-1.567v1.58h.557c.436 0 1.057.038 1.433.287.331.219.444.574.444.959 0 .411-.134.771-.436 1.054-.316.296-.717.407-1.144.407h-1.58V1.441H83.8l-.028.085c-.006.018-.008.047-.01.066a.874.874 0 00-.007.112l.03.292-.09-.02a4.995 4.995 0 00-.326-.068 1.738 1.738 0 00-.267-.02h-1.47zm4.482 1.976c-.05-.002-.104-.001-.151-.001h-.327v2.338l-.362-.026-.364.026V1.436l.36.025.365-.025v1.95c.055.003.113.002.165.002h.335c.087-.584.334-1.091.79-1.479.464-.394 1.013-.57 1.621-.57.63 0 1.224.16 1.718.562.565.46.788 1.095.788 1.813 0 .704-.2 1.345-.702 1.85-.494.497-1.115.707-1.81.707-.672 0-1.289-.187-1.765-.673-.466-.474-.65-1.08-.66-1.733zm6.399.212V6.21l-.361-.034-.364.026V1.44h1.275c.408 0 1.048.026 1.402.254.317.204.408.562.408.92 0 .374-.104.72-.386.975-.29.262-.739.394-1.111.468-.08.019-.168.025-.25.03-.055.002-.115.006-.171.006-.093 0-.187-.002-.28-.007a15.212 15.212 0 01-.162-.01zm2.832-.262c0-.705.224-1.325.744-1.81.507-.473 1.136-.666 1.823-.666.653 0 1.278.155 1.799.56.583.456.829 1.083.829 1.815 0 .716-.215 1.355-.736 1.854-.526.503-1.186.703-1.906.703-.693 0-1.345-.181-1.853-.67-.5-.48-.7-1.1-.7-1.786zm11.28-1.907l-1.354-.02-1.362.02V6.21l-.361-.034-.365.026V1.44h4.168v4.77l-.362-.034-.364.026V1.908zm10.68 1.548h.983c.112 0 .226-.006.338-.013.085-.006.178-.014.264-.014h.073l-.028.238.027.258h-.072c-.114 0-.23-.01-.344-.021-.081-.008-.177-.02-.258-.02h-.983v1.844c.213-.001.427-.007.64-.013.171-.005.348-.013.519-.013.087 0 .183 0 .27-.01.113-.013.229-.033.342-.05l.084-.014-.029.277.027.271h-2.578V1.441h2.538l-.028.265.03.29-.089-.02a4.814 4.814 0 00-.327-.068 1.73 1.73 0 00-.267-.02h-1.132v1.568zm4.759 2.254V1.416l.364.025c.09 0 .195-.002.284-.019l.078-.015V5.71l.704.019.667-.019V1.416l.36.025.365-.025v4.76h-4.918v-4.76l.361.025.365-.025V5.71l.663.019.707-.02zm4.635-2.254h.982c.113 0 .226-.006.338-.013.086-.006.179-.014.264-.014h.074l-.029.238.028.258h-.073c-.113 0-.23-.01-.344-.021-.081-.008-.177-.02-.258-.02h-.982v1.844c.212-.001.427-.007.639-.013.172-.005.348-.013.519-.013.088 0 .184 0 .27-.01.114-.013.229-.033.342-.05l.084-.014-.029.277.028.271h-2.579V1.441h2.538l-.028.265.03.29-.089-.02a4.785 4.785 0 00-.326-.068 1.743 1.743 0 00-.268-.02h-1.13v1.568zm6.287 2.422a2.11 2.11 0 01-.712.302 3.669 3.669 0 01-.819.091c-.676 0-1.312-.18-1.791-.674-.48-.494-.655-1.132-.655-1.809 0-.71.223-1.335.76-1.81.521-.463 1.168-.639 1.855-.639.251 0 .502.03.748.083.251.054.496.132.732.234l.058.025-.023.059a3.345 3.345 0 00-.139.508l-.008.046-.131.019-.023-.03a1.318 1.318 0 00-.25-.217c-.296-.21-.625-.34-.991-.34-.545 0-1.003.185-1.342.618-.333.426-.453.942-.453 1.475 0 .546.122 1.084.485 1.506.331.385.757.559 1.263.559a2.218 2.218 0 001.391-.532l.12-.104-.049.612-.026.018zm1.894-3.982c-.226 0-.457 0-.682.013-.242.015-.486.042-.728.068l-.079.008.028-.273-.027-.271h3.633l-.027.265.028.28-.08-.01c-.209-.022-.42-.038-.629-.053a10.913 10.913 0 00-.712-.027V6.21l-.361-.034-.364.026V1.896zm4.929 1.702c.191.035.37.106.535.22.308.21.454.508.454.879 0 .51-.218.908-.636 1.198a1.62 1.62 0 01-.711.248 5.995 5.995 0 01-.753.033h-1.066V1.441h1.424c.366 0 .852.032 1.176.218.291.168.397.453.397.78 0 .312-.102.584-.319.81a1.544 1.544 0 01-.501.349zm2.559 1.353c.066-.064.142-.155.198-.215l.554-.61c.201-.22.399-.442.594-.668.247-.285.492-.57.735-.855.197-.264.446-.538.657-.794.038-.045.279-.368.341-.368h.363V6.21l-.361-.034-.364.026v-3.67c-.056.06-.11.12-.164.182-.18.194-.357.39-.534.588-.237.262-.472.527-.703.796-.266.31-.534.62-.797.933-.207.245-.411.492-.611.743-.09.112-.224.267-.296.39l-.019.033h-.319V1.423l.082.02c.027.007.068.009.097.012.061.004.122.006.181.006l.366-.025v3.515zm5.261 0c.066-.064.142-.155.198-.215l.555-.61c.2-.22.398-.442.593-.668.248-.285.492-.57.736-.855.197-.264.445-.538.656-.794.038-.045.279-.368.342-.368h.363V6.21l-.361-.034-.365.026v-3.67c-.055.06-.11.12-.164.182-.18.194-.357.39-.534.588-.237.262-.472.527-.702.796-.266.31-.534.62-.798.933-.207.245-.411.492-.611.743-.09.112-.224.267-.296.39l-.018.033h-.319V1.423l.081.02c.028.007.068.009.098.012.061.004.121.006.18.006l.366-.025v3.515zM150.113.52a1.246 1.246 0 01-.422.524 1.22 1.22 0 01-.706.21 1.09 1.09 0 01-.664-.21 1.222 1.222 0 01-.41-.52l-.02-.046.254-.19.037.062c.185.312.465.448.824.448.17 0 .338-.032.488-.116a.904.904 0 00.342-.332l.035-.058.265.178-.023.05zM26.189 2.462l-.642 1.495h1.289l-.647-1.495zm3.587 1.008h.231c.155 0 .316-.004.47-.024.127-.015.25-.054.366-.106.329-.145.48-.398.48-.755 0-.229-.058-.453-.26-.582-.226-.145-.558-.175-.82-.175h-.467V3.47zm0 2.32h.611c.29 0 .558-.077.774-.275a.914.914 0 00.297-.709c0-.306-.09-.58-.361-.75-.27-.166-.664-.2-.974-.2h-.347V5.79zm4.01-2.104c.041.002.091 0 .125 0 .04.005.081.007.121.007h.236c.04-.006.081-.014.118-.013.28-.027.544-.118.742-.325a.982.982 0 00.266-.706c0-.195-.04-.392-.162-.548-.1-.127-.228-.233-.395-.25a3.912 3.912 0 00-.375-.023h-.676v1.858zm6.823-1.363a1.59 1.59 0 00-.595-.467 1.807 1.807 0 00-.76-.163c-.539 0-1.001.175-1.347.594-.375.454-.496 1.033-.496 1.61 0 .556.129 1.103.523 1.514.34.356.77.507 1.258.507.623 0 1.091-.272 1.426-.794.266-.413.403-.865.403-1.356 0-.266-.022-.539-.087-.798a1.716 1.716 0 00-.325-.647zm10.895 0a1.595 1.595 0 00-.595-.467 1.807 1.807 0 00-.761-.163c-.538 0-1 .175-1.347.594-.375.454-.495 1.033-.495 1.61 0 .556.129 1.103.523 1.514.34.356.77.507 1.258.507.622 0 1.091-.272 1.426-.794.265-.413.403-.865.403-1.356 0-.266-.022-.539-.086-.798a1.725 1.725 0 00-.326-.647zm6.953 3.446h.6c.28-.027.544-.117.741-.325a.98.98 0 00.267-.705c0-.206-.04-.414-.164-.584-.096-.132-.227-.258-.396-.275a3.847 3.847 0 00-.373-.023h-.675v1.912zm15.215-3.446a1.595 1.595 0 00-.595-.467 1.809 1.809 0 00-.761-.163c-.538 0-1 .175-1.346.594-.375.454-.495 1.033-.495 1.61 0 .556.128 1.103.522 1.514.34.356.77.507 1.258.507.623 0 1.09-.272 1.427-.794.265-.413.401-.865.401-1.356 0-.266-.02-.539-.085-.798a1.716 1.716 0 00-.326-.647zm7.96 3.453h.612c.295 0 .558-.085.769-.297a.992.992 0 00.295-.73.898.898 0 00-.195-.584c-.106-.13-.251-.267-.426-.285a3.819 3.819 0 00-.372-.023h-.682v1.919zm8.256-3.454a1.587 1.587 0 00-1.267-.63c-.513 0-.94.182-1.257.59-.356.459-.463 1.047-.463 1.615 0 .547.116 1.099.49 1.516.311.347.705.505 1.17.505.537 0 .953-.234 1.265-.669.314-.437.441-.946.441-1.48a3.6 3.6 0 00-.08-.803 1.775 1.775 0 00-.3-.644zm2.626 1.364c.04.002.09 0 .125 0 .04.005.08.007.12.007h.237c.04-.006.082-.014.119-.013.28-.027.544-.118.742-.325a.984.984 0 00.266-.706c0-.195-.04-.392-.163-.548-.099-.127-.228-.233-.394-.25a3.912 3.912 0 00-.376-.023h-.675v1.858zm6.822-1.363a1.59 1.59 0 00-.595-.467 1.807 1.807 0 00-.76-.163c-.538 0-1 .175-1.347.594-.375.454-.495 1.033-.495 1.61 0 .556.129 1.103.523 1.514.34.356.77.507 1.258.507.623 0 1.09-.272 1.426-.794.266-.413.402-.865.402-1.356 0-.266-.022-.539-.086-.798a1.716 1.716 0 00-.326-.647zm39.022 1.147h.232c.155 0 .316-.004.47-.024a1.28 1.28 0 00.366-.106c.329-.145.479-.398.479-.755 0-.229-.057-.453-.26-.582-.226-.145-.557-.175-.82-.175h-.467V3.47zm0 2.32h.611c.291 0 .559-.077.775-.275a.916.916 0 00.297-.709c0-.306-.091-.58-.362-.75-.269-.166-.664-.2-.973-.2h-.348V5.79zM63.729 43.383h40.283l13.99-1.018H49.739l13.99 1.017zm-.462 8.253l-.178-.026-.176.026a17.953 17.953 0 00-.363-1.175c-.16-.468-.307-.87-.442-1.207-.244.48-.541 1.275-.89 2.382l-.177-.026-.176.026a37.946 37.946 0 00-1.16-3.142l.289.027.288-.02a22.138 22.138 0 00.83 2.435c.136-.29.296-.68.479-1.172.183-.491.33-.913.439-1.263l.17.02.17-.02c.091.358.216.766.373 1.224.157.458.312.862.464 1.211.175-.414.354-.85.537-1.31.227-.567.37-.941.425-1.125l.21.02.203-.02a32.722 32.722 0 00-.837 1.89c-.219.529-.378.943-.478 1.245zm5.091 0l-.176-.026-.177.026a25.307 25.307 0 00-.805-2.382c-.245.48-.541 1.275-.89 2.382l-.177-.026-.177.026a37.946 37.946 0 00-1.158-3.142l.288.027.288-.02c.135.464.262.873.38 1.227.14.412.29.814.451 1.208.135-.29.294-.68.478-1.172.183-.491.33-.913.438-1.263l.17.02.17-.02c.092.358.217.766.374 1.224.157.458.312.862.465 1.211.174-.414.353-.85.536-1.31.227-.567.369-.941.426-1.125l.209.02.203-.02c-.053.105-.165.347-.337.724-.172.379-.34.767-.501 1.166-.218.529-.377.943-.478 1.245zm5.092 0l-.177-.026-.176.026a17.882 17.882 0 00-.363-1.175 24.76 24.76 0 00-.442-1.207c-.245.48-.541 1.275-.89 2.382l-.177-.026-.177.026a37.746 37.746 0 00-1.158-3.142l.288.027.288-.02c.135.464.262.873.38 1.227.139.412.29.814.45 1.208.136-.29.296-.68.478-1.172.184-.491.33-.913.439-1.263l.17.02.17-.02c.092.358.216.766.374 1.224.157.458.312.862.464 1.211.175-.414.354-.85.537-1.31.227-.567.368-.941.425-1.125l.21.02.203-.02c-.053.105-.165.347-.337.724-.173.379-.34.767-.5 1.166-.22.529-.379.943-.48 1.245zm1.852-.74c.1 0 .19.04.269.118a.386.386 0 01.006.55.361.361 0 01-.275.118.395.395 0 01-.28-.111.37.37 0 01-.119-.282c0-.104.04-.196.118-.275a.385.385 0 01.281-.118zm1.368.099c.084.14.193.255.328.347a.748.748 0 00.425.137.662.662 0 00.445-.17.54.54 0 00.197-.425c0-.271-.258-.48-.773-.63-.515-.147-.772-.422-.772-.823 0-.306.1-.544.3-.714.201-.17.457-.255.767-.255a1.677 1.677 0 01.74.17 2.742 2.742 0 00-.158.465h-.059a.732.732 0 00-.222-.301.511.511 0 00-.334-.13.636.636 0 00-.426.143.495.495 0 00-.17.4c0 .26.258.475.773.64.515.166.772.432.772.799a.921.921 0 01-.386.779c-.227.17-.5.255-.819.255a1.78 1.78 0 01-.428-.056 1.4 1.4 0 01-.39-.153l.08-.24c.025-.08.045-.16.058-.238h.052zm3.076-3.347v.846h.694a.579.579 0 000 .249h-.694V50.6c0 .267.022.457.066.57a.414.414 0 00.419.283.742.742 0 00.16-.02c.06-.013.104-.022.134-.026v.157a2.417 2.417 0 01-.28.089 1.17 1.17 0 01-.27.029c-.261 0-.449-.07-.562-.21-.127-.157-.19-.43-.19-.82v-1.909h-.406a.407.407 0 00.013-.124.456.456 0 00-.013-.125h.406v-.644l.523-.202zm3.528 3.432v.19c.013.091.073.137.177.137a.77.77 0 00.19-.026v.144l-.094.036a.78.78 0 01-.137.036 1.07 1.07 0 01-.178.013.492.492 0 01-.309-.092c-.08-.06-.129-.163-.146-.307l-.06.059a1.33 1.33 0 01-.971.412.908.908 0 01-.617-.222.726.726 0 01-.257-.576c0-.332.124-.57.373-.714.153-.087.432-.163.838-.229.284-.048.462-.091.537-.131.105-.056.157-.16.157-.308 0-.244-.067-.432-.2-.566-.133-.132-.321-.199-.566-.199a.91.91 0 00-.55.17.566.566 0 00-.229.281h-.072v-.366c.17-.118.342-.208.514-.268a1.61 1.61 0 01.54-.092c.707 0 1.06.366 1.06 1.1v1.518zM82.751 50l-.23.046c-.38.074-.619.133-.72.177-.261.117-.392.307-.392.57 0 .2.056.352.17.457.113.105.27.157.472.157a.625.625 0 00.274-.075.94.94 0 00.25-.174 2.29 2.29 0 00.114-.108c.04-.041.062-.073.062-.094V50zm3.822-1.506l.21.027.209-.027c-.075.154-.217.465-.426.934-.192.43-.355.806-.49 1.13-.192.46-.332.82-.42 1.078l-.196-.026-.203.026a59.863 59.863 0 00-1.283-3.135l.295.02.288-.027c.2.666.526 1.508.975 2.527.03-.044.053-.074.066-.092.03-.039.05-.07.058-.091l.393-.926.524-1.418zm1.538-.846v.846h.693a.586.586 0 000 .249h-.693V50.6c0 .267.021.457.065.57a.414.414 0 00.42.283.738.738 0 00.16-.02c.059-.013.103-.022.134-.026v.157a2.455 2.455 0 01-.282.089 1.17 1.17 0 01-.268.029c-.262 0-.45-.07-.563-.21-.126-.157-.19-.43-.19-.82v-1.909h-.405a.455.455 0 00.013-.124.513.513 0 00-.013-.125h.405v-.644l.524-.202zm3.92 3.982l-.261-.02-.262.02v-.563c-.214.41-.56.615-1.04.615-.368 0-.639-.1-.816-.299-.176-.198-.265-.52-.265-.96v-1.929l.262.027.262-.02v1.767c0 .367.06.64.18.821.12.182.324.272.612.272.301 0 .519-.117.654-.354.1-.174.151-.409.151-.701v-1.812l.262.027.261-.02v3.129zm1.061-3.129l.262.02.261-.027v.662l.033-.079a1.7 1.7 0 01.367-.432.736.736 0 01.458-.183c.087 0 .155.01.203.032l-.092.55a.83.83 0 01-.137-.055.43.43 0 00-.17-.05.661.661 0 00-.23.043.46.46 0 00-.19.121.904.904 0 00-.196.361 2.01 2.01 0 00-.046.473v1.699l-.261-.026-.262.02V48.5zm2.834 3.135l-.263-.026-.261.02V48.5l.261.02.263-.02v3.135zm-.263-3.92a.323.323 0 01-.235-.098.324.324 0 01-.098-.236.32.32 0 01.098-.235.331.331 0 01.468-.003.315.315 0 01.101.238.32.32 0 01-.098.236.322.322 0 01-.236.098zm1.375 3.279c.083.14.192.255.327.347a.748.748 0 00.426.137.663.663 0 00.445-.17.539.539 0 00.196-.425c0-.271-.257-.48-.772-.63-.515-.147-.772-.422-.772-.823 0-.306.1-.544.3-.714.201-.17.457-.255.766-.255a1.674 1.674 0 01.74.17 2.742 2.742 0 00-.157.465h-.059a.737.737 0 00-.222-.301.512.512 0 00-.334-.13.635.635 0 00-.426.143.495.495 0 00-.17.4c0 .26.258.475.772.64.515.166.773.432.773.799a.921.921 0 01-.387.779c-.226.17-.5.255-.817.255a1.78 1.78 0 01-.43-.056 1.388 1.388 0 01-.388-.153l.078-.24c.026-.08.046-.16.059-.238h.052zm3.076-3.347v.846h.694a.559.559 0 000 .249h-.694V50.6c0 .267.022.457.066.57a.414.414 0 00.419.283.739.739 0 00.16-.02c.059-.013.104-.022.134-.026v.157a2.364 2.364 0 01-.281.089 1.15 1.15 0 01-.269.029c-.261 0-.449-.07-.563-.21-.126-.157-.19-.43-.19-.82v-1.909h-.405a.428.428 0 00.013-.124.481.481 0 00-.013-.125h.406v-.644l.523-.202zm1.741 3.248c.101 0 .19.04.269.118a.385.385 0 01.006.55.361.361 0 01-.275.118.396.396 0 01-.281-.111.372.372 0 01-.118-.282.38.38 0 01.118-.275.386.386 0 01.281-.118zm1.421-2.395l.261.02.262-.027v.662l.033-.079c.118-.188.24-.331.367-.432a.733.733 0 01.458-.183c.087 0 .154.01.203.032l-.092.55a.838.838 0 01-.138-.055.42.42 0 00-.17-.05.664.664 0 00-.229.043.458.458 0 00-.189.121.907.907 0 00-.197.361c-.03.122-.046.28-.046.473v1.699l-.262-.026-.261.02V48.5zm4.758 3.129l-.262-.02-.262.02v-.563c-.214.41-.561.615-1.041.615-.366 0-.638-.1-.815-.299-.176-.198-.265-.52-.265-.96v-1.929l.263.027.261-.02v1.767c0 .367.06.64.18.821.12.182.324.272.612.272.301 0 .519-.117.655-.354.1-.174.15-.409.15-.701v-1.812l.262.027.262-.02v3.129zM69.61 44.97h28.52l9.904-.72H59.706l9.905.72z"/></g><defs><clipPath id="clip0"><path fill="#fff" d="M0 0h166.636v52H0z"/></clipPath></defs></svg>