<svg width="23" height="21" fill="none" xmlns="http://www.w3.org/2000/svg"><path d="M19 11.25L23 7v12a2 2 0 01-4 0v-7.75z" fill="#E74D4D"/><path d="M2.056 0h.082c.34.01.672.09.97.236.3.147.555.354.749.606.18.22 2.396 2.758 6.646 7.616.659.74.993 1.115 1.002 1.123 3.087-3.507 5.722-6.514 7.905-9.02.38-.347.895-.548 1.435-.561h.136c.354.005.7.094 1.004.257.304.162.556.394.731.671.182.282.28.602.284.928a2.267 2.267 0 01-.825 1.599l-9.208 10.504c-.394.34-.917.532-1.462.537a2.291 2.291 0 01-1.065-.252 2.018 2.018 0 01-.779-.7L4.235 7.366v11.18c.027.414-.099.825-.359 1.167-.26.342-.638.596-1.076.723a1.171 1.171 0 01-.294.063h-.68a1.986 1.986 0 01-1.163-.525 1.847 1.847 0 01-.596-1.379V2.377L0 1.874a1.736 1.736 0 01.3-.98C.5.602.785.362 1.125.203A2.24 2.24 0 012.056 0z" fill="#fff"/></svg>