<svg fill="none" height="56" viewBox="0 0 56 56" width="56" xmlns="http://www.w3.org/2000/svg" xmlns:xlink="http://www.w3.org/1999/xlink"><clipPath id="a"><path d="m0 0h56v56h-56z"/></clipPath><g clip-path="url(#a)" opacity=".1"><circle cx="28" cy="28" fill="#fff" r="28"/><path d="m49.498 45.8596c2.8723-3.4558 4.8699-7.5525 5.824-11.9436s.8366-8.9474-.3426-13.2835c-1.1793-4.3361-3.3855-8.3244-6.4321-11.62752-3.0466-3.3031-6.8439-5.82384-11.0708-7.34898-4.2268-1.52514-8.7588-2.00981-13.2126-1.413011-4.4537.5968-8.6983 2.257511-12.3745 4.841651-3.67617 2.58414-6.6759 6.01566-8.74541 10.00436-2.06951 3.9886-3.14791519 8.4171-3.14397926 12.9106.00151034 6.5324 2.30348926 12.8556 6.50199926 17.86l-.04.034c.14.168.3.312.444.478.18.206.374.4.56.6.56.608 1.136 1.192 1.74 1.74.184.168.374.324.56.484.63999.552 1.29799 1.076 1.97999 1.564.088.06.168.138.256.2v-.024c4.6842 3.2964 10.2722 5.0655 16 5.0655s11.3158-1.7691 16-5.0655v.024c.088-.062.166-.14.256-.2.68-.49 1.34-1.012 1.98-1.564.186-.16.376-.318.56-.484.604-.55 1.18-1.132 1.74-1.74.186-.2.378-.394.56-.6.142-.166.304-.31.444-.48zm-21.498-33.86c1.78 0 3.5201.5279 5.0001 1.5168 1.4801.9889 2.6336 2.3945 3.3148 4.0391.6812 1.6445.8594 3.4541.5122 5.1999-.3473 1.7459-1.2045 3.3495-2.4631 4.6082-1.2587 1.2587-2.8623 2.1158-4.6082 2.4631-1.7458.3473-3.5554.169-5.1999-.5122-1.6446-.6811-3.0502-1.8347-4.0391-3.3147-.9889-1.4801-1.5168-3.2201-1.5168-5.0002 0-2.3869.9482-4.6761 2.6361-6.3639 1.6878-1.6879 3.977-2.6361 6.3639-2.6361zm-15.986 33.86c.0347-2.626 1.1019-5.1329 2.9707-6.9781s4.389-2.8805 7.0153-2.8819h12c2.6263.0014 5.1465 1.0367 7.0153 2.8819s2.936 4.3521 2.9707 6.9781c-4.3863 3.9527-10.0815 6.1402-15.986 6.1402s-11.5997-2.1875-15.986-6.1402z" fill="#36445f"/></g></svg>